<?xml version="1.0" encoding="utf-8"?>
<!-- Generator: Adobe Illustrator 27.0.1, SVG Export Plug-In . SVG Version: 6.00 Build 0)  -->
<svg version="1.1" id="Layer_1" xmlns:serif="http://www.serif.com/"
	 xmlns="http://www.w3.org/2000/svg" xmlns:xlink="http://www.w3.org/1999/xlink" x="0px" y="0px" viewBox="0 0 32 32"
	 style="enable-background:new 0 0 32 32;" xml:space="preserve">
<style type="text/css">
	.st0{fill-rule:evenodd;clip-rule:evenodd;fill:#FFFFFF;}
</style>
<g id="V3-VJ" transform="matrix(1,0,0,1,250.128,190.444)">
	<g transform="matrix(1,0,0,1,-50,0)">
		<path class="st0" d="M-177.6-171.7c0,0.1,0,0.1-0.1,0.2c0,0-0.1,0.1-0.2,0.1c-0.9,0-4.1,0-4.8,0c0,0-0.1,0-0.1,0c0,0,0,0.1,0,0.1
			c0,0.1,0,0.1,0,0.2c0,0,0,0.1,0,0.1c0,0,0.1,0,0.1,0c0.9,0,5.1,0,6.5,0c0.3,0,0.6,0.2,0.7,0.4c0.4,0.9,1.4,2.8,2.1,4
			c0.1,0.2,0.1,0.5,0,0.8c-0.1,0.2-0.4,0.4-0.7,0.4c-2.6,0-8.2,0-9.6,0c-0.2,0-0.3-0.1-0.3-0.3c0-0.3,0-0.7,0-1c0-0.1,0-0.2,0.1-0.2
			c0.1-0.1,0.1-0.1,0.2-0.1c1.3,0,6.5,0,8.1,0c0.1,0,0.2-0.1,0.3-0.1c0.1-0.1,0.1-0.2,0-0.3c-0.3-0.6-0.8-1.8-1-2.3
			c-0.1-0.1-0.2-0.2-0.3-0.2c-1.1,0-5.8,0-7.1,0c-0.1,0-0.2,0-0.2-0.1c-0.1-0.1-0.1-0.1-0.1-0.2c0-0.5,0-1.6,0-2.1
			c0-0.1,0-0.2,0.1-0.2c0.1-0.1,0.1-0.1,0.2-0.1c1.1,0,4.6,0,5.7,0c0.1,0,0.2,0,0.2,0.1c0.1,0.1,0.1,0.1,0.1,0.2
			C-177.6-172.1-177.6-171.9-177.6-171.7z"/>
	</g>
	<g transform="matrix(1,0,0,1,-50,0)">
		<path class="st0" d="M-192.9-170.6c0.1-0.3,0.4-0.4,0.7-0.4c1.6,0,6.4,0,7.6,0c0.1,0,0.1,0,0.2,0.1c0,0,0.1,0.1,0.1,0.2
			c0,0.2,0,0.5,0,0.6c0,0.1,0,0.1-0.1,0.2c0,0-0.1,0.1-0.2,0.1c-1.2,0-6.1,0-7.2,0c-0.1,0-0.2,0.1-0.3,0.2c-0.2,0.5-0.7,1.6-1,2.3
			c0,0.1,0,0.2,0,0.3c0.1,0.1,0.2,0.1,0.3,0.1c1.5,0,5.8,0,7.7,0c0.4,0,0.8,0.4,0.8,0.8c0,0.7,0,1.8,0,2.6c0,0.2-0.1,0.4-0.2,0.6
			c-0.2,0.1-0.4,0.2-0.6,0.2c-2.3,0-8.6,0-10.1,0c-0.1,0-0.2,0-0.2-0.1s-0.1-0.1-0.1-0.2c0-0.3,0-0.7,0-1c0-0.1,0-0.2,0.1-0.2
			c0.1-0.1,0.1-0.1,0.2-0.1c1.5,0,7.5,0,9,0c0.2,0,0.3-0.1,0.3-0.3c0-0.1,0-0.2,0-0.3c0-0.2-0.1-0.3-0.3-0.3c-1.1,0-5.1,0-7.5,0
			c-0.4,0-0.8-0.2-1-0.5c-0.2-0.3-0.2-0.7,0-1.1C-194.1-168.2-193.3-169.8-192.9-170.6z"/>
	</g>
	<g transform="matrix(1,0,0,1,-50,0)">
		<path class="st0" d="M-183.6-173.1c-0.1,0-0.2,0-0.2-0.1c-0.1-0.1-0.1-0.1-0.1-0.2c0-0.3,0-0.7,0-1c0-0.1,0-0.2,0.1-0.2
			c0.1-0.1,0.1-0.1,0.2-0.1c0.7,0,2.5,0,3.6,0c0.2,0,0.4-0.1,0.6-0.2c0.1-0.2,0.2-0.4,0.2-0.6c0-1.4,0-4.2,0-5.6
			c0-0.2-0.1-0.4-0.2-0.6c-0.2-0.2-0.4-0.2-0.6-0.2c-1.1,0-2.9,0-3.6,0c-0.2,0-0.3-0.1-0.3-0.3c0-0.6,0-2.1,0-3
			c0-0.4,0.4-0.8,0.8-0.8c1.4,0,4.2,0,5.2,0c0.1,0,0.2,0,0.2,0.1c0.1,0.1,0.1,0.1,0.1,0.2c0,0.3,0,0.7,0,1c0,0.1,0,0.2-0.1,0.2
			c-0.1,0.1-0.1,0.1-0.2,0.1c-0.9,0-3.2,0-4.1,0c-0.2,0-0.3,0.1-0.3,0.3c0,0.1,0,0.2,0,0.3c0,0.2,0.1,0.3,0.3,0.3c0.7,0,2.5,0,3.6,0
			c0.4,0,0.8,0.4,0.8,0.8c0,1.9,0,6.9,0,8.8c0,0.4-0.4,0.8-0.8,0.8C-179.8-173.1-182.6-173.1-183.6-173.1z"/>
	</g>
	<g transform="matrix(1,0,0,1,-50,0)">
		<path class="st0" d="M-184.4-182.2c0,0.1,0,0.2-0.1,0.2c-0.1,0.1-0.1,0.1-0.2,0.1c-0.7,0-2.5,0-3.6,0c-0.2,0-0.4,0.1-0.6,0.2
			c-0.2,0.2-0.2,0.4-0.2,0.6c0,1.4,0,4.2,0,5.6c0,0.2,0.1,0.4,0.2,0.6c0.2,0.2,0.4,0.2,0.6,0.2c1.1,0,2.9,0,3.6,0
			c0.1,0,0.2,0,0.2,0.1c0.1,0.1,0.1,0.1,0.1,0.2c0,0.3,0,0.7,0,1c0,0.1,0,0.2-0.1,0.2c-0.1,0.1-0.1,0.1-0.2,0.1c-1,0-3.8,0-5.2,0
			c-0.4,0-0.8-0.4-0.8-0.8c0-1.9,0-6.9,0-8.8c0-0.4,0.4-0.8,0.8-0.8c1.4,0,4.2,0,5.2,0c0.1,0,0.2,0,0.2,0.1c0.1,0.1,0.1,0.1,0.1,0.2
			C-184.4-182.9-184.4-182.5-184.4-182.2z"/>
	</g>
</g>
</svg>
