<?xml version="1.0" encoding="iso-8859-1"?>
<!-- Uploaded to: SVG Repo, www.svgrepo.com, Generator: SVG Repo Mixer Tools -->
<svg fill="#000000" version="1.1" id="main" xmlns="http://www.w3.org/2000/svg" xmlns:xlink="http://www.w3.org/1999/xlink" 
	 viewBox="0 0 491.52 491.52" xml:space="preserve">
<g>
	<g>
		<rect x="77.86" y="109.26" width="335.82" height="199.59"/>
	</g>
</g>
<g>
	<g>
		<path d="M436.325,65.651H55.205c-12.323,0-22.313,9.99-22.313,22.313v264.496h425.747V87.964
			C458.639,75.641,448.649,65.651,436.325,65.651z M429.523,316.779c0,4.382-3.546,7.928-7.927,7.928H69.934
			c-4.382,0-7.928-3.546-7.928-7.928v-215.45c0-4.382,3.546-7.928,7.928-7.928h351.662c4.381,0,7.927,3.546,7.927,7.928V316.779z"/>
	</g>
</g>
<g>
	<g>
		<polygon points="201.392,368.279 204.566,386.425 286.963,386.425 290.137,368.279 		"/>
	</g>
</g>
<g>
	<g>
		<path d="M305.921,368.279c0.003,0.471,0.147,0.929,0.065,1.401l-4.545,26.036c-0.666,3.794-3.956,6.566-7.811,6.566H197.9
			c-3.856,0-7.146-2.772-7.812-6.566l-4.544-26.036c-0.082-0.472,0.061-0.93,0.065-1.401H0v42.487l11.171,15.103h469.178
			l11.171-15.103v-42.487H305.921z"/>
	</g>
</g>
</svg>