<!DOCTYPE svg PUBLIC "-//W3C//DTD SVG 1.1//EN" "http://www.w3.org/Graphics/SVG/1.1/DTD/svg11.dtd">
<!-- Uploaded to: SVG Repo, www.svgrepo.com, Transformed by: SVG Repo Mixer Tools -->
<svg fill="#000000" height="800px" width="800px" version="1.1" id="Layer_1" xmlns="http://www.w3.org/2000/svg" xmlns:xlink="http://www.w3.org/1999/xlink" viewBox="-5.12 -5.12 522.24 522.24" xml:space="preserve" stroke="#000000" stroke-width="0.00512">
<g id="SVGRepo_bgCarrier" stroke-width="0"/>
<g id="SVGRepo_tracerCarrier" stroke-linecap="round" stroke-linejoin="round" stroke="#CCCCCC" stroke-width="33.792"/>
<g id="SVGRepo_iconCarrier"> <g> <g> <g> <circle cx="443.733" cy="290.133" r="8.533"/> <circle cx="486.4" cy="85.333" r="8.533"/> <circle cx="25.6" cy="418.133" r="8.533"/> <circle cx="76.8" cy="204.8" r="8.533"/> <path d="M76.8,34.133c-14.114,0-25.6-11.486-25.6-25.6C51.2,3.814,47.378,0,42.667,0c-4.71,0-8.533,3.814-8.533,8.533 c0,14.114-11.486,25.6-25.6,25.6C3.823,34.133,0,37.948,0,42.667S3.823,51.2,8.534,51.2c14.114,0,25.6,11.486,25.6,25.6 c0,4.719,3.823,8.533,8.533,8.533c4.71,0,8.533-3.814,8.533-8.533c0-14.114,11.486-25.6,25.6-25.6 c4.71,0,8.533-3.814,8.533-8.533S81.511,34.133,76.8,34.133z M42.667,51.226c-2.432-3.243-5.325-6.127-8.559-8.559 c3.234-2.432,6.127-5.316,8.559-8.559c2.432,3.243,5.316,6.127,8.559,8.559C47.983,45.099,45.099,47.983,42.667,51.226z"/> <path d="M503.466,452.267h-13.533l-20.6-20.6v-13.533c0-4.719-3.814-8.533-8.533-8.533c-4.719,0-8.533,3.814-8.533,8.533v13.535 l-20.599,20.599h-13.535c-4.719,0-8.533,3.814-8.533,8.533c0,4.719,3.814,8.533,8.533,8.533h13.535l20.599,20.599v13.535 c0,4.719,3.814,8.533,8.533,8.533c4.719,0,8.533-3.814,8.533-8.533v-13.533l20.6-20.6h13.533c4.719,0,8.533-3.814,8.533-8.533 C512,456.081,508.185,452.267,503.466,452.267z M460.8,474.334L447.267,460.8l13.534-13.534l13.534,13.534L460.8,474.334z"/> <path d="M357.691,268.169c0.777-14.728,0.743-25.923,0.709-29.278c0-20.497-0.939-40.917-2.79-60.698 c-3.354-35.814-12.075-68.83-25.924-98.116c-1.681-3.55-3.379-6.869-5.094-10.112l-6.178,4.412 c-17.126,12.553-39.322,19.49-62.413,19.49c-23.091,0-45.286-6.938-62.498-19.55l-6.127-4.292 c-1.698,3.226-3.388,6.528-5.06,10.052c-13.85,29.286-22.571,62.302-25.924,98.116c-1.852,19.789-2.79,40.235-2.79,60.646 c-0.034,3.296-0.073,14.528,0.708,29.327c-10.713,8.159-43.377,38.024-43.377,98.764v34.347c0,6.468,3.567,12.356,9.318,15.351 c2.526,1.314,5.274,1.963,8.004,1.963c3.482,0,6.946-1.05,9.916-3.132l50.63-35.435c5.595,4.653,14.321,10.393,26.781,14.693 c-13.424,17.218-14.433,41.811-1.837,60.705l35.157,52.779c1.579,2.372,4.241,3.797,7.1,3.797c2.85,0,5.513-1.425,7.1-3.789 l35.157-52.659c12.628-18.938,11.613-43.581-1.838-60.833c12.462-4.301,21.188-10.042,26.783-14.695l50.63,35.435 c2.97,2.082,6.434,3.132,9.916,3.132c2.731,0,5.478-0.649,8.004-1.963c5.751-2.995,9.318-8.875,9.318-15.351V366.93 C401.07,306.197,368.413,276.332,357.691,268.169z M127.997,401.277v-34.347c0-40.797,16.463-65.237,27.911-77.304 c1.074,10.989,2.638,22.648,4.91,33.835c3.918,19.686,9.328,34.396,16.151,43.939L127.997,401.277z M255.854,418.11 c-0.894-0.23-3.69-2.409-6.823-8.985c-2.021-4.389-4.093-10.351-5.832-17.877c-0.02-0.088-0.04-0.176-0.06-0.265 c-0.111-0.485-0.218-0.988-0.326-1.486c-0.055-0.255-0.109-0.513-0.163-0.773c-2.098-10.078-3.344-21.488-3.643-33.292 c-0.005-0.205-0.012-0.407-0.016-0.613c-0.037-1.645-0.058-3.296-0.058-4.952c0-44.792,12.681-68.267,17.067-68.267 c4.386,0,17.067,23.475,17.067,68.267c0,1.658-0.021,3.311-0.058,4.957c-0.004,0.196-0.011,0.388-0.016,0.583 c-0.295,11.689-1.524,22.995-3.588,33.03c-0.109,0.529-0.218,1.053-0.329,1.564c-0.032,0.143-0.063,0.289-0.094,0.431 c-0.082,0.373-0.166,0.733-0.249,1.096c-1.74,7.458-3.806,13.37-5.818,17.714c-3.11,6.488-5.879,8.64-6.769,8.869 c-0.048,0.005-0.1,0.023-0.145,0.023C255.954,418.133,255.902,418.116,255.854,418.11z M256,247.467 c-37.641,0-68.267-30.626-68.267-68.267s30.626-68.267,68.267-68.267c37.641,0,68.267,30.626,68.267,68.267 S293.64,247.467,256,247.467z M383.61,401.473l-48.657-34.057c6.29-8.845,11.352-21.873,15.162-38.972 c0.053-0.236,0.104-0.475,0.157-0.712c0.089-0.403,0.178-0.802,0.266-1.21c2.623-12.1,4.379-24.89,5.552-36.882 c11.465,12.078,27.914,36.508,27.914,77.289L383.61,401.473z"/> <path d="M255.998,76.8c19.49,0,38.11-5.777,52.42-16.247l7.637-5.461c-27.759-44.493-56.047-54.229-57.429-54.673 c-1.707-0.555-3.541-0.555-5.248,0c-1.391,0.444-29.705,10.189-57.481,54.741l7.543,5.291 C217.897,71.023,236.508,76.8,255.998,76.8z"/> <path d="M256,128c-28.237,0-51.2,22.963-51.2,51.2s22.963,51.2,51.2,51.2s51.2-22.963,51.2-51.2S284.236,128,256,128z M256,213.333c-18.825,0-34.133-15.309-34.133-34.133s15.309-34.133,34.133-34.133c18.825,0,34.133,15.309,34.133,34.133 S274.824,213.333,256,213.333z"/> <path d="M256,162.133c-9.412,0-17.067,7.654-17.067,17.067s7.654,17.067,17.067,17.067c9.412,0,17.067-7.654,17.067-17.067 S265.412,162.133,256,162.133z"/> </g> </g> </g> </g>
</svg>