<?xml version="1.0" encoding="utf-8"?>
<!-- Generator: Adobe Illustrator 27.0.1, SVG Export Plug-In . SVG Version: 6.00 Build 0)  -->
<svg version="1.1" id="Layer_1" xmlns:serif="http://www.serif.com/"
	 xmlns="http://www.w3.org/2000/svg" xmlns:xlink="http://www.w3.org/1999/xlink" x="0px" y="0px" viewBox="0 0 96 96"
	 style="enable-background:new 0 0 96 96;" xml:space="preserve">
<style type="text/css">
	.st0{fill-rule:evenodd;clip-rule:evenodd;fill:#FFFFFF;}
</style>
<g>
	<path class="st0" d="M73,3v4c0,0.6-0.4,1-1,1H56c-0.6,0-1,0.4-1,1v2c0,0.6,0.4,1,1,1h14c1.7,0,3,1.3,3,3v36c0,1.7-1.3,3-3,3H50
		c-0.6,0-1-0.4-1-1v-4c0-0.6,0.4-1,1-1h15c1.1,0,2-0.9,2-2V20c0-1.1-0.9-2-2-2H50c-0.6,0-1-0.4-1-1V5c0-1.7,1.3-3,3-3h20
		C72.6,2,73,2.4,73,3z"/>
	<path class="st0" d="M47,13v4c0,0.6-0.4,1-1,1H31c-1.1,0-2,0.9-2,2v26c0,1.1,0.9,2,2,2h15c0.6,0,1,0.4,1,1v4c0,0.6-0.4,1-1,1H26
		c-1.7,0-3-1.3-3-3V15c0-1.7,1.3-3,3-3h20C46.6,12,47,12.4,47,13z"/>
	<path class="st0" d="M72,56H50c-0.6,0-1,0.4-1,1v8c0,0.6,0.4,1,1,1h27.6c0.9,0,1.6,0.6,1.9,1.4l2.7,8c0.4,1.3-0.5,2.6-1.9,2.6H50
		c-0.6,0-1,0.4-1,1v4c0,0.6,0.4,1,1,1h36.7c2.1,0,3.5-2.1,2.8-4l-5.8-16c-0.4-1.2-1.6-2-2.8-2H53.5c-0.3,0-0.5-0.2-0.5-0.5v-1
		c0-0.3,0.2-0.5,0.5-0.5H72c0.6,0,1-0.4,1-1v-2C73,56.4,72.6,56,72,56z"/>
	<path class="st0" d="M47,63v2c0,0.6-0.4,1-1,1H18.4c-0.9,0-1.6,0.6-1.9,1.4l-2.7,8c-0.4,1.3,0.5,2.6,1.9,2.6H44c1.7,0,3,1.3,3,3v10
		c0,1.7-1.3,3-3,3H6c-0.6,0-1-0.4-1-1v-4c0-0.6,0.4-1,1-1h34c0.6,0,1-0.4,1-1v-2c0-0.6-0.4-1-1-1H9.3c-2.1,0-3.5-2.1-2.8-4l5.8-16
		c0.4-1.2,1.6-2,2.8-2H46C46.6,62,47,62.4,47,63z"/>
</g>
</svg>
