<?xml version="1.0" encoding="utf-8"?>
<!-- Generator: Adobe Illustrator 27.0.1, SVG Export Plug-In . SVG Version: 6.00 Build 0)  -->
<svg version="1.1" id="Layer_1" xmlns="http://www.w3.org/2000/svg" xmlns:xlink="http://www.w3.org/1999/xlink" x="0px" y="0px"
	 viewBox="0 0 32 32" style="enable-background:new 0 0 32 32;" xml:space="preserve">
<style type="text/css">
	.st0{fill:#FFFFFF;}
</style>
<g>
	<path class="st0" d="M24,29H8c-2.8,0-5-2.2-5-5V8c0-2.8,2.2-5,5-5h10c0.6,0,1,0.4,1,1s-0.4,1-1,1H8C6.3,5,5,6.3,5,8v16
		c0,1.7,1.3,3,3,3h16c1.7,0,3-1.3,3-3V14c0-0.6,0.4-1,1-1s1,0.4,1,1v10C29,26.8,26.8,29,24,29z"/>
</g>
<g>
	<path class="st0" d="M28.7,3.3c-1.5-1.5-3.9-1.5-5.4,0L12,14.6c-0.5,0.5-1,1.2-1.2,1.9L9,21.7c-0.1,0.4,0,0.8,0.2,1
		C9.5,22.9,9.7,23,10,23c0.1,0,0.2,0,0.3,0l5.1-1.7c0.7-0.2,1.4-0.7,2-1.2L28.7,8.7C30.2,7.2,30.2,4.8,28.7,3.3z M16,18.6
		c-0.3,0.3-0.7,0.6-1.2,0.7l-3.2,1.1l1.1-3.2c0.1-0.4,0.4-0.8,0.7-1.2L22,7.4l2.6,2.6L16,18.6z M27.3,7.3L26,8.6L23.4,6l1.3-1.3
		c0.3-0.4,0.8-0.5,1.3-0.5s0.9,0.2,1.3,0.5C28,5.4,28,6.6,27.3,7.3z"/>
</g>
</svg>
