<?xml version="1.0" encoding="utf-8"?>
<!-- Generator: Adobe Illustrator 27.0.1, SVG Export Plug-In . SVG Version: 6.00 Build 0)  -->
<svg version="1.1" id="Layer_1" xmlns="http://www.w3.org/2000/svg" xmlns:xlink="http://www.w3.org/1999/xlink" x="0px" y="0px"
	 viewBox="0 0 1408 1600" style="enable-background:new 0 0 1408 1600;" xml:space="preserve">
<style type="text/css">
	.st0{fill:#F0F0F0;}
	.st1{fill:#D0D0E0;}
	.st2{fill:#E0E0E0;}
	.st3{fill:#C0C0D0;}
	.st4{fill:none;}
	.st5{fill:#A0A0A0;}
	.st6{fill:#FFE07E;}
	.st7{fill:#AB5675;}
	.st8{fill:#FFA7A5;}
	.st9{fill:#72DCBB;}
	.st10{fill:#73464C;}
	.st11{fill:#34ACBA;}
	.st12{fill:#EE6A7C;}
	.st13{fill:#FFFFFF;}
	.st14{fill:#007899;}
</style>
<g>
	<g>
		<rect class="st0" width="1408" height="64"/>
	</g>
	<g>
		<rect y="128" class="st0" width="1408" height="64"/>
	</g>
	<g>
		<rect y="256" class="st0" width="1408" height="64"/>
	</g>
	<g>
		<rect y="384" class="st0" width="1408" height="64"/>
	</g>
	<g>
		<rect y="512" class="st0" width="1408" height="64"/>
	</g>
	<g>
		<rect y="640" class="st0" width="1408" height="64"/>
	</g>
	<g>
		<rect y="768" class="st0" width="1408" height="64"/>
	</g>
	<g>
		<rect y="896" class="st0" width="1408" height="64"/>
	</g>
	<g>
		<rect y="1024" class="st0" width="1408" height="64"/>
	</g>
	<g>
		<rect y="1152" class="st1" width="1408" height="64"/>
	</g>
	<g>
		<rect y="1280" class="st1" width="1408" height="64"/>
	</g>
	<g>
		<rect y="1408" class="st1" width="1408" height="64"/>
	</g>
	<g>
		<rect y="1536" class="st1" width="1408" height="64"/>
	</g>
	<g>
		<rect y="64" class="st2" width="1408" height="64"/>
	</g>
	<g>
		<rect y="192" class="st2" width="1408" height="64"/>
	</g>
	<g>
		<rect y="320" class="st2" width="1408" height="64"/>
	</g>
	<g>
		<rect y="448" class="st2" width="1408" height="64"/>
	</g>
	<g>
		<rect y="576" class="st2" width="1408" height="64"/>
	</g>
	<g>
		<rect y="704" class="st2" width="1408" height="64"/>
	</g>
	<g>
		<rect y="832" class="st2" width="1408" height="64"/>
	</g>
	<g>
		<rect y="960" class="st2" width="1408" height="64"/>
	</g>
	<g>
		<rect y="1088" class="st3" width="1408" height="64"/>
	</g>
	<g>
		<rect y="1216" class="st3" width="1408" height="64"/>
	</g>
	<g>
		<rect y="1344" class="st3" width="1408" height="64"/>
	</g>
	<g>
		<rect y="1472" class="st3" width="1408" height="64"/>
	</g>
</g>
<g>
	<line class="st4" x1="128" y1="0" x2="128" y2="1600"/>
	<rect x="127" class="st5" width="2" height="1600"/>
</g>
<g>
	<line class="st4" x1="384" y1="0" x2="384" y2="1600"/>
	<rect x="383" class="st5" width="2" height="1600"/>
</g>
<g>
	<line class="st4" x1="640" y1="0" x2="640" y2="1600"/>
	<rect x="639" class="st5" width="2" height="1600"/>
</g>
<g>
	<line class="st4" x1="896" y1="0" x2="896" y2="1600"/>
	<rect x="895" class="st5" width="2" height="1600"/>
</g>
<g>
	<line class="st4" x1="1152" y1="0" x2="1152" y2="1600"/>
	<rect x="1151" class="st5" width="2" height="1600"/>
</g>
<g>
	<path d="M37,105.9c0-3,1.8-4.8,4.5-5.5v-0.3c-2.4-0.8-3.9-2.7-3.9-5.2c0-3.4,2.7-5.6,7.2-5.6s7.2,2.2,7.2,5.6
		c0,2.6-1.5,4.4-3.9,5.2v0.3c2.7,0.7,4.5,2.5,4.5,5.5c0,3.7-2.7,6.5-7.8,6.5S37,109.6,37,105.9z M49.9,106.1v-0.7c0-2.6-1.9-4-5.1-4
		s-5.1,1.5-5.1,4v0.7c0,2.5,1.9,4,5.1,4S49.9,108.6,49.9,106.1z M49.2,95.6v-0.4c0-2.3-1.6-3.6-4.4-3.6c-2.8,0-4.4,1.3-4.4,3.6v0.4
		c0,2.3,1.6,3.6,4.4,3.6C47.7,99.2,49.2,97.9,49.2,95.6z"/>
	<path d="M89,112l-1.9-6.4h-7.8l-1.9,6.4h-2.8l6.8-22.3H85l6.8,22.3H89z M83.3,92.5H83l-3.1,10.8h6.6L83.3,92.5z"/>
	<path d="M107.4,100.8v-7.1h-0.3l-4.7,11.5l-4.7-11.5h-0.3v7.1V112H95V89.7h3.5l3.9,9.9h0.2l3.9-9.9h3.3V112h-2.5L107.4,100.8
		L107.4,100.8z"/>
</g>
<g>
	<path d="M44.3,176h-3.5c4.9-3.5,7.6-6.4,8.8-11.6l-0.2-0.1c-1.1,1.8-2.7,3.2-5.5,3.2c-3.9,0-6.7-2.7-6.7-6.9c0-4.4,3-7.4,7.5-7.4
		c4.7,0,7.6,3.3,7.6,8.6C52.4,168.5,47.9,173.7,44.3,176z M49.6,160.6v-0.3c0-3-1.8-4.8-4.8-4.8s-4.8,1.8-4.8,4.8v0.3
		c0,3,1.8,4.8,4.8,4.8C47.8,165.3,49.6,163.6,49.6,160.6z"/>
	<path d="M89,176l-1.9-6.4h-7.8l-1.9,6.4h-2.8l6.8-22.3H85l6.8,22.3H89z M83.3,156.5H83l-3.1,10.8h6.6L83.3,156.5z"/>
	<path d="M107.4,164.8v-7.1h-0.3l-4.7,11.5l-4.7-11.5h-0.3v7.1V176H95v-22.3h3.5l3.9,9.9h0.2l3.9-9.9h3.3V176h-2.5L107.4,164.8
		L107.4,164.8z"/>
</g>
<g>
	<path d="M18.7,240v-2.3h6.4v-18h-0.2l-5.6,5.2l-1.6-1.7l5.9-5.5h4.2v20h5.9v2.3H18.7z"/>
	<path d="M37,228.8c0-7.3,2.4-11.6,7.8-11.6s7.8,4.3,7.8,11.6s-2.4,11.6-7.8,11.6C39.4,240.4,37,236.1,37,228.8z M49.8,230.7V227
		c0-4.5-1.4-7.4-5-7.4s-5,2.9-5,7.4v3.6c0,4.5,1.4,7.4,5,7.4C48.4,238,49.8,235.1,49.8,230.7z M42.8,229.2v-0.7c0-0.9,0.5-1.5,2-1.5
		s2,0.7,2,1.5v0.7c0,0.9-0.5,1.5-2,1.5S42.8,230,42.8,229.2z"/>
	<path d="M89,240l-1.9-6.4h-7.8l-1.9,6.4h-2.8l6.8-22.3H85l6.8,22.3H89z M83.3,220.5H83l-3.1,10.8h6.6L83.3,220.5z"/>
	<path d="M107.4,228.8v-7.1h-0.3l-4.7,11.5l-4.7-11.5h-0.3v7.1V240H95v-22.3h3.5l3.9,9.9h0.2l3.9-9.9h3.3V240h-2.5L107.4,228.8
		L107.4,228.8z"/>
</g>
<g>
	<path d="M18.7,304v-2.3h6.4v-18h-0.2l-5.6,5.2l-1.6-1.7l5.9-5.5h4.2v20h5.9v2.3H18.7z"/>
	<path d="M37.9,304v-2.3h6.4v-18h-0.2l-5.6,5.2l-1.6-1.7l5.9-5.5H47v20h5.9v2.3H37.9z"/>
	<path d="M89,304l-1.9-6.4h-7.8l-1.9,6.4h-2.8l6.8-22.3H85l6.8,22.3H89z M83.3,284.5H83l-3.1,10.8h6.6L83.3,284.5z"/>
	<path d="M107.4,292.8v-7.1h-0.3l-4.7,11.5l-4.7-11.5h-0.3v7.1V304H95v-22.3h3.5l3.9,9.9h0.2l3.9-9.9h3.3V304h-2.5L107.4,292.8
		L107.4,292.8z"/>
</g>
<g>
	<path d="M18.7,368v-2.3h6.4v-18h-0.2l-5.6,5.2l-1.6-1.7l5.9-5.5h4.2v20h5.9v2.3H18.7z"/>
	<path d="M52.4,368H37.5v-2.8l7.5-6.7c2.2-2,3.7-4,3.7-6.3v-0.4c0-2.7-1.4-4.2-4.2-4.2c-2.7,0-4.1,1.5-4.8,3.8l-2.4-0.9
		c0.9-2.6,2.9-5.2,7.3-5.2s6.9,2.7,6.9,6.5c0,3.4-2,5.9-5,8.5l-6.2,5.4h12.1V368z"/>
	<path d="M76.5,368v-22.3h8.1c4.1,0,6.4,2.4,6.4,6.4s-2.2,6.4-6.4,6.4h-5.4v9.5H76.5z M79.2,356.2h5.4c2.2,0,3.6-1.2,3.6-3.3v-1.7
		c0-2.1-1.3-3.3-3.6-3.3h-5.4V356.2z"/>
	<path d="M107.4,356.8v-7.1h-0.3l-4.7,11.5l-4.7-11.5h-0.3v7.1V368H95v-22.3h3.5l3.9,9.9h0.2l3.9-9.9h3.3V368h-2.5L107.4,356.8
		L107.4,356.8z"/>
</g>
<g>
	<path d="M37.9,432v-2.3h6.4v-18h-0.2l-5.6,5.2l-1.6-1.7l5.9-5.5H47v20h5.9v2.3H37.9z"/>
	<path d="M76.5,432v-22.3h8.1c4.1,0,6.4,2.4,6.4,6.4s-2.2,6.4-6.4,6.4h-5.4v9.5H76.5z M79.2,420.2h5.4c2.2,0,3.6-1.2,3.6-3.3v-1.7
		c0-2.1-1.3-3.3-3.6-3.3h-5.4V420.2z"/>
	<path d="M107.4,420.8v-7.1h-0.3l-4.7,11.5l-4.7-11.5h-0.3v7.1V432H95v-22.3h3.5l3.9,9.9h0.2l3.9-9.9h3.3V432h-2.5L107.4,420.8
		L107.4,420.8z"/>
</g>
<g>
	<path d="M52.4,496H37.5v-2.8l7.5-6.7c2.2-2,3.7-4,3.7-6.3v-0.4c0-2.7-1.4-4.2-4.2-4.2c-2.7,0-4.1,1.5-4.8,3.8l-2.4-0.9
		c0.9-2.6,2.9-5.2,7.3-5.2s6.9,2.7,6.9,6.5c0,3.4-2,5.9-5,8.5l-6.2,5.4h12.1V496z"/>
	<path d="M76.5,496v-22.3h8.1c4.1,0,6.4,2.4,6.4,6.4s-2.2,6.4-6.4,6.4h-5.4v9.5H76.5z M79.2,484.2h5.4c2.2,0,3.6-1.2,3.6-3.3v-1.7
		c0-2.1-1.3-3.3-3.6-3.3h-5.4V484.2z"/>
	<path d="M107.4,484.8v-7.1h-0.3l-4.7,11.5l-4.7-11.5h-0.3v7.1V496H95v-22.3h3.5l3.9,9.9h0.2l3.9-9.9h3.3V496h-2.5L107.4,484.8
		L107.4,484.8z"/>
</g>
<g>
	<path d="M43.8,547.1c3.1,0,4.7-1.6,4.7-3.7v-0.2c0-2.4-1.7-3.6-4.1-3.6c-2.4,0-3.8,1.2-4.7,2.8l-2-1.5c1.2-1.8,3.1-3.6,6.8-3.6
		c3.8,0,6.8,2,6.8,5.6c0,2.9-1.9,4.6-4.4,5.2v0.1c2.5,0.5,4.8,2.3,4.8,5.6c0,3.8-3.1,6.5-7.7,6.5c-3.9,0-6-1.9-7.3-3.8l2-1.5
		c1.2,1.8,2.5,3,5.3,3c3.1,0,4.9-1.5,4.9-4.2v-0.3c0-2.6-1.7-4.2-4.9-4.2h-2.7V547L43.8,547.1C43.8,547,43.8,547.1,43.8,547.1z"/>
	<path d="M76.5,560v-22.3h8.1c4.1,0,6.4,2.4,6.4,6.4s-2.2,6.4-6.4,6.4h-5.4v9.5L76.5,560L76.5,560z M79.2,548.2h5.4
		c2.2,0,3.6-1.2,3.6-3.3v-1.7c0-2.1-1.3-3.3-3.6-3.3h-5.4V548.2z"/>
	<path d="M107.4,548.8v-7.1h-0.3l-4.7,11.5l-4.7-11.5h-0.3v7.1V560H95v-22.3h3.5l3.9,9.9h0.2l3.9-9.9h3.3V560h-2.5L107.4,548.8
		L107.4,548.8z"/>
</g>
<g>
	<path d="M47.3,624v-4.4h-11v-2.4l9.7-15.6h3.9v15.7h3.3v2.2h-3.3v4.4L47.3,624L47.3,624z M38.7,617.4h8.6v-13.7h-0.1L38.7,617.4z"
		/>
	<path d="M76.5,624v-22.3h8.1c4.1,0,6.4,2.4,6.4,6.4s-2.2,6.4-6.4,6.4h-5.4v9.5L76.5,624L76.5,624z M79.2,612.2h5.4
		c2.2,0,3.6-1.2,3.6-3.3v-1.7c0-2.1-1.3-3.3-3.6-3.3h-5.4V612.2z"/>
	<path d="M107.4,612.8v-7.1h-0.3l-4.7,11.5l-4.7-11.5h-0.3v7.1V624H95v-22.3h3.5l3.9,9.9h0.2l3.9-9.9h3.3V624h-2.5L107.4,612.8
		L107.4,612.8z"/>
</g>
<g>
	<path d="M51.2,668h-10l-0.6,8.5h0.2c1.1-1.5,2.3-2.4,4.7-2.4c3.9,0,6.8,2.6,6.8,6.9c0,4.4-2.8,7.4-7.6,7.4c-3.8,0-5.7-1.9-7.1-3.8
		l2-1.5c1.2,1.8,2.4,3,5.2,3c3.1,0,4.8-1.8,4.8-4.7v-0.3c0-2.9-1.7-4.7-4.8-4.7c-2.1,0-3.1,0.8-4.1,1.9l-2.3-0.3l0.8-12.3h12.2v2.3
		L51.2,668L51.2,668z"/>
	<path d="M76.5,688v-22.3h8.1c4.1,0,6.4,2.4,6.4,6.4s-2.2,6.4-6.4,6.4h-5.4v9.5L76.5,688L76.5,688z M79.2,676.2h5.4
		c2.2,0,3.6-1.2,3.6-3.3v-1.7c0-2.1-1.3-3.3-3.6-3.3h-5.4V676.2z"/>
	<path d="M107.4,676.8v-7.1h-0.3l-4.7,11.5l-4.7-11.5h-0.3v7.1V688H95v-22.3h3.5l3.9,9.9h0.2l3.9-9.9h3.3V688h-2.5L107.4,676.8
		L107.4,676.8z"/>
</g>
<g>
	<path d="M37.2,743.8c0-6.6,4.4-11.8,8.1-14.1h3.5c-4.9,3.5-7.6,6.4-8.8,11.6l0.2,0.1c1.1-1.8,2.7-3.2,5.5-3.2
		c3.9,0,6.7,2.7,6.7,6.9c0,4.4-3,7.4-7.5,7.4C40.1,752.4,37.2,749.1,37.2,743.8z M49.6,745.3V745c0-3-1.8-4.8-4.8-4.8S40,742,40,745
		v0.3c0,3,1.8,4.8,4.8,4.8S49.6,748.4,49.6,745.3z"/>
	<path d="M76.5,752v-22.3h8.1c4.1,0,6.4,2.4,6.4,6.4s-2.2,6.4-6.4,6.4h-5.4v9.5L76.5,752L76.5,752z M79.2,740.2h5.4
		c2.2,0,3.6-1.2,3.6-3.3v-1.7c0-2.1-1.3-3.3-3.6-3.3h-5.4V740.2z"/>
	<path d="M107.4,740.8v-7.1h-0.3l-4.7,11.5l-4.7-11.5h-0.3v7.1V752H95v-22.3h3.5l3.9,9.9h0.2l3.9-9.9h3.3V752h-2.5L107.4,740.8
		L107.4,740.8z"/>
</g>
<g>
	<path d="M40.7,816l8.7-20h-9.8v4.2h-2.4v-6.5h14.9v2.4l-8.6,20h-2.8V816z"/>
	<path d="M76.5,816v-22.3h8.1c4.1,0,6.4,2.4,6.4,6.4s-2.2,6.4-6.4,6.4h-5.4v9.5L76.5,816L76.5,816z M79.2,804.2h5.4
		c2.2,0,3.6-1.2,3.6-3.3v-1.7c0-2.1-1.3-3.3-3.6-3.3h-5.4V804.2z"/>
	<path d="M107.4,804.8v-7.1h-0.3l-4.7,11.5l-4.7-11.5h-0.3v7.1V816H95v-22.3h3.5l3.9,9.9h0.2l3.9-9.9h3.3V816h-2.5L107.4,804.8
		L107.4,804.8z"/>
</g>
<g>
	<path d="M37,873.9c0-3,1.8-4.8,4.5-5.5v-0.3c-2.4-0.8-3.9-2.7-3.9-5.2c0-3.4,2.7-5.6,7.2-5.6s7.2,2.2,7.2,5.6
		c0,2.6-1.5,4.4-3.9,5.2v0.3c2.7,0.7,4.5,2.5,4.5,5.5c0,3.7-2.7,6.5-7.8,6.5S37,877.6,37,873.9z M49.9,874.1v-0.7c0-2.6-1.9-4-5.1-4
		s-5.1,1.5-5.1,4v0.7c0,2.5,1.9,4,5.1,4S49.9,876.6,49.9,874.1z M49.2,863.6v-0.4c0-2.3-1.6-3.6-4.4-3.6c-2.8,0-4.4,1.3-4.4,3.6v0.4
		c0,2.3,1.6,3.6,4.4,3.6C47.7,867.2,49.2,865.9,49.2,863.6z"/>
	<path d="M76.5,880v-22.3h8.1c4.1,0,6.4,2.4,6.4,6.4s-2.2,6.4-6.4,6.4h-5.4v9.5L76.5,880L76.5,880z M79.2,868.2h5.4
		c2.2,0,3.6-1.2,3.6-3.3v-1.7c0-2.1-1.3-3.3-3.6-3.3h-5.4V868.2z"/>
	<path d="M107.4,868.8v-7.1h-0.3l-4.7,11.5l-4.7-11.5h-0.3v7.1V880H95v-22.3h3.5l3.9,9.9h0.2l3.9-9.9h3.3V880h-2.5L107.4,868.8
		L107.4,868.8z"/>
</g>
<g>
	<path d="M44.3,944h-3.5c4.9-3.5,7.6-6.4,8.8-11.6l-0.2-0.1c-1.1,1.8-2.7,3.2-5.5,3.2c-3.9,0-6.7-2.7-6.7-6.9c0-4.4,3-7.4,7.5-7.4
		c4.7,0,7.6,3.3,7.6,8.6C52.4,936.5,47.9,941.7,44.3,944z M49.6,928.6v-0.3c0-3-1.8-4.8-4.8-4.8s-4.8,1.8-4.8,4.8v0.3
		c0,3,1.8,4.8,4.8,4.8C47.8,933.3,49.6,931.6,49.6,928.6z"/>
	<path d="M76.5,944v-22.3h8.1c4.1,0,6.4,2.4,6.4,6.4s-2.2,6.4-6.4,6.4h-5.4v9.5L76.5,944L76.5,944z M79.2,932.2h5.4
		c2.2,0,3.6-1.2,3.6-3.3v-1.7c0-2.1-1.3-3.3-3.6-3.3h-5.4V932.2z"/>
	<path d="M107.4,932.8v-7.1h-0.3l-4.7,11.5l-4.7-11.5h-0.3v7.1V944H95v-22.3h3.5l3.9,9.9h0.2l3.9-9.9h3.3V944h-2.5L107.4,932.8
		L107.4,932.8z"/>
</g>
<g>
	<path d="M18.7,1008v-2.3h6.4v-18h-0.2l-5.6,5.2l-1.6-1.7l5.9-5.5h4.2v20h5.9v2.3H18.7z"/>
	<path d="M37,996.8c0-7.3,2.4-11.6,7.8-11.6s7.8,4.3,7.8,11.6s-2.4,11.6-7.8,11.6C39.4,1008.4,37,1004.1,37,996.8z M49.8,998.7V995
		c0-4.5-1.4-7.4-5-7.4s-5,2.9-5,7.4v3.6c0,4.5,1.4,7.4,5,7.4C48.4,1006,49.8,1003.1,49.8,998.7z M42.8,997.2v-0.7
		c0-0.9,0.5-1.5,2-1.5s2,0.7,2,1.5v0.7c0,0.9-0.5,1.5-2,1.5S42.8,998,42.8,997.2z"/>
	<path d="M76.5,1008v-22.3h8.1c4.1,0,6.4,2.4,6.4,6.4s-2.2,6.4-6.4,6.4h-5.4v9.5L76.5,1008L76.5,1008z M79.2,996.2h5.4
		c2.2,0,3.6-1.2,3.6-3.3v-1.7c0-2.1-1.3-3.3-3.6-3.3h-5.4V996.2z"/>
	<path d="M107.4,996.8v-7.1h-0.3l-4.7,11.5l-4.7-11.5h-0.3v7.1v11.2H95v-22.3h3.5l3.9,9.9h0.2l3.9-9.9h3.3v22.3h-2.5L107.4,996.8
		L107.4,996.8z"/>
</g>
<g>
	<path d="M18.7,1072v-2.3h6.4v-18h-0.2l-5.6,5.2l-1.6-1.7l5.9-5.5h4.2v20h5.9v2.3H18.7z"/>
	<path d="M37.9,1072v-2.3h6.4v-18h-0.2l-5.6,5.2l-1.6-1.7l5.9-5.5H47v20h5.9v2.3H37.9z"/>
	<path d="M76.5,1072v-22.3h8.1c4.1,0,6.4,2.4,6.4,6.4s-2.2,6.4-6.4,6.4h-5.4v9.5H76.5z M79.2,1060.2h5.4c2.2,0,3.6-1.2,3.6-3.3v-1.7
		c0-2.1-1.3-3.3-3.6-3.3h-5.4V1060.2z"/>
	<path d="M107.4,1060.8v-7.1h-0.3l-4.7,11.5l-4.7-11.5h-0.3v7.1v11.2H95v-22.3h3.5l3.9,9.9h0.2l3.9-9.9h3.3v22.3h-2.5L107.4,1060.8
		L107.4,1060.8z"/>
</g>
<g>
	<path d="M18.7,1136v-2.3h6.4v-18h-0.2l-5.6,5.2l-1.6-1.7l5.9-5.5h4.2v20h5.9v2.3H18.7z"/>
	<path d="M52.4,1136H37.5v-2.8l7.5-6.7c2.2-2,3.7-4,3.7-6.3v-0.4c0-2.7-1.4-4.2-4.2-4.2c-2.7,0-4.1,1.5-4.8,3.8l-2.4-0.9
		c0.9-2.6,2.9-5.2,7.3-5.2s6.9,2.7,6.9,6.5c0,3.4-2,5.9-5,8.5l-6.2,5.4h12.1V1136z"/>
	<path d="M89,1136l-1.9-6.4h-7.8l-1.9,6.4h-2.8l6.8-22.3H85l6.8,22.3H89z M83.3,1116.5H83l-3.1,10.8h6.6L83.3,1116.5z"/>
	<path d="M107.4,1124.8v-7.1h-0.3l-4.7,11.5l-4.7-11.5h-0.3v7.1v11.2H95v-22.3h3.5l3.9,9.9h0.2l3.9-9.9h3.3v22.3h-2.5L107.4,1124.8
		L107.4,1124.8z"/>
</g>
<g>
	<path d="M37.9,1200v-2.3h6.4v-18h-0.2l-5.6,5.2l-1.6-1.7l5.9-5.5H47v20h5.9v2.3H37.9z"/>
	<path d="M89,1200l-1.9-6.4h-7.8l-1.9,6.4h-2.8l6.8-22.3H85l6.8,22.3H89z M83.3,1180.5H83l-3.1,10.8h6.6L83.3,1180.5z"/>
	<path d="M107.4,1188.8v-7.1h-0.3l-4.7,11.5l-4.7-11.5h-0.3v7.1v11.2H95v-22.3h3.5l3.9,9.9h0.2l3.9-9.9h3.3v22.3h-2.5L107.4,1188.8
		L107.4,1188.8z"/>
</g>
<g>
	<path d="M52.4,1264H37.5v-2.8l7.5-6.7c2.2-2,3.7-4,3.7-6.3v-0.4c0-2.7-1.4-4.2-4.2-4.2c-2.7,0-4.1,1.5-4.8,3.8l-2.4-0.9
		c0.9-2.6,2.9-5.2,7.3-5.2s6.9,2.7,6.9,6.5c0,3.4-2,5.9-5,8.5l-6.2,5.4h12.1V1264z"/>
	<path d="M89,1264l-1.9-6.4h-7.8l-1.9,6.4h-2.8l6.8-22.3H85l6.8,22.3H89z M83.3,1244.5H83l-3.1,10.8h6.6L83.3,1244.5z"/>
	<path d="M107.4,1252.8v-7.1h-0.3l-4.7,11.5l-4.7-11.5h-0.3v7.1v11.2H95v-22.3h3.5l3.9,9.9h0.2l3.9-9.9h3.3v22.3h-2.5L107.4,1252.8
		L107.4,1252.8z"/>
</g>
<g>
	<path d="M43.8,1315.1c3.1,0,4.7-1.6,4.7-3.7v-0.2c0-2.4-1.7-3.6-4.1-3.6c-2.4,0-3.8,1.2-4.7,2.8l-2-1.5c1.2-1.8,3.1-3.6,6.8-3.6
		c3.8,0,6.8,2,6.8,5.6c0,2.9-1.9,4.6-4.4,5.2v0.1c2.5,0.5,4.8,2.3,4.8,5.6c0,3.8-3.1,6.5-7.7,6.5c-3.9,0-6-1.9-7.3-3.8l2-1.5
		c1.2,1.8,2.5,3,5.3,3c3.1,0,4.9-1.5,4.9-4.2v-0.3c0-2.6-1.7-4.2-4.9-4.2h-2.7v-2.3L43.8,1315.1L43.8,1315.1z"/>
	<path d="M89,1328l-1.9-6.4h-7.8l-1.9,6.4h-2.8l6.8-22.3H85l6.8,22.3H89z M83.3,1308.5H83l-3.1,10.8h6.6L83.3,1308.5z"/>
	<path d="M107.4,1316.8v-7.1h-0.3l-4.7,11.5l-4.7-11.5h-0.3v7.1v11.2H95v-22.3h3.5l3.9,9.9h0.2l3.9-9.9h3.3v22.3h-2.5L107.4,1316.8
		L107.4,1316.8z"/>
</g>
<g>
	<path d="M47.3,1392v-4.4h-11v-2.4l9.7-15.6h3.9v15.7h3.3v2.2h-3.3v4.4h-2.6C47.3,1391.9,47.3,1392,47.3,1392z M38.7,1385.4h8.6
		v-13.7h-0.1L38.7,1385.4z"/>
	<path d="M89,1392l-1.9-6.4h-7.8l-1.9,6.4h-2.8l6.8-22.3H85l6.8,22.3H89z M83.3,1372.5H83l-3.1,10.8h6.6L83.3,1372.5z"/>
	<path d="M107.4,1380.8v-7.1h-0.3l-4.7,11.5l-4.7-11.5h-0.3v7.1v11.2H95v-22.3h3.5l3.9,9.9h0.2l3.9-9.9h3.3v22.3h-2.5L107.4,1380.8
		L107.4,1380.8z"/>
</g>
<g>
	<path d="M51.2,1436h-10l-0.6,8.5h0.2c1.1-1.5,2.3-2.4,4.7-2.4c3.9,0,6.8,2.6,6.8,6.9c0,4.4-2.8,7.4-7.6,7.4c-3.8,0-5.7-1.9-7.1-3.8
		l2-1.5c1.2,1.8,2.4,3,5.2,3c3.1,0,4.8-1.8,4.8-4.7v-0.3c0-2.9-1.7-4.7-4.8-4.7c-2.1,0-3.1,0.8-4.1,1.9l-2.3-0.3l0.8-12.3h12.2v2.3
		H51.2z"/>
	<path d="M89,1456l-1.9-6.4h-7.8l-1.9,6.4h-2.8l6.8-22.3H85l6.8,22.3H89z M83.3,1436.5H83l-3.1,10.8h6.6L83.3,1436.5z"/>
	<path d="M107.4,1444.8v-7.1h-0.3l-4.7,11.5l-4.7-11.5h-0.3v7.1v11.2H95v-22.3h3.5l3.9,9.9h0.2l3.9-9.9h3.3v22.3h-2.5L107.4,1444.8
		L107.4,1444.8z"/>
</g>
<g>
	<path d="M37.2,1511.8c0-6.6,4.4-11.8,8.1-14.1h3.5c-4.9,3.5-7.6,6.4-8.8,11.6l0.2,0.1c1.1-1.8,2.7-3.2,5.5-3.2
		c3.9,0,6.7,2.7,6.7,6.9c0,4.4-3,7.4-7.5,7.4C40.1,1520.4,37.2,1517.1,37.2,1511.8z M49.6,1513.3v-0.3c0-3-1.8-4.8-4.8-4.8
		S40,1510,40,1513v0.3c0,3,1.8,4.8,4.8,4.8C47.8,1518.1,49.6,1516.4,49.6,1513.3z"/>
	<path d="M89,1520l-1.9-6.4h-7.8l-1.9,6.4h-2.8l6.8-22.3H85l6.8,22.3H89z M83.3,1500.5H83l-3.1,10.8h6.6L83.3,1500.5z"/>
	<path d="M107.4,1508.8v-7.1h-0.3l-4.7,11.5l-4.7-11.5h-0.3v7.1v11.2H95v-22.3h3.5l3.9,9.9h0.2l3.9-9.9h3.3v22.3h-2.5L107.4,1508.8
		L107.4,1508.8z"/>
</g>
<g>
	<path d="M40.7,1584l8.7-20h-9.8v4.2h-2.4v-6.5h14.9v2.4l-8.6,20L40.7,1584L40.7,1584z"/>
	<path d="M89,1584l-1.9-6.4h-7.8l-1.9,6.4h-2.8l6.8-22.3H85l6.8,22.3H89z M83.3,1564.5H83l-3.1,10.8h6.6L83.3,1564.5z"/>
	<path d="M107.4,1572.8v-7.1h-0.3l-4.7,11.5l-4.7-11.5h-0.3v7.1v11.2H95v-22.3h3.5l3.9,9.9h0.2l3.9-9.9h3.3v22.3h-2.5L107.4,1572.8
		L107.4,1572.8z"/>
</g>
<g>
	<path d="M194.2,22.9h4.8l6.7,12.8h0.2l6.7-12.8h4.6V48h-3.9V28.8h-0.2l-2,4.1l-5.5,10l-5.5-10l-2-4.1h-0.2V48H194V22.9H194.2z"/>
	<path d="M221.9,38.6c0-6,3.4-9.8,8.6-9.8c5.2,0,8.6,3.8,8.6,9.8s-3.4,9.8-8.6,9.8C225.3,48.4,221.9,44.6,221.9,38.6z M235,40.2V37
		c0-3.3-1.8-5-4.5-5s-4.5,1.7-4.5,5v3.2c0,3.3,1.8,5,4.5,5S235,43.5,235,40.2z"/>
	<path d="M243.5,48V29.3h3.9v3.1h0.2c0.8-2,2.4-3.5,5.3-3.5c3.8,0,6.1,2.7,6.1,7.3V48h-4V36.6c0-2.9-1.1-4.4-3.5-4.4
		c-2.1,0-4.1,1-4.1,3.2V48H243.5z"/>
	<path d="M276.2,44.9H276c-0.8,2.2-2.8,3.5-5.3,3.5c-4.7,0-7.5-3.6-7.5-9.8s2.7-9.8,7.5-9.8c2.5,0,4.5,1.3,5.3,3.5h0.2v-11h3.9V48
		h-3.9V44.9z M276.2,41.8v-6.4c0-1.9-1.9-3.2-4.2-3.2c-2.7,0-4.5,1.9-4.5,4.8v3.2c0,2.9,1.8,4.8,4.5,4.8
		C274.3,45,276.2,43.8,276.2,41.8z"/>
	<path d="M299.4,48c-2.1,0-3.1-1.3-3.4-3.1h-0.2c-0.7,2.3-2.7,3.6-5.5,3.6c-3.9,0-6-2.2-6-5.6c0-3.7,2.8-5.6,8-5.6h3.4v-1.6
		c0-2.3-1.2-3.6-3.9-3.6c-2.2,0-3.5,1.1-4.5,2.6l-2.3-2.1c1.2-2.1,3.4-3.6,7.1-3.6c4.8,0,7.5,2.4,7.5,6.6V45h2v3H299.4z M295.7,42.5
		v-2.7h-3.3c-2.7,0-4.1,0.9-4.1,2.5v0.6c0,1.7,1.2,2.5,3.2,2.5C293.9,45.4,295.7,44.3,295.7,42.5z"/>
	<path d="M316.7,29.3h3.8l-7.9,22.4c-0.9,2.5-2,3.5-4.9,3.5h-2.3V52h3.2l1.1-3.2l-6.8-19.5h3.9l3.7,11l1.1,4.1h0.2l1.2-4.1
		L316.7,29.3z"/>
</g>
<g>
	<path d="M451.8,26.5h-7.5v-3.6h19v3.6h-7.5V48h-4.1V26.5H451.8z"/>
	<path d="M476.7,44.9h-0.1c-0.7,1.8-2.2,3.5-5.3,3.5c-3.9,0-6.1-2.6-6.1-7.2V29.3h3.9v11.4c0,2.8,1.2,4.4,3.6,4.4c2,0,4-1,4-3.2
		V29.3h3.9V48h-3.9V44.9z"/>
	<path d="M484.9,38.6c0-6,3.3-9.8,8.6-9.8c5.5,0,8.3,4.1,8.3,9.3v1.5H489v0.6c0,2.9,1.8,4.9,4.9,4.9c2.3,0,3.9-1.1,4.9-2.8l2.3,2.3
		c-1.4,2.3-4.1,3.8-7.6,3.8C488.2,48.4,484.9,44.6,484.9,38.6z M489,36.8v0.3h8.7v-0.4c0-2.9-1.6-4.8-4.2-4.8
		C490.8,31.9,489,33.9,489,36.8z"/>
	<path d="M504.6,44.9l2.5-2.3c1.4,1.7,3.1,2.7,5.3,2.7c2.3,0,3.4-0.9,3.4-2.5c0-1.2-0.7-2.1-2.7-2.3l-1.7-0.2
		c-3.8-0.5-6.2-2.1-6.2-5.6c0-3.6,2.8-5.8,6.9-5.8c3.4,0,5.3,1.1,7,3l-2.4,2.3c-1-1.2-2.6-2.1-4.6-2.1c-2.2,0-3.2,0.9-3.2,2.3
		c0,1.4,0.9,2.1,2.9,2.4l1.7,0.2c4.1,0.6,5.9,2.4,5.9,5.4c0,3.6-2.9,6-7.4,6C508.6,48.4,506.3,47.1,504.6,44.9z"/>
	<path d="M535.8,44.9h-0.2c-0.8,2.2-2.8,3.5-5.3,3.5c-4.7,0-7.5-3.6-7.5-9.8s2.7-9.8,7.5-9.8c2.5,0,4.5,1.3,5.3,3.5h0.2v-11h3.9V48
		h-3.9V44.9z M535.8,41.8v-6.4c0-1.9-1.9-3.2-4.2-3.2c-2.7,0-4.5,1.9-4.5,4.8v3.2c0,2.9,1.8,4.8,4.5,4.8
		C533.9,45,535.8,43.8,535.8,41.8z"/>
	<path d="M559,48c-2.1,0-3.1-1.3-3.4-3.1h-0.2c-0.7,2.3-2.7,3.6-5.5,3.6c-3.9,0-6-2.2-6-5.6c0-3.7,2.8-5.6,8-5.6h3.4v-1.6
		c0-2.3-1.2-3.6-3.9-3.6c-2.2,0-3.5,1.1-4.5,2.6l-2.3-2.1c1.2-2.1,3.4-3.6,7.1-3.6c4.8,0,7.5,2.4,7.5,6.6V45h2v3H559z M555.3,42.5
		v-2.7H552c-2.7,0-4.1,0.9-4.1,2.5v0.6c0,1.7,1.2,2.5,3.2,2.5C553.5,45.4,555.3,44.3,555.3,42.5z"/>
	<path d="M576.3,29.3h3.8l-7.9,22.4c-0.9,2.5-2,3.5-4.9,3.5H565V52h3.2l1.1-3.2l-6.8-19.5h3.9l3.7,11l1.1,4.1h0.2l1.2-4.1
		L576.3,29.3z"/>
</g>
<g>
	<path d="M678.8,48l-5.9-25.1h4.1l2.6,12.1l1.8,8.4h0.1l2-8.4l3-12.1h4.5l3,12.1l2,8.3h0.1l1.8-8.3l2.6-12.1h4L698.3,48h-4.6
		l-3.2-13l-1.9-7.6h-0.1l-1.9,7.6l-3.3,13H678.8z"/>
	<path d="M706.2,38.6c0-6,3.3-9.8,8.6-9.8c5.5,0,8.3,4.1,8.3,9.3v1.5h-12.9v0.6c0,2.9,1.8,4.9,4.9,4.9c2.3,0,3.9-1.1,4.9-2.8
		l2.3,2.3c-1.4,2.3-4.1,3.8-7.6,3.8C709.5,48.4,706.2,44.6,706.2,38.6z M710.3,36.8v0.3h8.7v-0.4c0-2.9-1.6-4.8-4.2-4.8
		C712.1,31.9,710.3,33.9,710.3,36.8z"/>
	<path d="M739.3,44.9h-0.2c-0.8,2.2-2.8,3.5-5.3,3.5c-4.7,0-7.5-3.6-7.5-9.8s2.7-9.8,7.5-9.8c2.5,0,4.5,1.3,5.3,3.5h0.2v-11h3.9V48
		h-3.9V44.9z M739.3,41.8v-6.4c0-1.9-1.9-3.2-4.2-3.2c-2.7,0-4.5,1.9-4.5,4.8v3.2c0,2.9,1.8,4.8,4.5,4.8
		C737.4,45,739.3,43.8,739.3,41.8z"/>
	<path d="M748.8,48V29.3h3.9v3.1h0.2c0.8-2,2.4-3.5,5.3-3.5c3.8,0,6.1,2.7,6.1,7.3V48h-3.9V36.6c0-2.9-1.1-4.4-3.5-4.4
		c-2.1,0-4.1,1-4.1,3.2V48H748.8z"/>
	<path d="M768.4,38.6c0-6,3.3-9.8,8.6-9.8c5.5,0,8.3,4.1,8.3,9.3v1.5h-12.9v0.6c0,2.9,1.8,4.9,4.9,4.9c2.3,0,3.9-1.1,4.9-2.8
		l2.3,2.3c-1.4,2.3-4.1,3.8-7.6,3.8C771.7,48.4,768.4,44.6,768.4,38.6z M772.5,36.8v0.3h8.7v-0.4c0-2.9-1.6-4.8-4.2-4.8
		C774.3,31.9,772.5,33.9,772.5,36.8z"/>
	<path d="M788,44.9l2.5-2.3c1.4,1.7,3.1,2.7,5.3,2.7c2.3,0,3.4-0.9,3.4-2.5c0-1.2-0.7-2.1-2.7-2.3l-1.7-0.2
		c-3.8-0.5-6.2-2.1-6.2-5.6c0-3.6,2.8-5.8,6.9-5.8c3.4,0,5.3,1.1,7,3l-2.4,2.3c-1-1.2-2.6-2.1-4.6-2.1c-2.2,0-3.2,0.9-3.2,2.3
		c0,1.4,0.9,2.1,2.9,2.4l1.7,0.2c4.1,0.6,5.9,2.4,5.9,5.4c0,3.6-2.9,6-7.4,6C792.1,48.4,789.8,47.1,788,44.9z"/>
	<path d="M819.2,44.9H819c-0.8,2.2-2.8,3.5-5.3,3.5c-4.7,0-7.5-3.6-7.5-9.8s2.7-9.8,7.5-9.8c2.5,0,4.5,1.3,5.3,3.5h0.2v-11h3.9V48
		h-3.9V44.9z M819.2,41.8v-6.4c0-1.9-1.9-3.2-4.2-3.2c-2.7,0-4.5,1.9-4.5,4.8v3.2c0,2.9,1.8,4.8,4.5,4.8
		C817.4,45,819.2,43.8,819.2,41.8z"/>
	<path d="M842.5,48c-2.1,0-3.1-1.3-3.4-3.1h-0.2c-0.7,2.3-2.7,3.6-5.5,3.6c-3.9,0-6-2.2-6-5.6c0-3.7,2.8-5.6,8-5.6h3.4v-1.6
		c0-2.3-1.2-3.6-3.9-3.6c-2.2,0-3.5,1.1-4.5,2.6l-2.3-2.1c1.2-2.1,3.4-3.6,7.1-3.6c4.8,0,7.5,2.4,7.5,6.6V45h2v3H842.5z M838.8,42.5
		v-2.7h-3.3c-2.7,0-4.1,0.9-4.1,2.5v0.6c0,1.7,1.2,2.5,3.2,2.5C837,45.4,838.8,44.3,838.8,42.5z"/>
	<path d="M859.8,29.3h3.8l-7.9,22.4c-0.9,2.5-2,3.5-4.9,3.5h-2.3V52h3.2l1.1-3.2L846,29.3h3.9l3.7,11l1.1,4.1h0.2l1.2-4.1
		L859.8,29.3z"/>
</g>
<g>
	<path d="M955.6,26.5h-7.5v-3.6h19v3.6h-7.5V48h-4.1L955.6,26.5L955.6,26.5z"/>
	<path d="M970.9,21.4h3.9v11h0.2c0.8-2,2.4-3.5,5.3-3.5c3.8,0,6.1,2.7,6.1,7.3V48h-3.9V36.6c0-2.9-1.1-4.4-3.5-4.4
		c-2.1,0-4.1,1-4.1,3.2V48H971L970.9,21.4L970.9,21.4z"/>
	<path d="M1003.1,44.9L1003.1,44.9c-0.8,1.8-2.3,3.5-5.4,3.5c-3.9,0-6.1-2.6-6.1-7.2V29.3h3.9v11.4c0,2.8,1.2,4.4,3.6,4.4
		c2,0,4-1,4-3.2V29.3h3.9V48h-3.9V44.9L1003.1,44.9z"/>
	<path d="M1012.6,48V29.3h3.9v3.6h0.2c0.5-1.9,2.2-3.6,5.1-3.6h1v3.8h-1.5c-3.1,0-4.8,1-4.8,3v12L1012.6,48L1012.6,48z"/>
	<path d="M1024.8,44.9l2.5-2.3c1.4,1.7,3.1,2.7,5.3,2.7c2.3,0,3.4-0.9,3.4-2.5c0-1.2-0.7-2.1-2.7-2.3l-1.7-0.2
		c-3.8-0.5-6.2-2.1-6.2-5.6c0-3.6,2.8-5.8,6.9-5.8c3.4,0,5.3,1.1,7,3l-2.4,2.3c-1-1.2-2.6-2.1-4.6-2.1c-2.2,0-3.2,0.9-3.2,2.3
		c0,1.4,0.9,2.1,2.9,2.4l1.7,0.2c4.1,0.6,5.9,2.4,5.9,5.4c0,3.6-2.9,6-7.4,6C1028.8,48.4,1026.5,47.1,1024.8,44.9z"/>
	<path d="M1056,44.9h-0.2c-0.8,2.2-2.8,3.5-5.3,3.5c-4.7,0-7.5-3.6-7.5-9.8s2.7-9.8,7.5-9.8c2.5,0,4.5,1.3,5.3,3.5h0.2v-11h3.9V48
		h-3.9V44.9z M1056,41.8v-6.4c0-1.9-1.9-3.2-4.2-3.2c-2.7,0-4.5,1.9-4.5,4.8v3.2c0,2.9,1.8,4.8,4.5,4.8
		C1054.1,45,1056,43.8,1056,41.8z"/>
	<path d="M1079.2,48c-2.1,0-3.1-1.3-3.4-3.1h-0.2c-0.7,2.3-2.7,3.6-5.5,3.6c-3.9,0-6-2.2-6-5.6c0-3.7,2.8-5.6,8-5.6h3.4v-1.6
		c0-2.3-1.2-3.6-3.9-3.6c-2.2,0-3.5,1.1-4.5,2.6l-2.3-2.1c1.2-2.1,3.4-3.6,7.1-3.6c4.8,0,7.5,2.4,7.5,6.6V45h2v3H1079.2z
		 M1075.5,42.5v-2.7h-3.3c-2.7,0-4.1,0.9-4.1,2.5v0.6c0,1.7,1.2,2.5,3.2,2.5C1073.7,45.4,1075.5,44.3,1075.5,42.5z"/>
	<path d="M1096.5,29.3h3.8l-7.9,22.4c-0.9,2.5-2,3.5-4.9,3.5h-2.3V52h3.2l1.1-3.2l-6.8-19.5h3.9l3.7,11l1.1,4.1h0.2l1.2-4.1
		L1096.5,29.3z"/>
</g>
<g>
	<path d="M1231.9,48V22.9h15.7v3.6H1236v7h10.3v3.6H1236V48H1231.9z"/>
	<path d="M1251.3,48V29.3h3.9v3.6h0.2c0.5-1.9,2.2-3.6,5.1-3.6h1v3.8h-1.5c-3.1,0-4.8,1-4.8,3v12L1251.3,48L1251.3,48z"/>
	<path d="M1264.7,23.9v-0.6c0-1.2,0.7-2.1,2.3-2.1c1.6,0,2.3,0.9,2.3,2.1v0.6c0,1.2-0.7,2.1-2.3,2.1
		C1265.5,25.9,1264.7,25.1,1264.7,23.9z M1265.1,29.3h3.9V48h-3.9V29.3z"/>
	<path d="M1286.4,44.9h-0.2c-0.8,2.2-2.8,3.5-5.3,3.5c-4.7,0-7.5-3.6-7.5-9.8s2.7-9.8,7.5-9.8c2.5,0,4.5,1.3,5.3,3.5h0.2v-11h3.9V48
		h-3.9V44.9z M1286.4,41.8v-6.4c0-1.9-1.9-3.2-4.2-3.2c-2.7,0-4.5,1.9-4.5,4.8v3.2c0,2.9,1.8,4.8,4.5,4.8
		C1284.5,45,1286.4,43.8,1286.4,41.8z"/>
	<path d="M1309.7,48c-2.1,0-3.1-1.3-3.4-3.1h-0.2c-0.7,2.3-2.7,3.6-5.5,3.6c-3.9,0-6-2.2-6-5.6c0-3.7,2.8-5.6,8-5.6h3.4v-1.6
		c0-2.3-1.2-3.6-3.9-3.6c-2.2,0-3.5,1.1-4.5,2.6l-2.3-2.1c1.2-2.1,3.4-3.6,7.1-3.6c4.8,0,7.5,2.4,7.5,6.6V45h2v3H1309.7z M1306,42.5
		v-2.7h-3.3c-2.7,0-4.1,0.9-4.1,2.5v0.6c0,1.7,1.2,2.5,3.2,2.5C1304.2,45.4,1306,44.3,1306,42.5z"/>
	<path d="M1326.9,29.3h3.8l-7.9,22.4c-0.9,2.5-2,3.5-4.9,3.5h-2.3V52h3.2l1.1-3.2l-6.8-19.5h3.9l3.7,11l1.1,4.1h0.2l1.2-4.1
		L1326.9,29.3z"/>
</g>
<g>
	<line class="st4" x1="1408" y1="64.1" x2="0" y2="64.1"/>
	<rect y="63.1" class="st5" width="1408" height="2"/>
</g>
<g>
	<path class="st6" d="M368,576H144c-8.8,0-16-7.2-16-16V400c0-8.8,7.2-16,16-16h224c8.8,0,16,7.2,16,16v160
		C384,568.8,376.8,576,368,576z"/>
	<path d="M368,577H144c-9.4,0-17-7.6-17-17V400c0-9.4,7.6-17,17-17h224c9.4,0,17,7.6,17,17v160C385,569.4,377.4,577,368,577z
		 M144,385c-8.3,0-15,6.7-15,15v160c0,8.3,6.7,15,15,15h224c8.3,0,15-6.7,15-15V400c0-8.3-6.7-15-15-15H144z"/>
</g>
<g>
	<path class="st7" d="M624,513H400c-8.8,0-16-7.2-16-16V337c0-8.8,7.2-16,16-16h224c8.8,0,16,7.2,16,16v160
		C640,505.8,632.8,513,624,513z"/>
	<path d="M624,514H400c-9.4,0-17-7.6-17-17V337c0-9.4,7.6-17,17-17h224c9.4,0,17,7.6,17,17v160C641,506.4,633.4,514,624,514z
		 M400,322c-8.3,0-15,6.7-15,15v160c0,8.3,6.7,15,15,15h224c8.3,0,15-6.7,15-15V337c0-8.3-6.7-15-15-15H400z"/>
</g>
<g>
	<path class="st8" d="M880,896.2H656c-8.8,0-16-5.7-16-12.8V653.6c0-7,7.2-12.8,16-12.8h224c8.8,0,16,5.7,16,12.8v229.9
		C896,890.5,888.8,896.2,880,896.2z"/>
	<path d="M880,897H656c-9.4,0-17-6.1-17-13.6V653.6c0-7.5,7.6-13.6,17-13.6h224c9.4,0,17,6.1,17,13.6v229.9
		C897,890.9,889.4,897,880,897z M656,641.6c-8.3,0-15,5.3-15,12v229.9c0,6.6,6.7,12,15,12h224c8.3,0,15-5.3,15-12V653.6
		c0-6.6-6.7-12-15-12H656z"/>
</g>
<g>
	<path class="st9" d="M1136,896H912c-8.8,0-16-7.2-16-16V720c0-8.8,7.2-16,16-16h224c8.8,0,16,7.2,16,16v160
		C1152,888.8,1144.8,896,1136,896z"/>
	<path d="M1136,897H912c-9.4,0-17-7.6-17-17V720c0-9.4,7.6-17,17-17h224c9.4,0,17,7.6,17,17v160C1153,889.4,1145.4,897,1136,897z
		 M912,705c-8.3,0-15,6.7-15,15v160c0,8.3,6.7,15,15,15h224c8.3,0,15-6.7,15-15V720c0-8.3-6.7-15-15-15H912z"/>
</g>
<g>
	<path class="st10" d="M1392,1536h-224c-8.8,0-16-7.2-16-16V784c0-8.8,7.2-16,16-16h224c8.8,0,16,7.2,16,16v736
		C1408,1528.8,1400.8,1536,1392,1536z"/>
	<path d="M1392,1537h-224c-9.4,0-17-7.6-17-17V784c0-9.4,7.6-17,17-17h224c9.4,0,17,7.6,17,17v736
		C1409,1529.4,1401.4,1537,1392,1537z M1168,769c-8.3,0-15,6.7-15,15v736c0,8.3,6.7,15,15,15h224c8.3,0,15-6.7,15-15V784
		c0-8.3-6.7-15-15-15H1168z"/>
</g>
<g>
	<path class="st11" d="M1136,512H912c-8.8,0-16-7.2-16-16V336c0-8.8,7.2-16,16-16h224c8.8,0,16,7.2,16,16v160
		C1152,504.8,1144.8,512,1136,512z"/>
	<path d="M1136,513H912c-9.4,0-17-7.6-17-17V336c0-9.4,7.6-17,17-17h224c9.4,0,17,7.6,17,17v160C1153,505.4,1145.4,513,1136,513z
		 M912,321c-8.3,0-15,6.7-15,15v160c0,8.3,6.7,15,15,15h224c8.3,0,15-6.7,15-15V336c0-8.3-6.7-15-15-15H912z"/>
</g>
<g>
	<path class="st12" d="M1136,288H912c-8.8,0-16-7.2-16-16v-96c0-8.8,7.2-16,16-16h224c8.8,0,16,7.2,16,16v96
		C1152,280.8,1144.8,288,1136,288z"/>
	<path d="M1136,289H912c-9.4,0-17-7.6-17-17v-96c0-9.4,7.6-17,17-17h224c9.4,0,17,7.6,17,17v96C1153,281.4,1145.4,289,1136,289z
		 M912,161c-8.3,0-15,6.7-15,15v96c0,8.3,6.7,15,15,15h224c8.3,0,15-6.7,15-15v-96c0-8.3-6.7-15-15-15H912z"/>
</g>
<g>
	<path d="M146.1,424v-2.3h4.7v-12.5h-0.2l-3.9,4.2l-1.7-1.5l4.3-4.6h4.1v14.5h4.1v2.3h-11.4L146.1,424L146.1,424z"/>
	<path d="M160.1,422.7v-0.4c0-0.9,0.6-1.6,1.8-1.6s1.8,0.7,1.8,1.6v0.4c0,0.9-0.6,1.6-1.8,1.6C160.7,424.3,160.1,423.6,160.1,422.7z
		"/>
	<path d="M145.2,452.8v-2.9h2.2V439h-2.2v-3h8v2.9H151v10.9h2.2v2.9h-8V452.8z"/>
	<path d="M155.1,446.5c0-4,2.1-6.6,5.9-6.6c2.5,0,4.3,1.2,5,3.3l-2.9,1.2c-0.2-1-0.9-1.7-2.2-1.7c-1.4,0-2.2,1-2.2,2.6v2.4
		c0,1.6,0.7,2.6,2.2,2.6c1.4,0,2-0.9,2.4-1.9l2.8,1.2c-0.8,2.4-2.6,3.5-5.1,3.5C157.2,453.1,155.1,450.5,155.1,446.5z"/>
	<path d="M167.4,446.5c0-4,2.1-6.6,5.9-6.6c4.2,0,5.9,3,5.9,6.4v1.1h-8.1v0.2c0,1.7,0.9,2.7,2.8,2.7c1.5,0,2.3-0.7,3.1-1.5l1.8,2.2
		c-1.1,1.3-3,2.1-5.3,2.1C169.6,453.1,167.4,450.5,167.4,446.5z M171.1,445.1v0.2h4.4v-0.2c0-1.5-0.7-2.6-2.1-2.6
		C172,442.5,171.1,443.6,171.1,445.1z"/>
	<path d="M181.5,447.2v-3.5h7.1v3.5H181.5z"/>
	<path d="M191.5,444.5c0-5.7,2.9-8.8,7.4-8.8c3.1,0,5,1.2,6.3,3.9l-3.1,1.6c-0.4-1.4-1.3-2.3-3.1-2.3c-2.1,0-3.6,1.4-3.6,4.1v2.7
		c0,2.6,1.4,4.1,3.6,4.1c1.8,0,2.8-1.1,3.3-2.5l3,1.7c-1.2,2.5-3.2,4-6.3,4C194.4,453.1,191.5,450.2,191.5,444.5z"/>
	<path d="M207.6,452.8v-12.6h3.6v2.7h0.1c0.3-1.4,1.2-2.7,3.2-2.7h0.6v3.3h-0.9c-2.1,0-3.1,0.5-3.1,1.9v7.4L207.6,452.8L207.6,452.8
		z"/>
	<path d="M216.4,446.5c0-4,2.1-6.6,5.9-6.6c4.2,0,5.9,3,5.9,6.4v1.1H220v0.2c0,1.7,0.9,2.7,2.8,2.7c1.5,0,2.3-0.7,3.1-1.5l1.8,2.2
		c-1.1,1.3-3,2.1-5.3,2.1C218.5,453.1,216.4,450.5,216.4,446.5z M220,445.1v0.2h4.4v-0.2c0-1.5-0.7-2.6-2.1-2.6
		C220.9,442.5,220,443.6,220,445.1z"/>
	<path d="M240,452.8c-1.3,0-2.2-0.9-2.4-2.2h-0.1c-0.4,1.6-1.8,2.5-3.7,2.5c-2.5,0-3.9-1.5-3.9-3.7c0-2.7,2.1-3.9,5.4-3.9h2v-0.8
		c0-1.2-0.6-2-2.1-2c-1.4,0-2.2,0.7-2.7,1.5l-2.1-1.9c1-1.5,2.4-2.4,5.1-2.4c3.6,0,5.4,1.6,5.4,4.6v5.5h1.2v2.8H240z M237.2,449
		v-1.5h-1.7c-1.4,0-2.1,0.5-2.1,1.4v0.4c0,0.9,0.6,1.3,1.7,1.3C236.2,450.6,237.2,450.1,237.2,449z"/>
	<path d="M244.3,452.8v-12.6h3.6v2.1h0.1c0.5-1.3,1.5-2.4,3.4-2.4c1.7,0,3,0.9,3.5,2.5h0.1c0.5-1.4,1.9-2.5,3.8-2.5
		c2.4,0,3.8,1.8,3.8,5v7.9H259v-7.6c0-1.6-0.6-2.4-1.7-2.4s-2.1,0.6-2.1,1.8v8.2h-3.6v-7.6c0-1.6-0.6-2.4-1.7-2.4
		c-1,0-2.1,0.6-2.1,1.8v8.2H244.3z"/>
	<path d="M270.7,450.4l2.4-2.4c1.1,1.3,2.6,1.9,4.2,1.9c1.8,0,2.6-0.8,2.6-2c0-0.9-0.4-1.6-1.9-1.8l-1.7-0.2c-3.5-0.5-5.1-2.2-5.1-5
		c0-3,2.4-5.1,6.3-5.1c2.5,0,4.4,0.8,5.8,2.4l-2.4,2.4c-0.8-0.9-1.9-1.6-3.6-1.6c-1.6,0-2.4,0.6-2.4,1.6c0,1.2,0.6,1.6,2,1.8
		l1.7,0.3c3.4,0.6,5.1,2.1,5.1,5c0,3.2-2.4,5.4-6.5,5.4C274.1,453.1,272.1,452,270.7,450.4z"/>
	<path d="M285.6,446.5c0-4.1,2.2-6.6,5.9-6.6s5.9,2.5,5.9,6.6s-2.2,6.6-5.9,6.6S285.6,450.5,285.6,446.5z M293.7,447.8v-2.6
		c0-1.6-0.8-2.5-2.2-2.5s-2.2,0.9-2.2,2.5v2.6c0,1.6,0.8,2.5,2.2,2.5S293.7,449.4,293.7,447.8z"/>
	<path d="M299.1,446.5c0-4,2.1-6.6,5.9-6.6c2.5,0,4.3,1.2,5,3.3l-2.9,1.2c-0.2-1-0.9-1.7-2.2-1.7c-1.4,0-2.2,1-2.2,2.6v2.4
		c0,1.6,0.7,2.6,2.2,2.6c1.4,0,2-0.9,2.4-1.9l2.8,1.2c-0.8,2.4-2.6,3.5-5.1,3.5C301.2,453.1,299.1,450.5,299.1,446.5z"/>
	<path d="M312,437.1v-0.5c0-1,0.6-1.8,2.1-1.8c1.4,0,2.1,0.7,2.1,1.8v0.5c0,1-0.6,1.8-2.1,1.8C312.7,438.9,312,438.1,312,437.1z
		 M312.3,440.2h3.6v12.6h-3.6V440.2z"/>
	<path d="M328.5,452.8c-1.3,0-2.2-0.9-2.4-2.2H326c-0.4,1.6-1.8,2.5-3.7,2.5c-2.5,0-3.9-1.5-3.9-3.7c0-2.7,2.1-3.9,5.4-3.9h2v-0.8
		c0-1.2-0.6-2-2.1-2c-1.4,0-2.2,0.7-2.7,1.5l-2.1-1.9c1-1.5,2.4-2.4,5.1-2.4c3.6,0,5.4,1.6,5.4,4.6v5.5h1.2v2.8H328.5z M325.8,449
		v-1.5H324c-1.4,0-2.1,0.5-2.1,1.4v0.4c0,0.9,0.6,1.3,1.7,1.3C324.8,450.6,325.8,450.1,325.8,449z"/>
	<path d="M336.4,452.8c-2.4,0-3.5-1.2-3.5-3.5V435h3.6v15h1.6v2.8H336.4z"/>
	<path d="M145.8,484.8v-2h4.1v-11h-0.2l-3.4,3.6l-1.4-1.3l3.7-4.1h3.6v12.7h3.6v2L145.8,484.8L145.8,484.8z"/>
	<path d="M158.3,475.4v-0.3c0-0.8,0.5-1.4,1.5-1.4s1.5,0.6,1.5,1.4v0.3c0,0.8-0.5,1.4-1.5,1.4S158.3,476.2,158.3,475.4z
		 M158.3,483.6v-0.3c0-0.8,0.5-1.4,1.5-1.4s1.5,0.6,1.5,1.4v0.3c0,0.8-0.5,1.4-1.5,1.4S158.3,484.4,158.3,483.6z"/>
	<path d="M164.1,477.5c0-4.8,1.7-7.6,5.3-7.6s5.3,2.8,5.3,7.6s-1.7,7.6-5.3,7.6S164.1,482.3,164.1,477.5z M172.2,478.8v-2.6
		c0-2.6-0.8-4.3-2.8-4.3s-2.8,1.7-2.8,4.3v2.6c0,2.6,0.8,4.3,2.8,4.3S172.2,481.3,172.2,478.8z"/>
	<path d="M176.7,477.5c0-4.8,1.7-7.6,5.3-7.6s5.3,2.8,5.3,7.6s-1.7,7.6-5.3,7.6S176.7,482.3,176.7,477.5z M184.8,478.8v-2.6
		c0-2.6-0.8-4.3-2.8-4.3s-2.8,1.7-2.8,4.3v2.6c0,2.6,0.8,4.3,2.8,4.3S184.8,481.3,184.8,478.8z"/>
	<path d="M190.1,484.8v-14.7h6.3c2.7,0,4.3,1.7,4.3,4.4s-1.6,4.4-4.3,4.4h-3.9v5.8h-2.4L190.1,484.8L190.1,484.8z M192.5,476.9h3.8
		c1.2,0,1.9-0.7,1.9-1.8v-1c0-1.2-0.7-1.8-1.9-1.8h-3.8V476.9z"/>
	<path d="M203.3,470.1h2.8l3.9,7.5h0.1l3.9-7.5h2.7v14.7h-2.3v-11.2h-0.1l-1.2,2.4l-3.2,5.9l-3.2-5.9l-1.2-2.4h-0.1v11.2h-2.3v-14.7
		H203.3z"/>
	<path d="M224.8,479.6v-2.3h5.8v2.3H224.8z"/>
	<path d="M244.4,484.8v-2.9h-6.8v-2l5.9-9.8h3.1v9.9h2v1.9h-2v2.9H244.4z M239.7,480.1h4.8v-7.8h-0.1L239.7,480.1z"/>
	<path d="M251.2,475.4v-0.3c0-0.8,0.5-1.4,1.5-1.4s1.5,0.6,1.5,1.4v0.3c0,0.8-0.5,1.4-1.5,1.4S251.2,476.2,251.2,475.4z
		 M251.2,483.6v-0.3c0-0.8,0.5-1.4,1.5-1.4s1.5,0.6,1.5,1.4v0.3c0,0.8-0.5,1.4-1.5,1.4S251.2,484.4,251.2,483.6z"/>
	<path d="M257,477.5c0-4.8,1.7-7.6,5.3-7.6s5.3,2.8,5.3,7.6s-1.7,7.6-5.3,7.6S257,482.3,257,477.5z M265.1,478.8v-2.6
		c0-2.6-0.8-4.3-2.8-4.3s-2.8,1.7-2.8,4.3v2.6c0,2.6,0.8,4.3,2.8,4.3S265.1,481.3,265.1,478.8z"/>
	<path d="M269.6,477.5c0-4.8,1.7-7.6,5.3-7.6s5.3,2.8,5.3,7.6s-1.7,7.6-5.3,7.6S269.6,482.3,269.6,477.5z M277.7,478.8v-2.6
		c0-2.6-0.8-4.3-2.8-4.3s-2.8,1.7-2.8,4.3v2.6c0,2.6,0.8,4.3,2.8,4.3S277.7,481.3,277.7,478.8z"/>
	<path d="M283,484.8v-14.7h6.3c2.7,0,4.3,1.7,4.3,4.4s-1.6,4.4-4.3,4.4h-3.9v5.8H283V484.8z M285.4,476.9h3.8c1.2,0,1.9-0.7,1.9-1.8
		v-1c0-1.2-0.7-1.8-1.9-1.8h-3.8V476.9z"/>
	<path d="M296.2,470.1h2.8l3.9,7.5h0.1l3.9-7.5h2.7v14.7h-2.3v-11.2h-0.1L306,476l-3.2,5.9l-3.2-5.9l-1.2-2.4h-0.1v11.2H296v-14.7
		H296.2z"/>
	<path d="M153.3,516.8l-1-3.2h-4.5l-1,3.2h-2.4l4.2-12.6h3l4.2,12.6H153.3z M150,506.4L150,506.4l-1.7,5.2h3.3L150,506.4z"/>
	<path d="M156.8,514.9l1.6-1.5c0.9,1,1.9,1.5,3.2,1.5c1.5,0,2.2-0.7,2.2-1.8c0-0.8-0.4-1.4-1.7-1.6l-1.2-0.2
		c-2.5-0.4-3.8-1.6-3.8-3.7c0-2.3,1.7-3.7,4.6-3.7c1.9,0,3.3,0.6,4.3,1.9l-1.6,1.5c-0.6-0.8-1.5-1.3-2.8-1.3c-1.4,0-2.1,0.5-2.1,1.5
		s0.5,1.4,1.7,1.6l1.2,0.2c2.5,0.4,3.7,1.6,3.7,3.7c0,2.4-1.7,4-4.7,4C159.3,517,157.9,516.2,156.8,514.9z"/>
	<path d="M168.6,504.2h5.8c2.1,0,3.3,1.3,3.3,3.2c0,1.9-1.1,2.6-2.3,2.7v0.1c1.1,0,2.7,0.8,2.7,2.9c0,2-1.4,3.6-3.2,3.6h-6.4
		L168.6,504.2L168.6,504.2z M170.9,509.5h2.9c0.9,0,1.4-0.5,1.4-1.3v-0.6c0-0.8-0.5-1.3-1.4-1.3h-2.9V509.5z M170.9,514.8h3.3
		c0.9,0,1.4-0.5,1.4-1.4v-0.6c0-0.9-0.5-1.4-1.4-1.4h-3.3V514.8z"/>
	<path d="M192.5,516.8l-1-3.2H187l-1,3.2h-2.4l4.2-12.6h3l4.2,12.6H192.5z M189.3,506.4L189.3,506.4l-1.7,5.2h3.3L189.3,506.4z"/>
	<path d="M196.9,514.4v-5.2h-1.4v-1.8h0.7c0.7,0,0.9-0.3,0.9-1v-1.6h2.1v2.6h1.9v1.8h-1.9v5.7h1.8v1.8h-1.7
		C197.8,516.8,196.9,515.9,196.9,514.4z"/>
	<path d="M203.2,516.8v-9.4h2.3v1.9h0.1c0.2-1,1-1.9,2.5-1.9h0.5v2.2h-0.7c-1.5,0-2.4,0.4-2.4,1.5v5.8h-2.3L203.2,516.8L203.2,516.8
		z"/>
	<path d="M210,504.9v-0.4c0-0.7,0.4-1.2,1.4-1.2c0.9,0,1.4,0.5,1.4,1.2v0.4c0,0.7-0.4,1.2-1.4,1.2C210.4,506,210,505.5,210,504.9z
		 M210.2,507.4h2.3v9.4h-2.3V507.4z"/>
	<path d="M220.8,515.2L220.8,515.2c-0.4,0.9-1.2,1.8-2.7,1.8c-1.9,0-3-1.3-3-3.7v-5.9h2.3v5.7c0,1.3,0.5,2,1.6,2
		c0.9,0,1.8-0.5,1.8-1.5v-6.2h2.3v9.4h-2.3L220.8,515.2L220.8,515.2z"/>
	<path d="M225.8,516.8v-9.4h2.3v1.6h0.1c0.4-1,1.1-1.8,2.5-1.8c1.3,0,2.3,0.6,2.7,1.9l0,0c0.3-1,1.4-1.9,2.9-1.9
		c1.8,0,2.9,1.3,2.9,3.7v5.9h-2.3v-5.7c0-1.4-0.5-2-1.5-2c-0.9,0-1.7,0.5-1.7,1.5v6.2h-2.3v-5.7c0-1.4-0.5-2-1.5-2
		c-0.9,0-1.7,0.5-1.7,1.5v6.2L225.8,516.8L225.8,516.8z"/>
	<path d="M244.4,515.5v0.3c0,1.2-0.7,2.6-1.8,3.5h-1.5c0.8-0.8,1.3-1.4,1.5-2.3c-0.6-0.1-0.9-0.6-0.9-1.2v-0.3
		c0-0.7,0.4-1.2,1.3-1.2S244.4,514.8,244.4,515.5z"/>
	<path d="M153.3,537.8l-1-3.2h-4.5l-1,3.2h-2.4l4.2-12.6h3l4.2,12.6H153.3z M150,527.4L150,527.4l-1.7,5.2h3.3L150,527.4z"/>
	<path d="M156.8,535.9l1.6-1.5c0.9,1,1.9,1.5,3.2,1.5c1.5,0,2.2-0.7,2.2-1.8c0-0.8-0.4-1.4-1.7-1.6l-1.2-0.2
		c-2.5-0.4-3.8-1.6-3.8-3.7c0-2.3,1.7-3.7,4.6-3.7c1.9,0,3.3,0.6,4.3,1.9l-1.6,1.5c-0.6-0.8-1.5-1.3-2.8-1.3c-1.4,0-2.1,0.5-2.1,1.5
		s0.5,1.4,1.7,1.6l1.2,0.2c2.5,0.4,3.7,1.6,3.7,3.7c0,2.4-1.7,4-4.7,4C159.3,538,157.9,537.2,156.8,535.9z"/>
	<path d="M168.6,525.2h5.8c2.1,0,3.3,1.3,3.3,3.2s-1.1,2.6-2.3,2.7v0.1c1.1,0,2.7,0.8,2.7,2.9c0,2-1.4,3.6-3.2,3.6h-6.4L168.6,525.2
		L168.6,525.2z M170.9,530.5h2.9c0.9,0,1.4-0.5,1.4-1.3v-0.6c0-0.8-0.5-1.3-1.4-1.3h-2.9V530.5z M170.9,535.8h3.3
		c0.9,0,1.4-0.5,1.4-1.4v-0.6c0-0.9-0.5-1.4-1.4-1.4h-3.3V535.8z"/>
	<path d="M188.7,537.8h-3.2c3-2.1,4.7-3.8,5.2-6.4h-0.1c-0.5,1-1.3,1.9-2.8,1.9c-2.1,0-3.7-1.5-3.7-3.9c0-2.5,1.8-4.3,4.6-4.3
		c2.9,0,4.6,1.9,4.6,4.9C193.2,533.6,190.8,536.4,188.7,537.8z M190.7,529.3V529c0-1.4-0.8-2.1-2.1-2.1s-2.1,0.8-2.1,2.1v0.3
		c0,1.4,0.8,2.1,2.1,2.1C190,531.4,190.7,530.7,190.7,529.3z"/>
	<path d="M197.1,537.8l4.4-10.6h-4.3v2.3h-2v-4.2h8.7v2l-4.2,10.5H197.1z"/>
	<path d="M205.6,531.5c0-4.1,1.5-6.5,4.7-6.5s4.7,2.4,4.7,6.5s-1.5,6.5-4.7,6.5S205.6,535.6,205.6,531.5z M212.4,532.7v-2.3
		c0-2.1-0.6-3.4-2.2-3.4c-1.6,0-2.2,1.3-2.2,3.4v2.3c0,2.1,0.6,3.4,2.2,3.4C211.9,536,212.4,534.7,212.4,532.7z"/>
	<path d="M220.4,530.3c1.4,0,2.1-0.7,2.1-1.6v-0.1c0-1-0.7-1.7-1.9-1.7c-1.1,0-2,0.6-2.6,1.5l-1.5-1.4c0.8-1.2,2-2.1,4.2-2.1
		c2.5,0,4.3,1.3,4.3,3.3c0,1.6-1.1,2.6-2.4,2.9v0.1c1.5,0.3,2.6,1.3,2.6,3.1c0,2.2-1.9,3.7-4.6,3.7c-2.4,0-3.7-1.1-4.5-2.3l1.7-1.3
		c0.6,1,1.3,1.7,2.7,1.7s2.2-0.7,2.2-1.9v-0.1c0-1.2-0.8-1.8-2.3-1.8h-1.2v-2L220.4,530.3L220.4,530.3z"/>
</g>
<g>
	<path class="st13" d="M413,362.6h-11.4V360l5.4-4.8c1.7-1.5,2.6-2.9,2.6-4.4v-0.3c0-1.6-1.1-2.6-2.7-2.6c-1.8,0-2.7,1.2-3.1,2.6
		l-2.4-0.9c0.7-2.1,2.4-4.1,5.7-4.1c3.4,0,5.4,2.1,5.4,5c0,2.7-1.8,4.5-4,6.4l-3.9,3.4h8.4V362.6z"/>
	<path class="st13" d="M416.1,361.3v-0.4c0-0.9,0.6-1.6,1.8-1.6c1.2,0,1.8,0.7,1.8,1.6v0.4c0,0.9-0.6,1.6-1.8,1.6
		S416.1,362.2,416.1,361.3z"/>
	<path class="st13" d="M401.8,374.6h8.1c2.8,0,4.4,1.7,4.4,4.3c0,2.6-1.4,3.5-3.1,3.6v0.1c1.6,0,3.8,1.1,3.8,3.9
		c0,2.6-1.8,4.8-4.3,4.8h-8.9V374.6z M405.5,381.5h3.6c1,0,1.5-0.6,1.5-1.5v-0.7c0-1-0.6-1.5-1.5-1.5h-3.6V381.5z M405.5,388.3h4.2
		c1,0,1.6-0.6,1.6-1.5V386c0-1-0.6-1.5-1.6-1.5h-4.2V388.3z"/>
	<path class="st13" d="M430.4,380.4L430.4,380.4l-1.3,2.4l-3.3,5.9l-3.2-5.9l-1.3-2.6h-0.1v11.2h-3.4v-16.8h3.9l4.1,7.8l0,0l4.1-7.8
		h3.9v16.8h-3.4L430.4,380.4L430.4,380.4z"/>
	<path class="st13" d="M437.5,391.4v-16.8h7.9c3.1,0,5.1,2.2,5.1,5.4c0,3.2-2,5.4-5.1,5.4h-4.3v6H437.5z M441.2,382.2h3.8
		c1.1,0,1.8-0.6,1.8-1.7v-1.1c0-1.1-0.7-1.7-1.8-1.7h-3.8V382.2z"/>
	<path class="st13" d="M469,384.5h-6.4v6.9H459v-16.8h3.6v6.7h6.4v-6.7h3.6v16.8H469V384.5z"/>
	<path class="st13" d="M475.8,375.7v-0.5c0-1,0.6-1.8,2.1-1.8c1.4,0,2.1,0.7,2.1,1.8v0.5c0,1-0.6,1.8-2.1,1.8
		S475.8,376.7,475.8,375.7z M476.1,378.8h3.6v12.6h-3.6V378.8z"/>
	<path class="st13" d="M483,373.6h3.6v10.5h0.1l1.6-2.3l2.5-3h3.9l-4.2,4.8l4.7,7.8H491l-2.8-5.3l-1.6,1.8v3.6H483V373.6z"/>
	<path class="st13" d="M495.4,385.1c0-4,2.1-6.6,5.9-6.6c4.2,0,5.9,3,5.9,6.4v1.1H499v0.2c0,1.7,0.9,2.7,2.8,2.7
		c1.5,0,2.3-0.7,3.1-1.5l1.8,2.2c-1.1,1.3-3,2.1-5.3,2.1C497.6,391.7,495.4,389.1,495.4,385.1z M499,383.7v0.2h4.4v-0.2
		c0-1.5-0.7-2.6-2.1-2.6S499,382.2,499,383.7z"/>
	<path class="st13" d="M525.4,390c-1.1,0.9-2.5,1.7-4.8,1.7c-3.7,0-5.7-2-5.7-4.7c0-2.3,1.4-3.5,3.4-4.7c-0.9-1.1-1.9-2.4-1.9-4
		c0-2.2,1.9-4,5-4c2.7,0,4.8,1.4,4.8,3.8c0,2.1-1.5,3.4-3.3,4.5l2.6,2.8c0.4-1,0.6-2.2,0.7-3.3h4v3h-1.5c-0.3,1-0.6,1.9-1.1,2.7
		l3.3,3.6h-4.3L525.4,390z M523.5,388.1l-3.5-3.8c-1.1,0.6-1.5,1.3-1.5,2.1v0.2c0,1.2,0.9,2.1,2.6,2.1
		C522,388.7,522.9,388.5,523.5,388.1z M519.7,378.4L519.7,378.4c0,0.7,0.4,1.2,1.4,2.4c1.1-0.7,1.7-1.3,1.7-2.3v-0.1
		c0-0.9-0.7-1.4-1.5-1.4C520.4,377.1,519.7,377.6,519.7,378.4z"/>
	<path class="st13" d="M538.5,391.4v-16.8h7.9c3.1,0,5.1,2.2,5.1,5.4c0,3.2-2,5.4-5.1,5.4h-4.3v6H538.5z M542.1,382.2h3.8
		c1.1,0,1.8-0.6,1.8-1.7v-1.1c0-1.1-0.7-1.7-1.8-1.7h-3.8V382.2z"/>
	<path class="st13" d="M553.7,375.7v-0.5c0-1,0.6-1.8,2.1-1.8c1.4,0,2.1,0.7,2.1,1.8v0.5c0,1-0.6,1.8-2.1,1.8
		C554.4,377.5,553.7,376.7,553.7,375.7z M554,378.8h3.6v12.6H554V378.8z"/>
	<path class="st13" d="M560.2,391.4v-2.8l6.3-7h-6v-2.8h10.2v2.8l-6.3,7.1h6.5v2.8h-10.7V391.4z"/>
	<path class="st13" d="M572.6,391.4v-2.8l6.3-7h-6v-2.8H583v2.8l-6.3,7.1h6.5v2.8h-10.6L572.6,391.4L572.6,391.4z"/>
	<path class="st13" d="M595.1,391.4c-1.3,0-2.2-0.9-2.4-2.2h-0.1c-0.4,1.6-1.8,2.5-3.7,2.5c-2.5,0-3.9-1.5-3.9-3.7
		c0-2.7,2.1-3.9,5.4-3.9h2v-0.8c0-1.2-0.6-2-2.1-2c-1.4,0-2.2,0.7-2.7,1.5l-2.1-1.9c1-1.5,2.4-2.4,5.1-2.4c3.6,0,5.4,1.6,5.4,4.6
		v5.5h1.2v2.8H595.1z M592.3,387.6v-1.5h-1.7c-1.4,0-2.1,0.5-2.1,1.4v0.4c0,0.9,0.6,1.3,1.7,1.3
		C591.3,389.2,592.3,388.7,592.3,387.6z"/>
	<path class="st13" d="M403.7,442.8v7.7c0,2,0.7,3,2.5,3s2.5-1,2.5-3v-7.7h2.3v7.4c0,3.7-1.3,5.4-4.8,5.4s-4.8-1.7-4.8-5.4v-7.4
		H403.7z"/>
	<path class="st13" d="M413.8,446h2.3v1.5h0.1c0.3-1.1,1.4-1.8,2.6-1.8c2.4,0,3.7,1.8,3.7,4.9c0,3.2-1.3,4.9-3.7,4.9
		c-1.2,0-2.2-0.7-2.6-1.8h-0.1v5.2h-2.3V446z M420,451.5v-1.6c0-1.3-0.8-2.2-2-2.2c-1.1,0-1.9,0.6-1.9,1.5v3c0,1,0.8,1.5,1.9,1.5
		C419.2,453.7,420,452.8,420,451.5z"/>
	<path class="st13" d="M424.6,446h2.3v1.5h0.1c0.3-1.1,1.4-1.8,2.6-1.8c2.4,0,3.7,1.8,3.7,4.9c0,3.2-1.3,4.9-3.7,4.9
		c-1.2,0-2.2-0.7-2.6-1.8h-0.1v5.2h-2.3V446z M430.8,451.5v-1.6c0-1.3-0.8-2.2-2-2.2c-1.1,0-1.9,0.6-1.9,1.5v3c0,1,0.8,1.5,1.9,1.5
		C430,453.7,430.8,452.8,430.8,451.5z"/>
	<path class="st13" d="M434.7,450.7c0-3,1.6-4.9,4.4-4.9c2.9,0,4.3,2.2,4.3,4.7v0.8h-6.2v0.2c0,1.4,0.8,2.3,2.3,2.3
		c1.1,0,1.8-0.5,2.4-1.3l1.2,1.4c-0.8,1.1-2.1,1.7-3.9,1.7C436.4,455.6,434.7,453.7,434.7,450.7z M437.1,449.7v0.1h3.9v-0.2
		c0-1.3-0.7-2.2-1.9-2.2C437.9,447.5,437.1,448.4,437.1,449.7z"/>
	<path class="st13" d="M445.4,455.4V446h2.3v1.9h0.1c0.2-1,1-1.9,2.5-1.9h0.5v2.2h-0.7c-1.5,0-2.4,0.4-2.4,1.5v5.8h-2.3V455.4z"/>
	<path class="st13" d="M456.9,442.8h5.8c2.1,0,3.3,1.3,3.3,3.2c0,1.9-1.1,2.6-2.3,2.7v0.1c1.1,0,2.7,0.8,2.7,2.9
		c0,2-1.4,3.6-3.2,3.6h-6.4v-12.5L456.9,442.8L456.9,442.8z M459.2,448.1h2.9c0.9,0,1.4-0.5,1.4-1.3v-0.6c0-0.8-0.5-1.3-1.4-1.3
		h-2.9V448.1z M459.2,453.4h3.3c0.9,0,1.4-0.5,1.4-1.4v-0.6c0-0.9-0.5-1.4-1.4-1.4h-3.3V453.4z"/>
	<path class="st13" d="M474.3,453.8L474.3,453.8c-0.4,0.9-1.2,1.8-2.7,1.8c-1.9,0-3-1.3-3-3.7V446h2.3v5.7c0,1.3,0.5,2,1.6,2
		c0.9,0,1.8-0.5,1.8-1.5V446h2.3v9.4h-2.3L474.3,453.8L474.3,453.8z"/>
	<path class="st13" d="M478.4,453.9l1.4-1.4c0.7,0.8,1.5,1.3,2.6,1.3s1.6-0.4,1.6-1.1c0-0.5-0.3-0.9-1.2-1l-0.9-0.1
		c-2-0.3-3.1-1.1-3.1-2.8c0-1.8,1.4-3,3.6-3c1.8,0,2.8,0.5,3.7,1.5l-1.4,1.4c-0.5-0.6-1.3-1-2.3-1s-1.4,0.4-1.4,1s0.3,0.9,1.2,1.1
		l1,0.1c2.1,0.3,3,1.2,3,2.8c0,1.8-1.5,3.1-3.9,3.1C480.5,455.6,479.4,455,478.4,453.9z"/>
	<path class="st13" d="M492.6,455.4v-12.6h2.4v10.5h5v2.1H492.6L492.6,455.4z"/>
	<path class="st13" d="M501,450.7c0-3,1.7-4.9,4.4-4.9c2.7,0,4.4,1.9,4.4,4.9s-1.7,4.9-4.4,4.9S501,453.7,501,450.7z M507.4,451.6
		v-1.7c0-1.4-0.8-2.2-2-2.2s-1.9,0.8-1.9,2.2v1.7c0,1.4,0.8,2.2,1.9,2.2C506.6,453.8,507.4,453,507.4,451.6z"/>
	<path class="st13" d="M511.2,450.7c0-3,1.7-4.9,4.4-4.9s4.4,1.9,4.4,4.9s-1.7,4.9-4.4,4.9C512.8,455.6,511.2,453.7,511.2,450.7z
		 M517.5,451.6v-1.7c0-1.4-0.8-2.2-2-2.2s-1.9,0.8-1.9,2.2v1.7c0,1.4,0.8,2.2,1.9,2.2C516.7,453.8,517.5,453,517.5,451.6z"/>
	<path class="st13" d="M521.9,446h2.3v1.5h0.1c0.3-1.1,1.4-1.8,2.6-1.8c2.4,0,3.7,1.8,3.7,4.9c0,3.2-1.3,4.9-3.7,4.9
		c-1.2,0-2.2-0.7-2.6-1.8h-0.1v5.2h-2.3V446z M528.2,451.5v-1.6c0-1.3-0.8-2.2-2-2.2c-1.1,0-1.9,0.6-1.9,1.5v3c0,1,0.8,1.5,1.9,1.5
		C527.4,453.7,528.2,452.8,528.2,451.5z"/>
	<path class="st13" d="M539.6,455.4c-1.4,0-2.1-0.8-2.1-2v-5.8H536V446h0.8c0.6,0,0.9-0.3,0.9-0.9v-1.6h1.8v2.6h2v1.6h-2v6.2h1.8
		v1.6L539.6,455.4L539.6,455.4z"/>
	<path class="st13" d="M542.9,450.7c0-3,1.7-4.9,4.3-4.9s4.3,1.9,4.3,4.9s-1.7,4.9-4.3,4.9S542.9,453.7,542.9,450.7z M549.5,451.5
		v-1.6c0-1.7-0.9-2.5-2.2-2.5s-2.2,0.8-2.2,2.5v1.6c0,1.7,0.9,2.5,2.2,2.5S549.5,453.2,549.5,451.5z"/>
	<path class="st13" d="M401.5,463.8h5.8c2.1,0,3.3,1.3,3.3,3.2s-1.1,2.6-2.3,2.7v0.1c1.1,0,2.7,0.8,2.7,2.9c0,2-1.4,3.6-3.2,3.6
		h-6.4v-12.5L401.5,463.8L401.5,463.8z M403.9,469.1h2.9c0.9,0,1.4-0.5,1.4-1.3v-0.6c0-0.8-0.5-1.3-1.4-1.3h-2.9V469.1z
		 M403.9,474.4h3.3c0.9,0,1.4-0.5,1.4-1.4v-0.6c0-0.9-0.5-1.4-1.4-1.4h-3.3V474.4z"/>
	<path class="st13" d="M418.9,474.8L418.9,474.8c-0.4,0.9-1.2,1.8-2.7,1.8c-1.9,0-3-1.3-3-3.7V467h2.3v5.7c0,1.3,0.5,2,1.6,2
		c0.9,0,1.8-0.5,1.8-1.5V467h2.3v9.4h-2.3L418.9,474.8L418.9,474.8z"/>
	<path class="st13" d="M423.9,476.4V467h2.3v1.9h0.1c0.2-1,1-1.9,2.5-1.9h0.5v2.2h-0.7c-1.5,0-2.4,0.4-2.4,1.5v5.8L423.9,476.4
		L423.9,476.4z"/>
	<path class="st13" d="M430.9,476.4V467h2.3v1.6h0.1c0.4-1,1.2-1.8,2.6-1.8c1.9,0,3,1.3,3,3.7v5.9h-2.3v-5.7c0-1.3-0.5-2-1.5-2
		s-1.9,0.5-1.9,1.5v6.2L430.9,476.4L430.9,476.4z"/>
	<path class="st13" d="M440.8,473.8c0-1.9,1.5-2.9,4-2.9h1.6v-0.7c0-1-0.5-1.7-1.7-1.7c-1.1,0-1.7,0.5-2.1,1.2l-1.4-1.2
		c0.7-1.1,1.8-1.8,3.7-1.8c2.5,0,3.9,1.2,3.9,3.3v4.4h0.9v1.8h-1.3c-1,0-1.6-0.6-1.7-1.6h-0.1c-0.3,1.2-1.3,1.8-2.7,1.8
		C441.9,476.6,440.8,475.5,440.8,473.8z M446.5,473.6v-1.2H445c-1.2,0-1.8,0.4-1.8,1.2v0.3c0,0.8,0.5,1.1,1.4,1.1
		C445.6,474.9,446.5,474.5,446.5,473.6z"/>
	<path class="st13" d="M451.6,463.1h2.3v5.5h0.1c0.3-1.1,1.4-1.8,2.6-1.8c2.4,0,3.7,1.8,3.7,4.9c0,3.2-1.3,4.9-3.7,4.9
		c-1.2,0-2.2-0.7-2.6-1.8h-0.1v1.6h-2.3V463.1z M457.8,472.5v-1.6c0-1.3-0.8-2.2-2-2.2c-1.1,0-1.9,0.6-1.9,1.5v3
		c0,1,0.8,1.5,1.9,1.5C457,474.7,457.8,473.8,457.8,472.5z"/>
	<path class="st13" d="M468,467h2.2l-3.8,11.1c-0.5,1.4-1.1,1.9-2.7,1.9h-1.4v-1.8h1.7l0.4-1.3l-3.4-9.8h2.3l1.6,5l0.6,2.4h0.1
		l0.6-2.4L468,467z"/>
	<path class="st13" d="M476,463.8h2.7l3.2,6.1h0.1l3.2-6.1h2.6v12.6h-2.3v-9h-0.1l-1,2l-2.6,4.8l-2.6-4.8l-1-2h-0.1v9H476V463.8z"/>
	<path class="st13" d="M489.9,471.7c0-3,1.7-4.9,4.4-4.9c2.7,0,4.4,1.9,4.4,4.9s-1.7,4.9-4.4,4.9S489.9,474.7,489.9,471.7z
		 M496.3,472.6v-1.7c0-1.4-0.8-2.2-2-2.2s-1.9,0.8-1.9,2.2v1.7c0,1.4,0.8,2.2,1.9,2.2C495.5,474.8,496.3,474,496.3,472.6z"/>
	<path class="st13" d="M506.3,474.8L506.3,474.8c-0.4,0.9-1.2,1.8-2.7,1.8c-1.9,0-3-1.3-3-3.7V467h2.3v5.7c0,1.3,0.5,2,1.6,2
		c0.9,0,1.8-0.5,1.8-1.5V467h2.3v9.4h-2.3L506.3,474.8L506.3,474.8z"/>
	<path class="st13" d="M511.3,476.4V467h2.3v1.6h0.1c0.4-1,1.2-1.8,2.6-1.8c1.9,0,3,1.3,3,3.7v5.9H517v-5.7c0-1.3-0.5-2-1.5-2
		s-1.9,0.5-1.9,1.5v6.2L511.3,476.4L511.3,476.4z"/>
	<path class="st13" d="M522.4,474v-5.2H521V467h0.7c0.7,0,0.9-0.3,0.9-1v-1.6h2.1v2.6h1.9v1.8h-1.9v5.7h1.8v1.8h-1.7
		C523.2,476.4,522.4,475.5,522.4,474z"/>
	<path class="st13" d="M527.9,473.8c0-1.9,1.5-2.9,4-2.9h1.6v-0.7c0-1-0.5-1.7-1.7-1.7c-1.1,0-1.7,0.5-2.1,1.2l-1.4-1.2
		c0.7-1.1,1.8-1.8,3.7-1.8c2.5,0,3.9,1.2,3.9,3.3v4.4h0.9v1.8h-1.3c-1,0-1.6-0.6-1.7-1.6h-0.1c-0.3,1.2-1.3,1.8-2.7,1.8
		C529,476.6,527.9,475.5,527.9,473.8z M533.6,473.6v-1.2h-1.5c-1.2,0-1.8,0.4-1.8,1.2v0.3c0,0.8,0.5,1.1,1.4,1.1
		C532.7,474.9,533.6,474.5,533.6,473.6z"/>
	<path class="st13" d="M538.5,464.5v-0.4c0-0.7,0.4-1.2,1.4-1.2c0.9,0,1.4,0.5,1.4,1.2v0.4c0,0.7-0.4,1.2-1.4,1.2
		C538.9,465.6,538.5,465.1,538.5,464.5z M538.7,467h2.3v9.4h-2.3V467z"/>
	<path class="st13" d="M543.6,476.4V467h2.3v1.6h0.1c0.4-1,1.2-1.8,2.6-1.8c1.9,0,3,1.3,3,3.7v5.9h-2.3v-5.7c0-1.3-0.5-2-1.5-2
		s-1.9,0.5-1.9,1.5v6.2L543.6,476.4L543.6,476.4z"/>
	<path class="st13" d="M558.6,476.4v-12.6h5.7c2.3,0,3.7,1.6,3.7,3.9s-1.4,3.9-3.7,3.9H561v4.8L558.6,476.4L558.6,476.4z M561,469.6
		h3.1c0.9,0,1.5-0.5,1.5-1.4v-0.8c0-0.9-0.6-1.4-1.5-1.4H561V469.6z"/>
	<path class="st13" d="M569.1,473.8c0-1.9,1.5-2.9,4-2.9h1.6v-0.7c0-1-0.5-1.7-1.7-1.7c-1.1,0-1.7,0.5-2.1,1.2l-1.4-1.2
		c0.7-1.1,1.8-1.8,3.7-1.8c2.5,0,3.9,1.2,3.9,3.3v4.4h0.9v1.8h-1.3c-1,0-1.6-0.6-1.7-1.6h-0.1c-0.3,1.2-1.3,1.8-2.7,1.8
		C570.2,476.6,569.1,475.5,569.1,473.8z M574.7,473.6v-1.2h-1.5c-1.2,0-1.8,0.4-1.8,1.2v0.3c0,0.8,0.5,1.1,1.4,1.1
		C573.9,474.9,574.7,474.5,574.7,473.6z"/>
	<path class="st13" d="M579.8,476.4V467h2.3v1.9h0.1c0.2-1,1-1.9,2.5-1.9h0.5v2.2h-0.7c-1.5,0-2.4,0.4-2.4,1.5v5.8L579.8,476.4
		L579.8,476.4z"/>
	<path class="st13" d="M586.9,463.1h2.3v8h0.1l1.2-1.7l2.1-2.4h2.6l-3.2,3.6l3.6,5.8h-2.7l-2.4-4.2l-1.2,1.4v2.9H587L586.9,463.1
		L586.9,463.1z"/>
	<path class="st13" d="M404.4,422v-2h4.1v-11h-0.2l-3.4,3.6l-1.4-1.3l3.7-4.1h3.6v12.7h3.6v2L404.4,422L404.4,422z"/>
	<path class="st13" d="M426.6,422h-10v-2.3l4.7-4.2c1.5-1.3,2.3-2.5,2.3-3.8v-0.3c0-1.4-0.9-2.3-2.4-2.3c-1.6,0-2.4,1-2.8,2.3
		l-2.1-0.8c0.6-1.8,2.1-3.6,5-3.6c3,0,4.7,1.8,4.7,4.3c0,2.4-1.6,3.9-3.5,5.6l-3.4,3h7.4L426.6,422L426.6,422z"/>
	<path class="st13" d="M429.5,412.6v-0.3c0-0.8,0.5-1.4,1.5-1.4s1.5,0.6,1.5,1.4v0.3c0,0.8-0.5,1.4-1.5,1.4S429.5,413.4,429.5,412.6
		z M429.5,420.8v-0.3c0-0.8,0.5-1.4,1.5-1.4s1.5,0.6,1.5,1.4v0.3c0,0.8-0.5,1.4-1.5,1.4S429.5,421.6,429.5,420.8z"/>
	<path class="st13" d="M435.3,414.7c0-4.8,1.7-7.6,5.3-7.6c3.7,0,5.3,2.8,5.3,7.6s-1.7,7.6-5.3,7.6S435.3,419.5,435.3,414.7z
		 M443.4,416v-2.6c0-2.6-0.8-4.3-2.8-4.3s-2.8,1.7-2.8,4.3v2.6c0,2.6,0.8,4.3,2.8,4.3C442.6,420.2,443.4,418.5,443.4,416z"/>
	<path class="st13" d="M447.9,414.7c0-4.8,1.7-7.6,5.3-7.6s5.3,2.8,5.3,7.6s-1.7,7.6-5.3,7.6S447.9,419.5,447.9,414.7z M456,416
		v-2.6c0-2.6-0.8-4.3-2.8-4.3s-2.8,1.7-2.8,4.3v2.6c0,2.6,0.8,4.3,2.8,4.3S456,418.5,456,416z"/>
	<path class="st13" d="M461.3,422v-14.7h6.3c2.7,0,4.3,1.7,4.3,4.4s-1.6,4.4-4.3,4.4h-3.9v5.8h-2.4V422L461.3,422z M463.7,414.1h3.8
		c1.2,0,1.9-0.7,1.9-1.8v-1c0-1.2-0.7-1.8-1.9-1.8h-3.8V414.1z"/>
	<path class="st13" d="M474.5,407.3h2.8l3.9,7.5h0.1l3.9-7.5h2.7V422h-2.3v-11.2l0,0l-1.2,2.4l-3.2,5.9l-3.2-5.9l-1.2-2.4h-0.1V422
		h-2.3v-14.7H474.5z"/>
	<path class="st13" d="M496,416.8v-2.3h5.8v2.3H496z"/>
	<path class="st13" d="M513.6,413.4c1.8,0,2.7-0.9,2.7-2.1v-0.1c0-1.3-0.9-2.1-2.3-2.1c-1.4,0-2.4,0.7-3,1.8l-1.6-1.4
		c0.9-1.3,2.2-2.4,4.7-2.4c2.8,0,4.8,1.4,4.8,3.8c0,1.9-1.3,3-2.8,3.4v0.1c1.7,0.3,3.1,1.5,3.1,3.6c0,2.6-2.1,4.3-5.2,4.3
		c-2.7,0-4.1-1.3-5-2.6l1.7-1.4c0.7,1.2,1.6,2,3.3,2c1.8,0,2.8-0.9,2.8-2.4v-0.1c0-1.5-1-2.3-2.9-2.3h-1.6v-2L513.6,413.4
		L513.6,413.4z"/>
	<path class="st13" d="M522.4,412.6v-0.3c0-0.8,0.5-1.4,1.5-1.4s1.5,0.6,1.5,1.4v0.3c0,0.8-0.5,1.4-1.5,1.4S522.4,413.4,522.4,412.6
		z M522.4,420.8v-0.3c0-0.8,0.5-1.4,1.5-1.4s1.5,0.6,1.5,1.4v0.3c0,0.8-0.5,1.4-1.5,1.4S522.4,421.6,522.4,420.8z"/>
	<path class="st13" d="M528.2,414.7c0-4.8,1.7-7.6,5.3-7.6s5.3,2.8,5.3,7.6s-1.7,7.6-5.3,7.6S528.2,419.5,528.2,414.7z M536.3,416
		v-2.6c0-2.6-0.8-4.3-2.8-4.3s-2.8,1.7-2.8,4.3v2.6c0,2.6,0.8,4.3,2.8,4.3S536.3,418.5,536.3,416z"/>
	<path class="st13" d="M540.8,414.7c0-4.8,1.7-7.6,5.3-7.6s5.3,2.8,5.3,7.6s-1.7,7.6-5.3,7.6S540.8,419.5,540.8,414.7z M548.9,416
		v-2.6c0-2.6-0.8-4.3-2.8-4.3s-2.8,1.7-2.8,4.3v2.6c0,2.6,0.8,4.3,2.8,4.3S548.9,418.5,548.9,416z"/>
	<path class="st13" d="M554.2,422v-14.7h6.3c2.7,0,4.3,1.7,4.3,4.4s-1.6,4.4-4.3,4.4h-3.9v5.8h-2.4L554.2,422L554.2,422z
		 M556.6,414.1h3.8c1.2,0,1.9-0.7,1.9-1.8v-1c0-1.2-0.7-1.8-1.9-1.8h-3.8V414.1z"/>
	<path class="st13" d="M567.4,407.3h2.8l3.9,7.5h0.1l3.9-7.5h2.7V422h-2.3v-11.2h-0.1l-1.2,2.4l-3.2,5.9l-3.2-5.9l-1.2-2.4h-0.1V422
		h-2.3v-14.7H567.4z"/>
</g>
<g>
	<path d="M913.3,737.8c0-4.8,3.2-8.7,6-10.5h3.6c-3.8,2.8-6,5-6.8,8.6h0.2c0.7-1.3,1.8-2.4,3.9-2.4c2.8,0,4.9,2,4.9,5.2
		c0,3.4-2.3,5.7-5.9,5.7C915.6,744.3,913.3,741.8,913.3,737.8z M922.3,739v-0.3c0-2-1.2-3.1-3.1-3.1c-1.9,0-3.1,1.1-3.1,3.1v0.3
		c0,2,1.2,3.1,3.1,3.1C921.2,742.1,922.3,741,922.3,739z"/>
	<path d="M928.1,742.7v-0.4c0-0.9,0.6-1.6,1.8-1.6s1.8,0.7,1.8,1.6v0.4c0,0.9-0.6,1.6-1.8,1.6C928.7,744.3,928.1,743.6,928.1,742.7z
		"/>
	<path d="M913.8,756h6.3c4.4,0,7.4,2.8,7.4,8.4c0,5.6-2.9,8.4-7.4,8.4h-6.3V756z M920.2,769.6c2.2,0,3.5-1.2,3.5-3.8v-2.6
		c0-2.7-1.3-3.8-3.5-3.8h-2.7v10.3h2.7V769.6z"/>
	<path d="M930.1,757.1v-0.5c0-1,0.6-1.8,2.1-1.8c1.4,0,2.1,0.7,2.1,1.8v0.5c0,1-0.6,1.8-2.1,1.8
		C930.7,758.9,930.1,758.1,930.1,757.1z M930.4,760.2h3.6v12.6h-3.6V760.2z"/>
	<path d="M937.2,772.8v-12.6h3.6v2.1h0.1c0.5-1.3,1.5-2.4,3.5-2.4c2.6,0,3.9,1.8,3.9,5v7.9h-3.6v-7.6c0-1.6-0.5-2.4-1.8-2.4
		c-1.2,0-2.3,0.6-2.3,1.8v8.2H937.2z"/>
	<path d="M951.6,772.8v-12.6h3.6v2.1h0.1c0.5-1.3,1.5-2.4,3.5-2.4c2.6,0,3.9,1.8,3.9,5v7.9h-3.6v-7.6c0-1.6-0.5-2.4-1.8-2.4
		c-1.2,0-2.3,0.6-2.3,1.8v8.2H951.6z"/>
	<path d="M965.1,766.5c0-4,2.1-6.6,5.9-6.6c4.2,0,5.9,3,5.9,6.4v1.1h-8.1v0.2c0,1.7,0.9,2.7,2.8,2.7c1.5,0,2.3-0.7,3.1-1.5l1.8,2.2
		c-1.1,1.3-3,2.1-5.3,2.1C967.2,773.1,965.1,770.5,965.1,766.5z M968.7,765.1v0.2h4.4v-0.2c0-1.5-0.7-2.6-2.1-2.6
		C969.6,762.5,968.7,763.6,968.7,765.1z"/>
	<path d="M979.3,772.8v-12.6h3.6v2.7h0.1c0.3-1.4,1.2-2.7,3.2-2.7h0.6v3.3H986c-2.1,0-3.1,0.5-3.1,1.9v7.4L979.3,772.8L979.3,772.8z
		"/>
	<path d="M913.2,799.3c0-4.2,2.8-7.6,5.2-9.2h3.1c-3.3,2.4-5.2,4.3-5.9,7.5h0.1c0.6-1.2,1.6-2.1,3.4-2.1c2.5,0,4.3,1.8,4.3,4.5
		c0,2.9-2,5-5.1,5C915.1,805.1,913.2,802.8,913.2,799.3z M921,800.4v-0.3c0-1.7-1-2.7-2.7-2.7s-2.7,0.9-2.7,2.7v0.3
		c0,1.7,1,2.7,2.7,2.7S921,802.2,921,800.4z"/>
	<path d="M926.3,795.4v-0.3c0-0.8,0.5-1.4,1.5-1.4s1.5,0.6,1.5,1.4v0.3c0,0.8-0.5,1.4-1.5,1.4C926.8,796.8,926.3,796.2,926.3,795.4z
		 M926.3,803.6v-0.3c0-0.8,0.5-1.4,1.5-1.4s1.5,0.6,1.5,1.4v0.3c0,0.8-0.5,1.4-1.5,1.4C926.8,805.1,926.3,804.4,926.3,803.6z"/>
	<path d="M932.1,797.5c0-4.8,1.7-7.6,5.3-7.6c3.7,0,5.3,2.8,5.3,7.6s-1.7,7.6-5.3,7.6S932.1,802.3,932.1,797.5z M940.2,798.8v-2.6
		c0-2.6-0.8-4.3-2.8-4.3s-2.8,1.7-2.8,4.3v2.6c0,2.6,0.8,4.3,2.8,4.3C939.4,803,940.2,801.3,940.2,798.8z"/>
	<path d="M944.7,797.5c0-4.8,1.7-7.6,5.3-7.6c3.7,0,5.3,2.8,5.3,7.6s-1.7,7.6-5.3,7.6S944.7,802.3,944.7,797.5z M952.8,798.8v-2.6
		c0-2.6-0.8-4.3-2.8-4.3s-2.8,1.7-2.8,4.3v2.6c0,2.6,0.8,4.3,2.8,4.3C952,803,952.8,801.3,952.8,798.8z"/>
	<path d="M958.1,804.8v-14.7h6.3c2.7,0,4.3,1.7,4.3,4.4s-1.6,4.4-4.3,4.4h-3.9v5.8L958.1,804.8L958.1,804.8z M960.5,796.9h3.8
		c1.2,0,1.9-0.7,1.9-1.8v-1c0-1.2-0.7-1.8-1.9-1.8h-3.8V796.9z"/>
	<path d="M971.3,790.1h2.8l3.9,7.5h0.1l3.9-7.5h2.7v14.7h-2.3v-11.2h-0.1l-1.2,2.4l-3.2,5.9l-3.2-5.9l-1.2-2.4h-0.1v11.2h-2.3v-14.7
		H971.3z"/>
	<path d="M992.8,799.6v-2.3h5.8v2.3H992.8z"/>
	<path d="M1011.1,804.8h-3.2c3.3-2.4,5.2-4.3,5.9-7.5h-0.1c-0.6,1.2-1.6,2.1-3.4,2.1c-2.5,0-4.3-1.8-4.3-4.5c0-2.9,2-5,5.1-5
		c3.2,0,5.2,2.2,5.2,5.7C1016.3,799.8,1013.5,803.2,1011.1,804.8z M1013.9,794.8v-0.3c0-1.7-1-2.7-2.7-2.7s-2.7,0.9-2.7,2.7v0.3
		c0,1.7,1,2.7,2.7,2.7S1013.9,796.5,1013.9,794.8z"/>
	<path d="M1019.2,795.4v-0.3c0-0.8,0.5-1.4,1.5-1.4s1.5,0.6,1.5,1.4v0.3c0,0.8-0.5,1.4-1.5,1.4S1019.2,796.2,1019.2,795.4z
		 M1019.2,803.6v-0.3c0-0.8,0.5-1.4,1.5-1.4s1.5,0.6,1.5,1.4v0.3c0,0.8-0.5,1.4-1.5,1.4S1019.2,804.4,1019.2,803.6z"/>
	<path d="M1025,797.5c0-4.8,1.7-7.6,5.3-7.6c3.7,0,5.3,2.8,5.3,7.6s-1.7,7.6-5.3,7.6S1025,802.3,1025,797.5z M1033.1,798.8v-2.6
		c0-2.6-0.8-4.3-2.8-4.3s-2.8,1.7-2.8,4.3v2.6c0,2.6,0.8,4.3,2.8,4.3C1032.3,803,1033.1,801.3,1033.1,798.8z"/>
	<path d="M1037.6,797.5c0-4.8,1.7-7.6,5.3-7.6s5.3,2.8,5.3,7.6s-1.7,7.6-5.3,7.6S1037.6,802.3,1037.6,797.5z M1045.7,798.8v-2.6
		c0-2.6-0.8-4.3-2.8-4.3s-2.8,1.7-2.8,4.3v2.6c0,2.6,0.8,4.3,2.8,4.3S1045.7,801.3,1045.7,798.8z"/>
	<path d="M1051,804.8v-14.7h6.3c2.7,0,4.3,1.7,4.3,4.4s-1.6,4.4-4.3,4.4h-3.9v5.8L1051,804.8L1051,804.8z M1053.4,796.9h3.8
		c1.2,0,1.9-0.7,1.9-1.8v-1c0-1.2-0.7-1.8-1.9-1.8h-3.8V796.9z"/>
	<path d="M1064.2,790.1h2.8l3.9,7.5h0.1l3.9-7.5h2.7v14.7h-2.3v-11.2h-0.1l-1.2,2.4l-3.2,5.9l-3.2-5.9l-1.2-2.4h-0.1v11.2h-2.3
		v-14.7H1064.2z"/>
	<path d="M918.4,826.3v10.5H916v-10.5h-3.6v-2.1h9.5v2.1H918.4z"/>
	<path d="M930.5,836.8l-1-3.2H925l-1,3.2h-2.4l4.2-12.6h3l4.2,12.6H930.5z M927.3,826.4L927.3,826.4l-1.7,5.2h3.3L927.3,826.4z"/>
	<path d="M934.1,834.9l1.6-1.5c0.9,1,1.9,1.5,3.2,1.5c1.5,0,2.2-0.7,2.2-1.8c0-0.8-0.4-1.4-1.7-1.6l-1.2-0.2
		c-2.5-0.4-3.8-1.6-3.8-3.7c0-2.2,1.7-3.7,4.6-3.7c1.9,0,3.3,0.6,4.3,1.9l-1.6,1.5c-0.6-0.8-1.5-1.3-2.8-1.3s-2.1,0.5-2.1,1.5
		s0.5,1.4,1.7,1.6l1.2,0.2c2.5,0.5,3.7,1.6,3.7,3.7c0,2.4-1.7,4-4.7,4C936.6,837,935.1,836.2,934.1,834.9z"/>
	<path d="M945.3,830.6c0-4.2,2.1-6.6,5.4-6.6c2.3,0,3.7,1,4.6,2.9l-2,1.1c-0.4-1.1-1.2-1.9-2.6-1.9c-1.8,0-2.9,1.3-2.9,3.4v2
		c0,2.2,1.1,3.4,2.9,3.4c1.4,0,2.3-0.9,2.7-2l1.9,1.1c-0.9,1.9-2.4,3-4.6,3C947.4,837,945.3,834.8,945.3,830.6z"/>
	<path d="M957.6,836.8v-1.9h3.5V826h-0.2l-2.7,3.2l-1.5-1.2l3.1-3.7h3.6v10.6h2.9v1.9H957.6L957.6,836.8z"/>
	<path d="M976.4,836.8h-3.2c3-2.1,4.7-3.8,5.2-6.4h-0.1c-0.5,1-1.3,1.9-2.8,1.9c-2.1,0-3.7-1.5-3.7-3.9c0-2.5,1.8-4.3,4.6-4.3
		c2.9,0,4.6,1.9,4.6,4.9C980.9,832.6,978.5,835.4,976.4,836.8z M978.4,828.3V828c0-1.4-0.8-2.1-2.1-2.1s-2.1,0.8-2.1,2.1v0.3
		c0,1.4,0.8,2.1,2.1,2.1C977.6,830.4,978.4,829.7,978.4,828.3z"/>
	<path d="M991.6,836.8h-8.7v-2.2l3.9-3.5c1.3-1.2,1.9-2,1.9-3.1v-0.2c0-1.1-0.8-1.7-1.9-1.7c-1.3,0-1.9,0.8-2.2,1.9l-2.1-0.8
		c0.5-1.7,1.9-3.1,4.4-3.1c2.6,0,4.2,1.6,4.2,3.7c0,2.1-1.4,3.4-3.2,4.9l-2.6,2.2h6.1v1.9L991.6,836.8L991.6,836.8z"/>
	<path d="M993.3,830.5c0-4.1,1.5-6.5,4.7-6.5s4.7,2.4,4.7,6.5s-1.5,6.5-4.7,6.5S993.3,834.6,993.3,830.5z M1000.1,831.7v-2.3
		c0-2.1-0.6-3.4-2.2-3.4c-1.6,0-2.2,1.3-2.2,3.4v2.3c0,2.1,0.6,3.4,2.2,3.4C999.6,835,1000.1,833.7,1000.1,831.7z"/>
	<path d="M1009.6,836.8v-2.4h-5.7v-2l5-8.1h2.9v8.3h1.6v1.8h-1.6v2.4H1009.6z M1005.9,832.5h3.7v-6h-0.1L1005.9,832.5z"/>
</g>
<g>
	<path class="st13" d="M924.2,345.6h-7.4l-0.4,5.9h0.2c0.7-1.3,1.6-2.2,3.5-2.2c2.9,0,5.1,1.9,5.1,5.2c0,3.3-2.2,5.7-6,5.7
		c-3,0-4.5-1.5-5.5-3l2-1.6c0.8,1.3,1.8,2.3,3.6,2.3c2,0,3.1-1.2,3.1-3.1v-0.3c0-1.9-1.1-3.1-3.1-3.1c-1.4,0-2.2,0.6-2.8,1.3
		l-2.2-0.3l0.6-9.3h9.5v2.5H924.2z"/>
	<path class="st13" d="M928.1,358.7v-0.4c0-0.9,0.6-1.6,1.8-1.6s1.8,0.7,1.8,1.6v0.4c0,0.9-0.6,1.6-1.8,1.6
		C928.7,360.3,928.1,359.6,928.1,358.7z"/>
	<path class="st13" d="M913.8,388.8V372h7.9c3.1,0,5.1,2.2,5.1,5.4c0,3.2-2,5.4-5.1,5.4h-4.3v6H913.8z M917.5,379.6h3.8
		c1.1,0,1.8-0.6,1.8-1.7v-1.1c0-1.1-0.7-1.7-1.8-1.7h-3.8V379.6z"/>
	<path class="st13" d="M938.4,388.8c-1.3,0-2.2-0.9-2.4-2.2h-0.1c-0.4,1.6-1.8,2.5-3.7,2.5c-2.5,0-3.9-1.5-3.9-3.7
		c0-2.7,2.1-3.9,5.4-3.9h2v-0.8c0-1.2-0.6-2-2.1-2c-1.4,0-2.2,0.7-2.7,1.5l-2.1-1.9c1-1.5,2.4-2.4,5.1-2.4c3.6,0,5.4,1.6,5.4,4.6
		v5.5h1.2v2.8H938.4z M935.6,385v-1.5h-1.7c-1.4,0-2.1,0.5-2.1,1.4v0.4c0,0.9,0.6,1.3,1.7,1.3C934.6,386.6,935.6,386.1,935.6,385z"
		/>
	<path class="st13" d="M941.9,382.5c0-4,2.1-6.6,5.9-6.6c2.5,0,4.3,1.2,5,3.3l-2.9,1.2c-0.2-1-0.9-1.7-2.2-1.7c-1.4,0-2.2,1-2.2,2.6
		v2.4c0,1.6,0.7,2.6,2.2,2.6c1.4,0,2-0.9,2.4-1.9l2.8,1.2c-0.8,2.4-2.6,3.5-5.1,3.5C944,389.1,941.9,386.5,941.9,382.5z"/>
	<path class="st13" d="M967.8,377.8L967.8,377.8l-1.3,2.4l-3.3,5.9l-3.2-5.9l-1.3-2.6h-0.1v11.2h-3.4V372h3.9l4.1,7.8l0,0l4.1-7.8
		h3.9v16.8h-3.4V377.8z"/>
	<path class="st13" d="M984.1,388.8c-1.3,0-2.2-0.9-2.4-2.2h-0.1c-0.4,1.6-1.8,2.5-3.7,2.5c-2.5,0-3.9-1.5-3.9-3.7
		c0-2.7,2.1-3.9,5.4-3.9h2v-0.8c0-1.2-0.6-2-2.1-2c-1.4,0-2.2,0.7-2.7,1.5l-2.1-1.9c1-1.5,2.4-2.4,5.1-2.4c3.6,0,5.4,1.6,5.4,4.6
		v5.5h1.2v2.8H984.1z M981.3,385v-1.5h-1.7c-1.4,0-2.1,0.5-2.1,1.4v0.4c0,0.9,0.6,1.3,1.7,1.3C980.3,386.6,981.3,386.1,981.3,385z"
		/>
	<path class="st13" d="M987.6,382.5c0-4,2.1-6.6,5.9-6.6c2.5,0,4.3,1.2,5,3.3l-2.9,1.2c-0.2-1-0.9-1.7-2.2-1.7c-1.4,0-2.2,1-2.2,2.6
		v2.4c0,1.6,0.7,2.6,2.2,2.6c1.4,0,2-0.9,2.4-1.9l2.8,1.2c-0.8,2.4-2.6,3.5-5.1,3.5C989.7,389.1,987.6,386.5,987.6,382.5z"/>
	<path class="st13" d="M1000.8,388.8v-12.6h3.6v2.7h0.1c0.3-1.4,1.2-2.7,3.2-2.7h0.6v3.3h-0.9c-2.1,0-3.1,0.5-3.1,1.9v7.4
		L1000.8,388.8L1000.8,388.8z"/>
	<path class="st13" d="M1009.6,382.5c0-4.1,2.2-6.6,5.9-6.6s5.9,2.5,5.9,6.6s-2.2,6.6-5.9,6.6S1009.6,386.5,1009.6,382.5z
		 M1017.7,383.8v-2.6c0-1.6-0.8-2.5-2.2-2.5s-2.2,0.9-2.2,2.5v2.6c0,1.6,0.8,2.5,2.2,2.5S1017.7,385.4,1017.7,383.8z"/>
	<path class="st13" d="M913.8,420.8v-2h4.1v-11h-0.2l-3.4,3.6l-1.4-1.3l3.7-4.1h3.6v12.7h3.6v2L913.8,420.8L913.8,420.8z"/>
	<path class="st13" d="M936,420.8h-10v-2.3l4.7-4.2c1.5-1.3,2.3-2.5,2.3-3.8v-0.3c0-1.4-0.9-2.3-2.4-2.3c-1.6,0-2.4,1-2.8,2.3
		l-2.1-0.8c0.6-1.8,2.1-3.6,5-3.6c3,0,4.7,1.8,4.7,4.3c0,2.4-1.6,3.9-3.5,5.6l-3.4,3h7.4L936,420.8L936,420.8z"/>
	<path class="st13" d="M938.9,411.4v-0.3c0-0.8,0.5-1.4,1.5-1.4s1.5,0.6,1.5,1.4v0.3c0,0.8-0.5,1.4-1.5,1.4S938.9,412.2,938.9,411.4
		z M938.9,419.6v-0.3c0-0.8,0.5-1.4,1.5-1.4s1.5,0.6,1.5,1.4v0.3c0,0.8-0.5,1.4-1.5,1.4S938.9,420.4,938.9,419.6z"/>
	<path class="st13" d="M944.7,413.5c0-4.8,1.7-7.6,5.3-7.6c3.7,0,5.3,2.8,5.3,7.6s-1.7,7.6-5.3,7.6S944.7,418.3,944.7,413.5z
		 M952.8,414.8v-2.6c0-2.6-0.8-4.3-2.8-4.3s-2.8,1.7-2.8,4.3v2.6c0,2.6,0.8,4.3,2.8,4.3C952,419,952.8,417.3,952.8,414.8z"/>
	<path class="st13" d="M957.3,413.5c0-4.8,1.7-7.6,5.3-7.6s5.3,2.8,5.3,7.6s-1.7,7.6-5.3,7.6S957.3,418.3,957.3,413.5z M965.4,414.8
		v-2.6c0-2.6-0.8-4.3-2.8-4.3s-2.8,1.7-2.8,4.3v2.6c0,2.6,0.8,4.3,2.8,4.3S965.4,417.3,965.4,414.8z"/>
	<path class="st13" d="M970.7,420.8v-14.7h6.3c2.7,0,4.3,1.7,4.3,4.4s-1.6,4.4-4.3,4.4h-3.9v5.8h-2.4L970.7,420.8L970.7,420.8z
		 M973.1,412.9h3.8c1.2,0,1.9-0.7,1.9-1.8v-1c0-1.2-0.7-1.8-1.9-1.8h-3.8V412.9z"/>
	<path class="st13" d="M983.9,406.1h2.8l3.9,7.5h0.1l3.9-7.5h2.7v14.7H995v-11.2l0,0l-1.2,2.4l-3.2,5.9l-3.2-5.9l-1.2-2.4h-0.1v11.2
		h-2.3v-14.7H983.9z"/>
	<path class="st13" d="M1005.4,415.6v-2.3h5.8v2.3H1005.4z"/>
	<path class="st13" d="M1023,412.2c1.8,0,2.7-0.9,2.7-2.1V410c0-1.3-0.9-2.1-2.3-2.1c-1.4,0-2.4,0.7-3,1.8l-1.6-1.4
		c0.9-1.3,2.2-2.4,4.7-2.4c2.8,0,4.8,1.4,4.8,3.8c0,1.9-1.3,3-2.8,3.4v0.1c1.7,0.3,3.1,1.5,3.1,3.6c0,2.6-2.1,4.3-5.2,4.3
		c-2.7,0-4.1-1.3-5-2.6l1.7-1.4c0.7,1.2,1.6,2,3.3,2c1.8,0,2.8-0.9,2.8-2.4v-0.1c0-1.5-1-2.3-2.9-2.3h-1.6v-2L1023,412.2L1023,412.2
		z"/>
	<path class="st13" d="M1031.8,411.4v-0.3c0-0.8,0.5-1.4,1.5-1.4s1.5,0.6,1.5,1.4v0.3c0,0.8-0.5,1.4-1.5,1.4
		S1031.8,412.2,1031.8,411.4z M1031.8,419.6v-0.3c0-0.8,0.5-1.4,1.5-1.4s1.5,0.6,1.5,1.4v0.3c0,0.8-0.5,1.4-1.5,1.4
		S1031.8,420.4,1031.8,419.6z"/>
	<path class="st13" d="M1037.6,413.5c0-4.8,1.7-7.6,5.3-7.6s5.3,2.8,5.3,7.6s-1.7,7.6-5.3,7.6S1037.6,418.3,1037.6,413.5z
		 M1045.7,414.8v-2.6c0-2.6-0.8-4.3-2.8-4.3s-2.8,1.7-2.8,4.3v2.6c0,2.6,0.8,4.3,2.8,4.3S1045.7,417.3,1045.7,414.8z"/>
	<path class="st13" d="M1050.2,413.5c0-4.8,1.7-7.6,5.3-7.6s5.3,2.8,5.3,7.6s-1.7,7.6-5.3,7.6S1050.2,418.3,1050.2,413.5z
		 M1058.3,414.8v-2.6c0-2.6-0.8-4.3-2.8-4.3s-2.8,1.7-2.8,4.3v2.6c0,2.6,0.8,4.3,2.8,4.3S1058.3,417.3,1058.3,414.8z"/>
	<path class="st13" d="M1063.6,420.8v-14.7h6.3c2.7,0,4.3,1.7,4.3,4.4s-1.6,4.4-4.3,4.4h-3.9v5.8h-2.4V420.8z M1066,412.9h3.8
		c1.2,0,1.9-0.7,1.9-1.8v-1c0-1.2-0.7-1.8-1.9-1.8h-3.8V412.9z"/>
	<path class="st13" d="M1076.8,406.1h2.8l3.9,7.5h0.1l3.9-7.5h2.7v14.7h-2.3v-11.2h-0.1l-1.2,2.4l-3.2,5.9l-3.2-5.9l-1.2-2.4h-0.1
		v11.2h-2.3v-14.7H1076.8z"/>
	<path class="st13" d="M915.7,440.2v7.7c0,2,0.7,3,2.5,3s2.5-1,2.5-3v-7.7h2.3v7.4c0,3.7-1.3,5.4-4.8,5.4s-4.8-1.7-4.8-5.4v-7.4
		H915.7z"/>
	<path class="st13" d="M925.8,452.8v-9.4h2.3v1.6h0.1c0.4-1,1.2-1.8,2.6-1.8c1.9,0,3,1.3,3,3.7v5.9h-2.3v-5.7c0-1.3-0.5-2-1.5-2
		s-1.9,0.5-1.9,1.5v6.2L925.8,452.8L925.8,452.8z"/>
	<path class="st13" d="M936.1,440.9v-0.4c0-0.7,0.4-1.2,1.3-1.2c0.9,0,1.4,0.5,1.4,1.2v0.4c0,0.7-0.4,1.2-1.4,1.2
		C936.5,442,936.1,441.5,936.1,440.9z M936.3,443.4h2.3v9.4h-2.3V443.4z"/>
	<path class="st13" d="M943.3,452.8l-3.1-9.4h2.3l1.3,4.1l0.9,3.3h0.1l0.9-3.3l1.3-4.1h2.2l-3.2,9.4H943.3z"/>
	<path class="st13" d="M950,448.1c0-3,1.6-4.9,4.4-4.9c2.9,0,4.3,2.2,4.3,4.7v0.8h-6.2v0.2c0,1.4,0.8,2.3,2.3,2.3
		c1.1,0,1.8-0.5,2.4-1.3l1.2,1.4c-0.8,1.1-2.1,1.7-3.9,1.7C951.6,453,950,451.1,950,448.1z M952.4,447.1v0.1h3.9V447
		c0-1.3-0.7-2.2-1.9-2.2C953.1,444.9,952.4,445.8,952.4,447.1z"/>
	<path class="st13" d="M960.6,452.8v-9.4h2.3v1.9h0.1c0.2-1,1-1.9,2.5-1.9h0.5v2.2h-0.7c-1.5,0-2.4,0.4-2.4,1.5v5.8h-2.3
		L960.6,452.8L960.6,452.8z"/>
	<path class="st13" d="M967.5,446.6c0-4.2,2.1-6.6,5.4-6.6c2.3,0,3.7,1,4.6,2.9l-2,1.1c-0.4-1.1-1.2-1.9-2.6-1.9
		c-1.8,0-2.9,1.3-2.9,3.4v2c0,2.2,1.1,3.4,2.9,3.4c1.4,0,2.3-0.9,2.7-2l1.9,1.1c-0.9,1.9-2.4,3-4.6,3
		C969.6,453,967.5,450.8,967.5,446.6z"/>
	<path class="st13" d="M979.2,440.9v-0.4c0-0.7,0.4-1.2,1.4-1.2c0.9,0,1.3,0.5,1.3,1.2v0.4c0,0.7-0.4,1.2-1.3,1.2
		C979.6,442,979.2,441.5,979.2,440.9z M979.4,443.4h2.3v9.4h-2.3V443.4z"/>
	<path class="st13" d="M984.9,450.4v-5.2h-1.4v-1.8h0.7c0.7,0,0.9-0.3,0.9-1v-1.6h2.1v2.6h1.9v1.8h-1.9v5.7h1.8v1.8h-1.7
		C985.8,452.8,984.9,451.9,984.9,450.4z"/>
	<path class="st13" d="M996.9,443.4h2.2l-3.8,11.1c-0.5,1.4-1.1,1.9-2.7,1.9h-1.4v-1.8h1.7l0.4-1.3l-3.4-9.8h2.3l1.6,5l0.6,2.4h0.1
		l0.6-2.4L996.9,443.4z"/>
</g>
<g>
	<path class="st13" d="M1172.1,808l6.1-14.5h-6.3v3.1h-2.3v-5.3h11.4v2.4l-6,14.3H1172.1z"/>
	<path class="st13" d="M1184.1,806.7v-0.4c0-0.9,0.6-1.6,1.8-1.6c1.2,0,1.8,0.7,1.8,1.6v0.4c0,0.9-0.6,1.6-1.8,1.6
		S1184.1,807.6,1184.1,806.7z"/>
	<path class="st13" d="M1182.4,825.8L1182.4,825.8l-1.3,2.4l-3.3,5.9l-3.2-5.9l-1.3-2.6h-0.1v11.2h-3.4V820h3.9l4.1,7.8l0,0l4.1-7.8
		h3.9v16.8h-3.4L1182.4,825.8L1182.4,825.8z"/>
	<path class="st13" d="M1189,821.1v-0.5c0-1,0.6-1.8,2.1-1.8c1.4,0,2.1,0.7,2.1,1.8v0.5c0,1-0.6,1.8-2.1,1.8
		C1189.6,822.9,1189,822.1,1189,821.1z M1189.3,824.2h3.6v12.6h-3.6V824.2z"/>
	<path class="st13" d="M1203.9,834.7L1203.9,834.7c-0.5,1.4-1.9,2.4-3.5,2.4c-3.2,0-4.8-2.3-4.8-6.6s1.7-6.6,4.8-6.6
		c1.6,0,3,1,3.4,2.4h0.1V819h3.6v17.8h-3.6V834.7z M1203.9,832.4v-3.7c0-1.2-1-1.8-2.3-1.8s-2.3,1-2.3,2.6v2.2c0,1.6,1,2.6,2.3,2.6
		S1203.9,833.5,1203.9,832.4z"/>
	<path class="st13" d="M1210.8,836.8v-12.6h3.6v2.1h0.1c0.5-1.3,1.5-2.4,3.5-2.4c2.6,0,3.9,1.8,3.9,5v7.9h-3.6v-7.6
		c0-1.6-0.5-2.4-1.8-2.4c-1.2,0-2.3,0.6-2.3,1.8v8.2H1210.8z"/>
	<path class="st13" d="M1224.8,821.1v-0.5c0-1,0.6-1.8,2.1-1.8c1.4,0,2.1,0.7,2.1,1.8v0.5c0,1-0.6,1.8-2.1,1.8
		C1225.4,822.9,1224.8,822.1,1224.8,821.1z M1225.1,824.2h3.6v12.6h-3.6V824.2z"/>
	<path class="st13" d="M1236.8,841.9c-4.4,0-6-1.1-6-2.9c0-1.4,0.9-2.2,2.4-2.4v-0.3c-1.2-0.2-1.8-1.1-1.8-2.2c0-1.3,1.2-2,2.4-2.2
		v-0.1c-1.5-0.7-2.3-2-2.3-3.6c0-2.5,1.8-4.2,5.4-4.2c0.8,0,1.5,0.1,2.1,0.2v-0.5c0-1.3,0.7-1.9,1.9-1.9h2v2.6h-2.8v0.1
		c1.5,0.7,2.2,2,2.2,3.6c0,2.5-1.8,4.2-5.4,4.2c-0.8,0-1.6-0.1-2.2-0.3c-0.3,0.2-0.6,0.6-0.6,1c0,0.6,0.4,1,1.5,1h3.6
		c3.1,0,4.4,1.3,4.4,3.7C1243.6,840.4,1241.9,841.9,1236.8,841.9z M1238.3,837.1h-4.3c-0.3,0.3-0.5,0.7-0.5,1.1
		c0,0.9,0.7,1.3,2.6,1.3h1.4c1.9,0,2.6-0.4,2.6-1.3C1240.3,837.5,1239.7,837.1,1238.3,837.1z M1238.9,828.3V828
		c0-1.1-0.7-1.7-2.1-1.7s-2.1,0.6-2.1,1.7v0.3c0,1.1,0.7,1.7,2.1,1.7C1238.2,830,1238.9,829.4,1238.9,828.3z"/>
	<path class="st13" d="M1245.2,819h3.6v7.3h0.1c0.5-1.3,1.5-2.4,3.5-2.4c2.6,0,3.9,1.8,3.9,5v7.9h-3.6v-7.6c0-1.6-0.5-2.4-1.8-2.4
		c-1.2,0-2.3,0.6-2.3,1.8v8.2h-3.6V819H1245.2z"/>
	<path class="st13" d="M1263.9,836.8c-2.4,0-3.7-1.3-3.7-3.7V827h-1.8v-2.8h0.9c1,0,1.2-0.5,1.2-1.3v-2.1h3.2v3.4h2.5v2.8h-2.5v7.1
		h2.3v2.8h-2.1V836.8z"/>
	<path class="st13" d="M1287.1,825.8L1287.1,825.8l-1.3,2.4l-3.3,5.9l-3.2-5.9l-1.3-2.6h-0.1v11.2h-3.4V820h3.9l4.1,7.8l0,0l4.1-7.8
		h3.9v16.8h-3.4L1287.1,825.8L1287.1,825.8z"/>
	<path class="st13" d="M1303.3,836.8c-1.3,0-2.2-0.9-2.4-2.2h-0.1c-0.4,1.6-1.8,2.5-3.7,2.5c-2.5,0-3.9-1.5-3.9-3.7
		c0-2.7,2.1-3.9,5.4-3.9h2v-0.8c0-1.2-0.6-2-2.1-2c-1.4,0-2.2,0.7-2.7,1.5l-2.1-1.9c1-1.5,2.4-2.4,5.1-2.4c3.6,0,5.4,1.6,5.4,4.6
		v5.5h1.2v2.8L1303.3,836.8L1303.3,836.8z M1300.6,833v-1.5h-1.7c-1.4,0-2.1,0.5-2.1,1.4v0.4c0,0.9,0.6,1.3,1.7,1.3
		C1299.6,834.6,1300.6,834.1,1300.6,833z"/>
	<path class="st13" d="M1315.4,834.7L1315.4,834.7c-0.5,1.4-1.9,2.4-3.5,2.4c-3.2,0-4.8-2.3-4.8-6.6s1.7-6.6,4.8-6.6
		c1.6,0,3,1,3.4,2.4h0.1V819h3.6v17.8h-3.6V834.7z M1315.4,832.4v-3.7c0-1.2-1-1.8-2.3-1.8s-2.3,1-2.3,2.6v2.2c0,1.6,1,2.6,2.3,2.6
		C1314.4,834.2,1315.4,833.5,1315.4,832.4z"/>
	<path class="st13" d="M1322.2,836.8v-12.6h3.6v2.1h0.1c0.5-1.3,1.5-2.4,3.5-2.4c2.6,0,3.9,1.8,3.9,5v7.9h-3.6v-7.6
		c0-1.6-0.5-2.4-1.8-2.4c-1.2,0-2.3,0.6-2.3,1.8v8.2H1322.2z"/>
	<path class="st13" d="M1335.8,830.5c0-4,2.1-6.6,5.9-6.6c4.2,0,5.9,3,5.9,6.4v1.1h-8.1v0.2c0,1.7,0.9,2.7,2.8,2.7
		c1.5,0,2.3-0.7,3.1-1.5l1.8,2.2c-1.1,1.3-3,2.1-5.3,2.1C1337.9,837.1,1335.8,834.5,1335.8,830.5z M1339.4,829.1v0.2h4.4v-0.2
		c0-1.5-0.7-2.6-2.1-2.6S1339.4,827.6,1339.4,829.1z"/>
	<path class="st13" d="M1349,834.8l2.1-2.1c0.9,1,2,1.6,3.3,1.6c1.4,0,1.9-0.5,1.9-1.2c0-0.6-0.4-0.9-1.3-1.1l-1.4-0.2
		c-2.9-0.4-4.2-1.6-4.2-3.9c0-2.4,1.9-4.1,4.9-4.1c2.6,0,3.9,0.7,5.1,2l-2,2.1c-0.8-0.8-1.8-1.3-2.9-1.3c-1.2,0-1.7,0.4-1.7,1.1
		c0,0.7,0.3,1,1.3,1.2l1.4,0.2c2.7,0.4,4.2,1.6,4.2,3.8c0,2.4-2.2,4.2-5.4,4.2C1351.9,837.1,1350.3,836.3,1349,834.8z"/>
	<path class="st13" d="M1360.9,834.8l2.1-2.1c0.9,1,2,1.6,3.3,1.6c1.4,0,1.9-0.5,1.9-1.2c0-0.6-0.4-0.9-1.3-1.1l-1.4-0.2
		c-2.9-0.4-4.2-1.6-4.2-3.9c0-2.4,1.9-4.1,4.9-4.1c2.6,0,3.9,0.7,5.1,2l-2,2.1c-0.8-0.8-1.8-1.3-2.9-1.3c-1.2,0-1.7,0.4-1.7,1.1
		c0,0.7,0.3,1,1.3,1.2l1.4,0.2c2.7,0.4,4.2,1.6,4.2,3.8c0,2.4-2.2,4.2-5.4,4.2C1363.8,837.1,1362.2,836.3,1360.9,834.8z"/>
	<path class="st13" d="M1171.6,868.8l5.3-12.7h-5.5v2.7h-2v-4.7h9.9v2.1l-5.2,12.6L1171.6,868.8L1171.6,868.8z"/>
	<path class="st13" d="M1182.3,859.4v-0.3c0-0.8,0.5-1.4,1.5-1.4s1.5,0.6,1.5,1.4v0.3c0,0.8-0.5,1.4-1.5,1.4
		C1182.8,860.8,1182.3,860.2,1182.3,859.4z M1182.3,867.6v-0.3c0-0.8,0.5-1.4,1.5-1.4s1.5,0.6,1.5,1.4v0.3c0,0.8-0.5,1.4-1.5,1.4
		C1182.8,869.1,1182.3,868.4,1182.3,867.6z"/>
	<path class="st13" d="M1188.1,861.5c0-4.8,1.7-7.6,5.3-7.6c3.7,0,5.3,2.8,5.3,7.6s-1.7,7.6-5.3,7.6
		C1189.8,869.1,1188.1,866.3,1188.1,861.5z M1196.2,862.8v-2.6c0-2.6-0.8-4.3-2.8-4.3s-2.8,1.7-2.8,4.3v2.6c0,2.6,0.8,4.3,2.8,4.3
		C1195.4,867,1196.2,865.3,1196.2,862.8z"/>
	<path class="st13" d="M1200.7,861.5c0-4.8,1.7-7.6,5.3-7.6c3.7,0,5.3,2.8,5.3,7.6s-1.7,7.6-5.3,7.6
		C1202.4,869.1,1200.7,866.3,1200.7,861.5z M1208.8,862.8v-2.6c0-2.6-0.8-4.3-2.8-4.3s-2.8,1.7-2.8,4.3v2.6c0,2.6,0.8,4.3,2.8,4.3
		C1208,867,1208.8,865.3,1208.8,862.8z"/>
	<path class="st13" d="M1214.1,868.8v-14.7h6.3c2.7,0,4.3,1.7,4.3,4.4s-1.6,4.4-4.3,4.4h-3.9v5.8L1214.1,868.8L1214.1,868.8z
		 M1216.5,860.9h3.8c1.2,0,1.9-0.7,1.9-1.8v-1c0-1.2-0.7-1.8-1.9-1.8h-3.8V860.9z"/>
	<path class="st13" d="M1227.3,854.1h2.8l3.9,7.5h0.1l3.9-7.5h2.7v14.7h-2.3v-11.2h-0.1l-1.2,2.4l-3.2,5.9l-3.2-5.9l-1.2-2.4h-0.1
		v11.2h-2.3v-14.7H1227.3z"/>
	<path class="st13" d="M1248.8,863.6v-2.3h5.8v2.3H1248.8z"/>
	<path class="st13" d="M1264.5,868.8l5.3-12.7h-5.5v2.7h-2v-4.7h9.9v2.1l-5.2,12.6L1264.5,868.8L1264.5,868.8z"/>
	<path class="st13" d="M1275.2,859.4v-0.3c0-0.8,0.5-1.4,1.5-1.4s1.5,0.6,1.5,1.4v0.3c0,0.8-0.5,1.4-1.5,1.4
		S1275.2,860.2,1275.2,859.4z M1275.2,867.6v-0.3c0-0.8,0.5-1.4,1.5-1.4s1.5,0.6,1.5,1.4v0.3c0,0.8-0.5,1.4-1.5,1.4
		S1275.2,868.4,1275.2,867.6z"/>
	<path class="st13" d="M1281,861.5c0-4.8,1.7-7.6,5.3-7.6c3.7,0,5.3,2.8,5.3,7.6s-1.7,7.6-5.3,7.6S1281,866.3,1281,861.5z
		 M1289.1,862.8v-2.6c0-2.6-0.8-4.3-2.8-4.3s-2.8,1.7-2.8,4.3v2.6c0,2.6,0.8,4.3,2.8,4.3C1288.3,867,1289.1,865.3,1289.1,862.8z"/>
	<path class="st13" d="M1293.6,861.5c0-4.8,1.7-7.6,5.3-7.6s5.3,2.8,5.3,7.6s-1.7,7.6-5.3,7.6S1293.6,866.3,1293.6,861.5z
		 M1301.7,862.8v-2.6c0-2.6-0.8-4.3-2.8-4.3s-2.8,1.7-2.8,4.3v2.6c0,2.6,0.8,4.3,2.8,4.3S1301.7,865.3,1301.7,862.8z"/>
	<path class="st13" d="M1316.2,868.8l-1.3-4h-5.5l-1.3,4h-2.4l5-14.7h3l5,14.7H1316.2z M1312.2,856.3L1312.2,856.3l-2.2,6.5h4.3
		L1312.2,856.3z"/>
	<path class="st13" d="M1320.9,854.1h2.8l3.9,7.5h0.1l3.9-7.5h2.7v14.7h-2.3v-11.2h-0.1l-1.2,2.4l-3.2,5.9l-3.2-5.9l-1.2-2.4h-0.1
		v11.2h-2.3v-14.7H1320.9z"/>
	<path class="st13" d="M1177.3,900.8l-1-3.2h-4.5l-1,3.2h-2.4l4.2-12.6h3l4.2,12.6H1177.3z M1174,890.4L1174,890.4l-1.7,5.2h3.3
		L1174,890.4z"/>
	<path class="st13" d="M1183.7,900.8c-1.6,0-2.3-0.8-2.3-2.3v-11.1h2.3V899h1.2v1.8H1183.7z"/>
	<path class="st13" d="M1188.9,900.8c-1.6,0-2.3-0.8-2.3-2.3v-11.1h2.3V899h1.2v1.8H1188.9z"/>
	<path class="st13" d="M1195.5,896.1c0-3,1.7-4.9,4.4-4.9c2.7,0,4.4,1.9,4.4,4.9s-1.7,4.9-4.4,4.9S1195.5,899.1,1195.5,896.1z
		 M1201.8,897v-1.7c0-1.4-0.8-2.2-2-2.2s-1.9,0.8-1.9,2.2v1.7c0,1.4,0.8,2.2,1.9,2.2C1201.1,899.2,1201.8,898.4,1201.8,897z"/>
	<path class="st13" d="M1208.1,900.8l-3.1-9.4h2.3l1.3,4.1l0.9,3.3h0.1l0.9-3.3l1.3-4.1h2.2l-3.2,9.4H1208.1z"/>
	<path class="st13" d="M1214.8,896.1c0-3,1.6-4.9,4.4-4.9c2.9,0,4.3,2.2,4.3,4.7v0.8h-6.2v0.2c0,1.4,0.8,2.3,2.3,2.3
		c1.1,0,1.8-0.5,2.4-1.3l1.2,1.4c-0.8,1.1-2.1,1.7-3.9,1.7C1216.4,901,1214.8,899.1,1214.8,896.1z M1217.2,895.1L1217.2,895.1
		l3.9,0.1V895c0-1.3-0.7-2.2-1.9-2.2C1218,892.9,1217.2,893.8,1217.2,895.1z"/>
	<path class="st13" d="M1225.5,900.8v-9.4h2.3v1.9h0.1c0.2-1,1-1.9,2.5-1.9h0.5v2.2h-0.7c-1.5,0-2.4,0.4-2.4,1.5v5.8L1225.5,900.8
		L1225.5,900.8z"/>
	<path class="st13" d="M1237.3,898.4v-5.2h-1.4v-1.8h0.7c0.7,0,0.9-0.3,0.9-1v-1.6h2.1v2.6h1.9v1.8h-1.9v5.7h1.8v1.8h-1.7
		C1238.1,900.8,1237.3,899.9,1237.3,898.4z"/>
	<path class="st13" d="M1243.5,887.5h2.3v5.5h0.1c0.4-1,1.2-1.8,2.6-1.8c1.9,0,3,1.3,3,3.7v5.9h-2.3v-5.7c0-1.3-0.4-2-1.5-2
		c-1,0-1.9,0.5-1.9,1.5v6.2h-2.3L1243.5,887.5L1243.5,887.5z"/>
	<path class="st13" d="M1253.5,896.1c0-3,1.6-4.9,4.4-4.9c2.9,0,4.3,2.2,4.3,4.7v0.8h-6.2v0.2c0,1.4,0.8,2.3,2.3,2.3
		c1.1,0,1.8-0.5,2.4-1.3l1.2,1.4c-0.8,1.1-2.1,1.7-3.9,1.7C1255.1,901,1253.5,899.1,1253.5,896.1z M1255.9,895.1L1255.9,895.1
		l3.9,0.1V895c0-1.3-0.7-2.2-1.9-2.2C1256.7,892.9,1255.9,893.8,1255.9,895.1z"/>
	<path class="st13" d="M1267.8,898.9l1.6-1.5c0.9,1,1.9,1.5,3.2,1.5c1.5,0,2.2-0.7,2.2-1.8c0-0.8-0.4-1.4-1.7-1.6l-1.2-0.2
		c-2.5-0.4-3.8-1.6-3.8-3.7c0-2.2,1.7-3.7,4.6-3.7c1.9,0,3.3,0.6,4.3,1.9l-1.6,1.5c-0.6-0.8-1.5-1.3-2.8-1.3c-1.4,0-2.1,0.5-2.1,1.5
		s0.5,1.4,1.7,1.6l1.2,0.2c2.5,0.5,3.7,1.6,3.7,3.7c0,2.4-1.7,4-4.7,4C1270.3,901,1268.8,900.2,1267.8,898.9z"/>
	<path class="st13" d="M1279.5,900.8v-12.6h8.1v2.1h-5.7v3h5v2.1h-5v5.3h-2.4V900.8z"/>
	<path class="st13" d="M1292.2,888.2v7.7c0,2,0.7,3,2.5,3s2.5-1,2.5-3v-7.7h2.3v7.4c0,3.7-1.3,5.4-4.8,5.4s-4.8-1.7-4.8-5.4v-7.4
		H1292.2z"/>
	<path class="st13" d="M1306.6,888.2h5.8c2.1,0,3.3,1.3,3.3,3.2s-1.1,2.6-2.2,2.7v0.1c1.1,0,2.7,0.8,2.7,2.9c0,2-1.4,3.6-3.2,3.6
		h-6.4L1306.6,888.2L1306.6,888.2z M1309,893.5h2.9c0.9,0,1.4-0.5,1.4-1.3v-0.6c0-0.8-0.5-1.3-1.4-1.3h-2.9V893.5z M1309,898.8h3.3
		c0.9,0,1.4-0.5,1.4-1.4v-0.6c0-0.9-0.5-1.4-1.4-1.4h-3.3V898.8z"/>
	<path class="st13" d="M1324,899.2L1324,899.2c-0.4,0.9-1.2,1.8-2.7,1.8c-1.9,0-3-1.3-3-3.7v-5.9h2.3v5.7c0,1.3,0.5,2,1.6,2
		c0.9,0,1.8-0.5,1.8-1.5v-6.2h2.3v9.4h-2.3L1324,899.2L1324,899.2z"/>
	<path class="st13" d="M1329,900.8v-9.4h2.3v1.9h0.1c0.2-1,1-1.9,2.5-1.9h0.5v2.2h-0.7c-1.5,0-2.4,0.4-2.4,1.5v5.8L1329,900.8
		L1329,900.8z"/>
	<path class="st13" d="M1336,900.8v-9.4h2.3v1.6h0.1c0.4-1,1.2-1.8,2.6-1.8c1.9,0,3,1.3,3,3.7v5.9h-2.3v-5.7c0-1.3-0.5-2-1.5-2
		s-1.9,0.5-1.9,1.5v6.2H1336z"/>
	<path class="st13" d="M1345.9,898.2c0-1.9,1.5-2.9,4-2.9h1.6v-0.7c0-1-0.5-1.7-1.7-1.7c-1.1,0-1.7,0.5-2.1,1.2l-1.4-1.2
		c0.7-1.1,1.8-1.8,3.7-1.8c2.5,0,3.9,1.2,3.9,3.3v4.4h0.9v1.8h-1.3c-1,0-1.6-0.6-1.7-1.6h-0.1c-0.3,1.2-1.3,1.8-2.7,1.8
		C1347,901,1345.9,899.9,1345.9,898.2z M1351.6,898v-1.2h-1.5c-1.2,0-1.8,0.4-1.8,1.2v0.3c0,0.8,0.5,1.1,1.4,1.1
		C1350.7,899.3,1351.6,898.9,1351.6,898z"/>
	<path class="st13" d="M1356.7,887.5h2.3v5.5h0.1c0.3-1.1,1.4-1.8,2.6-1.8c2.4,0,3.7,1.8,3.7,4.9c0,3.2-1.3,4.9-3.7,4.9
		c-1.2,0-2.2-0.7-2.6-1.8h-0.1v1.6h-2.3V887.5z M1362.9,896.9v-1.6c0-1.3-0.8-2.2-2-2.2c-1.1,0-1.9,0.6-1.9,1.5v3
		c0,1,0.8,1.5,1.9,1.5C1362.1,899.1,1362.9,898.2,1362.9,896.9z"/>
	<path class="st13" d="M1373.1,891.4h2.2l-3.8,11.1c-0.5,1.3-1.1,1.9-2.7,1.9h-1.4v-1.8h1.7l0.4-1.3l-3.4-9.8h2.3l1.6,5l0.6,2.4h0.1
		l0.6-2.4L1373.1,891.4z"/>
	<path class="st13" d="M1168.7,917.1c0-3,1.6-4.9,4.3-4.9c1.9,0,3.1,0.9,3.7,2.4l-1.9,0.8c-0.2-0.8-0.8-1.4-1.8-1.4
		c-1.3,0-1.9,0.9-1.9,2.2v1.7c0,1.3,0.6,2.2,1.9,2.2c1.1,0,1.6-0.6,2-1.5l1.8,0.8c-0.6,1.7-1.9,2.5-3.7,2.5
		C1170.3,922,1168.7,920.1,1168.7,917.1z"/>
	<path class="st13" d="M1177.9,919.2c0-1.9,1.5-2.9,4-2.9h1.6v-0.7c0-1-0.5-1.7-1.7-1.7c-1.1,0-1.7,0.5-2.1,1.2l-1.4-1.2
		c0.7-1.1,1.8-1.8,3.7-1.8c2.5,0,3.9,1.2,3.9,3.3v4.4h0.9v1.8h-1.3c-1,0-1.6-0.6-1.7-1.6h-0.1c-0.3,1.2-1.3,1.8-2.7,1.8
		C1179,922,1177.9,920.9,1177.9,919.2z M1183.5,919v-1.2h-1.5c-1.2,0-1.8,0.4-1.8,1.2v0.3c0,0.8,0.5,1.1,1.4,1.1
		C1182.7,920.3,1183.5,919.9,1183.5,919z"/>
	<path class="st13" d="M1188.6,921.8v-9.4h2.3v1.6h0.1c0.4-1,1.1-1.8,2.5-1.8c1.3,0,2.3,0.6,2.7,1.9l0,0c0.3-1,1.4-1.9,2.9-1.9
		c1.8,0,2.9,1.3,2.9,3.7v5.9h-2.3v-5.7c0-1.3-0.5-2-1.5-2c-0.9,0-1.7,0.5-1.7,1.5v6.2h-2.3v-5.7c0-1.3-0.5-2-1.5-2
		c-0.9,0-1.7,0.5-1.7,1.5v6.2H1188.6z"/>
	<path class="st13" d="M1204.6,912.4h2.3v1.5h0.1c0.3-1.1,1.4-1.8,2.6-1.8c2.4,0,3.7,1.8,3.7,4.9c0,3.2-1.3,4.9-3.7,4.9
		c-1.2,0-2.2-0.7-2.6-1.8h-0.1v5.2h-2.3V912.4z M1210.9,917.9v-1.6c0-1.3-0.8-2.2-2-2.2c-1.1,0-1.9,0.6-1.9,1.5v3
		c0,1,0.8,1.5,1.9,1.5C1210,920.1,1210.9,919.2,1210.9,917.9z"/>
	<path class="st13" d="M1221,920.2L1221,920.2c-0.4,0.9-1.2,1.8-2.7,1.8c-1.9,0-3-1.3-3-3.7v-5.9h2.3v5.7c0,1.3,0.5,2,1.6,2
		c0.9,0,1.8-0.5,1.8-1.5v-6.2h2.3v9.4h-2.3L1221,920.2L1221,920.2z"/>
	<path class="st13" d="M1225.2,920.3l1.4-1.4c0.7,0.8,1.5,1.3,2.6,1.3s1.6-0.4,1.6-1.1c0-0.5-0.3-0.9-1.2-1l-0.9-0.1
		c-2-0.3-3.1-1.1-3.1-2.8c0-1.8,1.4-3,3.6-3c1.8,0,2.8,0.5,3.7,1.5l-1.4,1.4c-0.5-0.6-1.3-1-2.2-1c-1,0-1.4,0.4-1.4,1
		s0.3,0.9,1.2,1.1l1,0.1c2.1,0.3,3,1.2,3,2.8c0,1.8-1.5,3.1-3.9,3.1C1227.3,922,1226.1,921.4,1225.2,920.3z"/>
	<path class="st13" d="M1234.8,920.7v-0.3c0-0.8,0.5-1.3,1.4-1.3c1,0,1.4,0.6,1.4,1.3v0.3c0,0.8-0.5,1.3-1.4,1.3
		C1235.2,922,1234.8,921.4,1234.8,920.7z"/>
</g>
<g>
	<path class="st13" d="M920.6,200v-3.3h-7.8v-2.3l6.8-11.2h3.6v11.4h2.3v2.1h-2.3v3.3H920.6z M915.1,194.6h5.5v-8.9h-0.2
		L915.1,194.6z"/>
	<path class="st13" d="M928.1,198.7v-0.4c0-0.9,0.6-1.6,1.8-1.6s1.8,0.7,1.8,1.6v0.4c0,0.9-0.6,1.6-1.8,1.6
		C928.7,200.3,928.1,199.6,928.1,198.7z"/>
	<path class="st13" d="M913.2,228.8v-2.9h2.2V215h-2.2v-3h8v2.9H919v10.9h2.2v2.9h-8V228.8z"/>
	<path class="st13" d="M924,228.8v-12.6h3.6v2.1h0.1c0.5-1.3,1.5-2.4,3.5-2.4c2.6,0,3.9,1.8,3.9,5v7.9h-3.6v-7.6
		c0-1.6-0.5-2.4-1.8-2.4c-1.2,0-2.3,0.6-2.3,1.8v8.2H924z"/>
	<path class="st13" d="M939,219h-1.8v-2.8h1.8v-1.5c0-2.4,1.3-3.7,3.8-3.7h2.3v2.8h-2.5v2.4h2.5v2.8h-2.5v9.8H939V219z"/>
	<path class="st13" d="M946.1,222.5c0-4.1,2.2-6.6,5.9-6.6s5.9,2.5,5.9,6.6s-2.2,6.6-5.9,6.6S946.1,226.5,946.1,222.5z M954.2,223.8
		v-2.6c0-1.6-0.8-2.5-2.2-2.5s-2.2,0.9-2.2,2.5v2.6c0,1.6,0.8,2.5,2.2,2.5S954.2,225.4,954.2,223.8z"/>
	<path class="st13" d="M960.3,223.2v-3.5h7.1v3.5H960.3z"/>
	<path class="st13" d="M969.1,226.4l2.4-2.4c1.1,1.3,2.6,1.9,4.2,1.9c1.8,0,2.6-0.8,2.6-2c0-0.9-0.4-1.6-1.9-1.8l-1.7-0.2
		c-3.5-0.5-5.1-2.2-5.1-5c0-3,2.4-5.1,6.3-5.1c2.5,0,4.4,0.8,5.8,2.4l-2.4,2.4c-0.8-0.9-1.9-1.6-3.6-1.6c-1.6,0-2.4,0.6-2.4,1.6
		c0,1.2,0.6,1.6,2,1.8l1.7,0.3c3.4,0.6,5.1,2.1,5.1,5c0,3.2-2.4,5.4-6.5,5.4C972.6,229.1,970.6,228,969.1,226.4z"/>
	<path class="st13" d="M984,222.5c0-4,2.1-6.6,5.9-6.6c4.2,0,5.9,3,5.9,6.4v1.1h-8.1v0.2c0,1.7,0.9,2.7,2.8,2.7
		c1.5,0,2.3-0.7,3.1-1.5l1.8,2.2c-1.1,1.3-3,2.1-5.3,2.1C986.2,229.1,984,226.5,984,222.5z M987.7,221.1v0.2h4.4v-0.2
		c0-1.5-0.7-2.6-2.1-2.6C988.6,218.5,987.7,219.6,987.7,221.1z"/>
	<path class="st13" d="M997.3,226.8l2.1-2.1c0.9,1,2,1.6,3.3,1.6c1.4,0,1.9-0.5,1.9-1.2c0-0.6-0.4-0.9-1.3-1.1l-1.4-0.2
		c-2.9-0.4-4.2-1.6-4.2-3.9c0-2.4,1.9-4.1,4.9-4.1c2.6,0,3.9,0.7,5.1,2l-2,2.1c-0.8-0.8-1.8-1.3-2.9-1.3c-1.2,0-1.7,0.4-1.7,1.1
		c0,0.7,0.3,1,1.3,1.2l1.4,0.2c2.7,0.4,4.2,1.6,4.2,3.8c0,2.4-2.2,4.2-5.4,4.2C1000.2,229.1,998.6,228.3,997.3,226.8z"/>
	<path class="st13" d="M1009.2,226.8l2.1-2.1c0.9,1,2,1.6,3.3,1.6c1.4,0,1.9-0.5,1.9-1.2c0-0.6-0.4-0.9-1.3-1.1l-1.4-0.2
		c-2.9-0.4-4.2-1.6-4.2-3.9c0-2.4,1.9-4.1,4.9-4.1c2.6,0,3.9,0.7,5.1,2l-2,2.1c-0.8-0.8-1.8-1.3-2.9-1.3c-1.2,0-1.7,0.4-1.7,1.1
		c0,0.7,0.3,1,1.3,1.2l1.4,0.2c2.7,0.4,4.2,1.6,4.2,3.8c0,2.4-2.2,4.2-5.4,4.2C1012.1,229.1,1010.5,228.3,1009.2,226.8z"/>
	<path class="st13" d="M1022.1,213.1v-0.5c0-1,0.6-1.8,2.1-1.8c1.4,0,2.1,0.7,2.1,1.8v0.5c0,1-0.6,1.8-2.1,1.8
		C1022.7,214.9,1022.1,214.1,1022.1,213.1z M1022.4,216.2h3.6v12.6h-3.6V216.2z"/>
	<path class="st13" d="M1028.4,222.5c0-4.1,2.2-6.6,5.9-6.6s5.9,2.5,5.9,6.6s-2.2,6.6-5.9,6.6S1028.4,226.5,1028.4,222.5z
		 M1036.5,223.8v-2.6c0-1.6-0.8-2.5-2.2-2.5s-2.2,0.9-2.2,2.5v2.6c0,1.6,0.8,2.5,2.2,2.5S1036.5,225.4,1036.5,223.8z"/>
	<path class="st13" d="M1042.8,228.8v-12.6h3.6v2.1h0.1c0.5-1.3,1.5-2.4,3.5-2.4c2.6,0,3.9,1.8,3.9,5v7.9h-3.6v-7.6
		c0-1.6-0.5-2.4-1.8-2.4c-1.2,0-2.3,0.6-2.3,1.8v8.2H1042.8z"/>
	<path class="st13" d="M918.2,260.8H915c3.3-2.4,5.2-4.3,5.9-7.5h-0.1c-0.6,1.2-1.6,2.1-3.4,2.1c-2.5,0-4.3-1.8-4.3-4.5
		c0-2.9,2-5,5.1-5c3.2,0,5.2,2.2,5.2,5.7C923.4,255.8,920.6,259.2,918.2,260.8z M921,250.8v-0.3c0-1.7-1-2.7-2.7-2.7
		s-2.7,0.9-2.7,2.7v0.3c0,1.7,1,2.7,2.7,2.7S921,252.5,921,250.8z"/>
	<path class="st13" d="M926.3,251.4v-0.3c0-0.8,0.5-1.4,1.5-1.4s1.5,0.6,1.5,1.4v0.3c0,0.8-0.5,1.4-1.5,1.4
		C926.8,252.8,926.3,252.2,926.3,251.4z M926.3,259.6v-0.3c0-0.8,0.5-1.4,1.5-1.4s1.5,0.6,1.5,1.4v0.3c0,0.8-0.5,1.4-1.5,1.4
		C926.8,261.1,926.3,260.4,926.3,259.6z"/>
	<path class="st13" d="M936.6,252.2c1.8,0,2.7-0.9,2.7-2.1V250c0-1.3-0.9-2.1-2.3-2.1c-1.4,0-2.4,0.7-3,1.8l-1.6-1.4
		c0.9-1.3,2.2-2.4,4.7-2.4c2.8,0,4.8,1.4,4.8,3.8c0,1.9-1.3,3-2.8,3.4v0.1c1.7,0.3,3.1,1.5,3.1,3.6c0,2.6-2.1,4.3-5.2,4.3
		c-2.7,0-4.1-1.3-5-2.6l1.7-1.4c0.7,1.2,1.6,2,3.3,2c1.8,0,2.8-0.9,2.8-2.4v-0.1c0-1.5-1-2.3-2.9-2.3h-1.6v-2h1.3V252.2z"/>
	<path class="st13" d="M944.7,253.5c0-4.8,1.7-7.6,5.3-7.6c3.7,0,5.3,2.8,5.3,7.6c0,4.8-1.7,7.6-5.3,7.6S944.7,258.3,944.7,253.5z
		 M952.8,254.8v-2.6c0-2.6-0.8-4.3-2.8-4.3s-2.8,1.7-2.8,4.3v2.6c0,2.6,0.8,4.3,2.8,4.3C952,259,952.8,257.3,952.8,254.8z"/>
	<path class="st13" d="M967.3,260.8l-1.3-4h-5.5l-1.3,4h-2.4l5-14.7h3l5,14.7H967.3z M963.3,248.3L963.3,248.3l-2.2,6.5h4.3
		L963.3,248.3z"/>
	<path class="st13" d="M972,246.1h2.8l3.9,7.5h0.1l3.9-7.5h2.7v14.7h-2.3v-11.2H983l-1,2.4l-3.2,5.9l-3.2-5.9l-1.2-2.4h-0.1v11.2
		H972V246.1z"/>
	<path class="st13" d="M993.6,255.6v-2.3h5.8v2.3H993.6z"/>
	<path class="st13" d="M1007.5,260.8v-2h4.1v-11h-0.2l-3.4,3.6l-1.4-1.3l3.7-4.1h3.6v12.7h3.6v2h-10L1007.5,260.8L1007.5,260.8z"/>
	<path class="st13" d="M1020.1,260.8v-2h4.1v-11h-0.2l-3.4,3.6l-1.4-1.3l3.7-4.1h3.6v12.7h3.6v2h-10L1020.1,260.8L1020.1,260.8z"/>
	<path class="st13" d="M1032.6,251.4v-0.3c0-0.8,0.5-1.4,1.5-1.4s1.5,0.6,1.5,1.4v0.3c0,0.8-0.5,1.4-1.5,1.4
		C1033.1,252.8,1032.6,252.2,1032.6,251.4z M1032.6,259.6v-0.3c0-0.8,0.5-1.4,1.5-1.4s1.5,0.6,1.5,1.4v0.3c0,0.8-0.5,1.4-1.5,1.4
		C1033.1,261.1,1032.6,260.4,1032.6,259.6z"/>
	<path class="st13" d="M1042.8,252.2c1.8,0,2.7-0.9,2.7-2.1V250c0-1.3-0.9-2.1-2.3-2.1s-2.4,0.7-3,1.8l-1.6-1.4
		c0.9-1.3,2.2-2.4,4.7-2.4c2.8,0,4.8,1.4,4.8,3.8c0,1.9-1.3,3-2.8,3.4v0.1c1.7,0.3,3.1,1.5,3.1,3.6c0,2.6-2.1,4.3-5.2,4.3
		c-2.7,0-4.1-1.3-5-2.6l1.7-1.4c0.7,1.2,1.6,2,3.3,2c1.8,0,2.8-0.9,2.8-2.4v-0.1c0-1.5-1-2.3-2.9-2.3h-1.6v-2h1.3V252.2z"/>
	<path class="st13" d="M1050.9,253.5c0-4.8,1.7-7.6,5.3-7.6c3.7,0,5.3,2.8,5.3,7.6c0,4.8-1.7,7.6-5.3,7.6S1050.9,258.3,1050.9,253.5
		z M1059,254.8v-2.6c0-2.6-0.8-4.3-2.8-4.3s-2.8,1.7-2.8,4.3v2.6c0,2.6,0.8,4.3,2.8,4.3C1058.3,259,1059,257.3,1059,254.8z"/>
	<path class="st13" d="M1073.5,260.8l-1.3-4h-5.5l-1.3,4h-2.4l5-14.7h3l5,14.7H1073.5z M1069.5,248.3L1069.5,248.3l-2.2,6.5h4.3
		L1069.5,248.3z"/>
	<path class="st13" d="M1078.3,246.1h2.8l3.9,7.5h0.1l3.9-7.5h2.7v14.7h-2.3v-11.2h-0.1l-1.2,2.4l-3.2,5.9l-3.2-5.9l-1.2-2.4h-0.1
		v11.2h-2.3v-14.7L1078.3,246.1L1078.3,246.1z"/>
</g>
<g>
	<path class="st13" d="M662.3,670.1c2.1,0,3-1,3-2.4v-0.2c0-1.5-1.1-2.4-2.7-2.4c-1.6,0-2.7,0.8-3.5,2l-1.8-1.6
		c1-1.5,2.5-2.8,5.3-2.8c3.2,0,5.4,1.6,5.4,4.3c0,2.1-1.5,3.5-3.2,3.8v0.1c1.9,0.4,3.5,1.7,3.5,4.2c0,2.9-2.4,4.9-6,4.9
		c-3.1,0-4.7-1.5-5.7-3l2-1.6c0.8,1.3,1.8,2.3,3.7,2.3c2,0,3.2-1,3.2-2.8v-0.2c0-1.7-1.2-2.6-3.3-2.6h-1.8v-2.3h1.9L662.3,670.1
		L662.3,670.1z"/>
	<path class="st13" d="M672.1,678.7v-0.4c0-0.9,0.6-1.6,1.8-1.6s1.8,0.7,1.8,1.6v0.4c0,0.9-0.6,1.6-1.8,1.6
		C672.7,680.3,672.1,679.6,672.1,678.7z"/>
	<path class="st13" d="M657.8,692h8.1c2.8,0,4.4,1.7,4.4,4.3s-1.4,3.5-3.1,3.6v0.1c1.6,0,3.8,1.1,3.8,3.9c0,2.6-1.8,4.8-4.3,4.8
		h-8.9V692z M661.5,698.9h3.6c1,0,1.5-0.6,1.5-1.5v-0.7c0-1-0.6-1.5-1.5-1.5h-3.6V698.9z M661.5,705.7h4.2c1,0,1.6-0.6,1.6-1.5v-0.8
		c0-1-0.6-1.5-1.6-1.5h-4.2V705.7z"/>
	<path class="st13" d="M673.9,692h8.1c2.8,0,4.4,1.7,4.4,4.3s-1.4,3.5-3.1,3.6v0.1c1.6,0,3.8,1.1,3.8,3.9c0,2.6-1.8,4.8-4.3,4.8
		h-8.9V692z M677.5,698.9h3.6c1,0,1.5-0.6,1.5-1.5v-0.7c0-1-0.6-1.5-1.5-1.5h-3.6V698.9z M677.5,705.7h4.2c1,0,1.6-0.6,1.6-1.5v-0.8
		c0-1-0.6-1.5-1.6-1.5h-4.2V705.7z"/>
	<path class="st13" d="M701,713.2h-2.3c-2.6,0-3.7-1.2-3.7-3.6V709c-3.6-0.6-5.8-3.6-5.8-8.5c0-5.7,2.9-8.7,7.4-8.7s7.4,3,7.4,8.7
		c0,4.8-2.1,7.7-5.5,8.5v1.3h2.6v2.9H701z M700.1,701.7v-2.5c0-2.7-1.3-4.2-3.5-4.2s-3.5,1.5-3.5,4.2v2.5c0,2.7,1.3,4.2,3.5,4.2
		S700.1,704.3,700.1,701.7z"/>
	<path class="st13" d="M722.5,707.4c-1.1,0.9-2.5,1.7-4.8,1.7c-3.7,0-5.7-2-5.7-4.7c0-2.3,1.4-3.5,3.4-4.7c-0.9-1.1-1.9-2.4-1.9-4
		c0-2.2,1.9-4,5-4c2.7,0,4.8,1.4,4.8,3.8c0,2.1-1.5,3.4-3.3,4.5l2.6,2.8c0.4-1,0.6-2.2,0.7-3.3h4v3h-1.5c-0.3,1-0.6,1.9-1.1,2.7
		l3.3,3.6h-4.3L722.5,707.4z M720.7,705.5l-3.5-3.8c-1.1,0.6-1.5,1.3-1.5,2.1v0.2c0,1.2,0.9,2.1,2.6,2.1
		C719.2,706.1,720,705.9,720.7,705.5z M716.9,695.8L716.9,695.8c0,0.7,0.4,1.2,1.4,2.4c1.1-0.7,1.7-1.3,1.7-2.3v-0.1
		c0-0.9-0.7-1.4-1.5-1.4S716.9,695,716.9,695.8z"/>
	<path class="st13" d="M735.6,692h8.1c2.8,0,4.4,1.7,4.4,4.3s-1.4,3.5-3.1,3.6v0.1c1.6,0,3.8,1.1,3.8,3.9c0,2.6-1.8,4.8-4.3,4.8
		h-8.9V692z M739.3,698.9h3.6c1,0,1.5-0.6,1.5-1.5v-0.7c0-1-0.6-1.5-1.5-1.5h-3.6V698.9z M739.3,705.7h4.2c1,0,1.6-0.6,1.6-1.5v-0.8
		c0-1-0.6-1.5-1.6-1.5h-4.2V705.7z"/>
	<path class="st13" d="M762.3,706.1L762.3,706.1c-0.3,1.7-1.9,3-4.4,3c-3.8,0-6.9-3-6.9-8.6s3-8.7,7.6-8.7c3,0,5.2,1.3,6.5,3.9
		l-3,1.7c-0.5-1.3-1.5-2.4-3.5-2.4c-2.3,0-3.7,1.3-3.7,4.1v2.7c0,2.8,1.5,4.1,3.7,4.1c1.8,0,3.3-0.9,3.3-2.5v-0.8h-3.1v-3h6.6v9.3
		h-3.1L762.3,706.1L762.3,706.1z"/>
	<path class="st13" d="M774,700.9l-1.6-3.4h-0.1v11.3h-3.4V692h4l4.6,7.9l1.6,3.4h0.1V692h3.4v16.8h-4L774,700.9z"/>
	<path class="st13" d="M666.7,728.2h-6.5l-0.4,5.2h0.1c0.7-1.2,1.4-1.9,3.1-1.9c2.5,0,4.4,1.7,4.4,4.6c0,2.9-1.9,5-5.2,5
		c-2.6,0-4-1.3-4.9-2.6l1.7-1.4c0.7,1.2,1.5,2,3.2,2s2.7-1,2.7-2.7v-0.3c0-1.7-1-2.7-2.7-2.7c-1.3,0-2,0.6-2.5,1.2l-2-0.3l0.5-8.2
		h8.3v2.1L666.7,728.2L666.7,728.2z"/>
	<path class="st13" d="M670.3,731.4v-0.3c0-0.8,0.5-1.4,1.5-1.4s1.5,0.6,1.5,1.4v0.3c0,0.8-0.5,1.4-1.5,1.4S670.3,732.2,670.3,731.4
		z M670.3,739.6v-0.3c0-0.8,0.5-1.4,1.5-1.4s1.5,0.6,1.5,1.4v0.3c0,0.8-0.5,1.4-1.5,1.4S670.3,740.4,670.3,739.6z"/>
	<path class="st13" d="M676.1,733.5c0-4.8,1.7-7.6,5.3-7.6s5.3,2.8,5.3,7.6s-1.7,7.6-5.3,7.6S676.1,738.3,676.1,733.5z M684.2,734.8
		v-2.6c0-2.6-0.8-4.3-2.8-4.3s-2.8,1.7-2.8,4.3v2.6c0,2.6,0.8,4.3,2.8,4.3S684.2,737.3,684.2,734.8z"/>
	<path class="st13" d="M688.7,733.5c0-4.8,1.7-7.6,5.3-7.6s5.3,2.8,5.3,7.6s-1.7,7.6-5.3,7.6S688.7,738.3,688.7,733.5z M696.8,734.8
		v-2.6c0-2.6-0.8-4.3-2.8-4.3s-2.8,1.7-2.8,4.3v2.6c0,2.6,0.8,4.3,2.8,4.3S696.8,737.3,696.8,734.8z"/>
	<path class="st13" d="M702.1,740.8v-14.7h6.3c2.7,0,4.3,1.7,4.3,4.4s-1.6,4.4-4.3,4.4h-3.9v5.8L702.1,740.8L702.1,740.8z
		 M704.5,732.9h3.8c1.2,0,1.9-0.7,1.9-1.8v-1c0-1.2-0.7-1.8-1.9-1.8h-3.8V732.9z"/>
	<path class="st13" d="M715.3,726.1h2.8l3.9,7.5h0.1l3.9-7.5h2.7v14.7h-2.3v-11.2h-0.1l-1.2,2.4l-3.2,5.9l-3.2-5.9l-1.2-2.4h-0.1
		v11.2h-2.3v-14.7H715.3z"/>
	<path class="st13" d="M736.8,735.6v-2.3h5.8v2.3H736.8z"/>
	<path class="st13" d="M755.1,740.8H752c3.3-2.4,5.2-4.3,5.9-7.5h-0.1c-0.6,1.2-1.6,2.1-3.4,2.1c-2.5,0-4.3-1.8-4.3-4.5
		c0-2.9,2-5,5.1-5c3.2,0,5.2,2.2,5.2,5.7C760.3,735.8,757.5,739.2,755.1,740.8z M757.9,730.8v-0.3c0-1.7-1-2.7-2.7-2.7
		s-2.7,0.9-2.7,2.7v0.3c0,1.7,1,2.7,2.7,2.7S757.9,732.5,757.9,730.8z"/>
	<path class="st13" d="M763.2,731.4v-0.3c0-0.8,0.5-1.4,1.5-1.4s1.5,0.6,1.5,1.4v0.3c0,0.8-0.5,1.4-1.5,1.4
		C763.7,732.8,763.2,732.2,763.2,731.4z M763.2,739.6v-0.3c0-0.8,0.5-1.4,1.5-1.4s1.5,0.6,1.5,1.4v0.3c0,0.8-0.5,1.4-1.5,1.4
		C763.7,741.1,763.2,740.4,763.2,739.6z"/>
	<path class="st13" d="M769,733.5c0-4.8,1.7-7.6,5.3-7.6s5.3,2.8,5.3,7.6s-1.7,7.6-5.3,7.6S769,738.3,769,733.5z M777.1,734.8v-2.6
		c0-2.6-0.8-4.3-2.8-4.3s-2.8,1.7-2.8,4.3v2.6c0,2.6,0.8,4.3,2.8,4.3S777.1,737.3,777.1,734.8z"/>
	<path class="st13" d="M781.6,733.5c0-4.8,1.7-7.6,5.3-7.6s5.3,2.8,5.3,7.6s-1.7,7.6-5.3,7.6S781.6,738.3,781.6,733.5z M789.7,734.8
		v-2.6c0-2.6-0.8-4.3-2.8-4.3s-2.8,1.7-2.8,4.3v2.6c0,2.6,0.8,4.3,2.8,4.3S789.7,737.3,789.7,734.8z"/>
	<path class="st13" d="M795,740.8v-14.7h6.3c2.7,0,4.3,1.7,4.3,4.4s-1.6,4.4-4.3,4.4h-3.9v5.8L795,740.8L795,740.8z M797.4,732.9
		h3.8c1.2,0,1.9-0.7,1.9-1.8v-1c0-1.2-0.7-1.8-1.9-1.8h-3.8V732.9z"/>
	<path class="st13" d="M808.2,726.1h2.8l3.9,7.5h0.1l3.9-7.5h2.7v14.7h-2.3v-11.2h-0.1L818,732l-3.2,5.9l-3.2-5.9l-1.2-2.4h-0.1
		v11.2H808v-14.7H808.2z"/>
	<path class="st13" d="M662.4,762.3v10.5H660v-10.5h-3.6v-2.1h9.5v2.1H662.4z"/>
	<path class="st13" d="M674.5,772.8l-1-3.2H669l-1,3.2h-2.4l4.2-12.6h3l4.2,12.6H674.5z M671.3,762.4L671.3,762.4l-1.7,5.2h3.3
		L671.3,762.4z"/>
	<path class="st13" d="M678.1,770.9l1.6-1.5c0.9,1,1.9,1.5,3.2,1.5c1.5,0,2.2-0.7,2.2-1.8c0-0.8-0.4-1.4-1.7-1.6l-1.2-0.2
		c-2.5-0.4-3.8-1.6-3.8-3.7c0-2.3,1.7-3.7,4.6-3.7c1.9,0,3.3,0.6,4.3,1.9l-1.6,1.5c-0.6-0.8-1.5-1.3-2.8-1.3c-1.4,0-2.1,0.5-2.1,1.5
		s0.5,1.4,1.7,1.6l1.2,0.2c2.5,0.4,3.7,1.6,3.7,3.7c0,2.4-1.7,4-4.7,4C680.6,773,679.1,772.2,678.1,770.9z"/>
	<path class="st13" d="M689.3,766.6c0-4.2,2.1-6.6,5.4-6.6c2.3,0,3.7,1,4.6,2.9l-2,1.1c-0.4-1.1-1.2-1.9-2.6-1.9
		c-1.8,0-2.9,1.3-2.9,3.4v2c0,2.2,1.1,3.4,2.9,3.4c1.4,0,2.3-0.9,2.7-2l1.9,1.1c-0.9,1.9-2.4,3-4.6,3
		C691.4,773,689.3,770.8,689.3,766.6z"/>
	<path class="st13" d="M701.6,772.8v-1.9h3.5V762h-0.2l-2.7,3.2l-1.5-1.2l3.1-3.7h3.6v10.6h2.9v1.9H701.6L701.6,772.8z"/>
	<path class="st13" d="M720.4,772.8h-3.2c3-2.1,4.7-3.8,5.2-6.4h-0.1c-0.5,1-1.3,1.9-2.8,1.9c-2.1,0-3.7-1.5-3.7-3.9
		c0-2.5,1.8-4.3,4.6-4.3c2.9,0,4.6,1.9,4.6,4.9C724.9,768.6,722.5,771.4,720.4,772.8z M722.4,764.3V764c0-1.4-0.8-2.1-2.1-2.1
		s-2.1,0.8-2.1,2.1v0.3c0,1.4,0.8,2.1,2.1,2.1C721.6,766.4,722.4,765.7,722.4,764.3z"/>
	<path class="st13" d="M735.6,772.8h-8.7v-2.2l3.9-3.5c1.3-1.2,1.9-2,1.9-3.1v-0.2c0-1.1-0.8-1.7-1.9-1.7c-1.3,0-1.9,0.8-2.2,1.9
		l-2.1-0.8c0.5-1.7,1.9-3.1,4.4-3.1c2.6,0,4.2,1.6,4.2,3.7c0,2.1-1.4,3.4-3.2,4.9l-2.6,2.2h6.1v1.9L735.6,772.8L735.6,772.8z"/>
	<path class="st13" d="M737.3,766.5c0-4.1,1.5-6.5,4.7-6.5s4.7,2.4,4.7,6.5s-1.5,6.5-4.7,6.5S737.3,770.6,737.3,766.5z M744.1,767.7
		v-2.3c0-2.1-0.6-3.4-2.2-3.4s-2.2,1.3-2.2,3.4v2.3c0,2.1,0.6,3.4,2.2,3.4S744.1,769.7,744.1,767.7z"/>
	<path class="st13" d="M753.6,772.8v-2.4h-5.7v-2l5-8.1h2.9v8.3h1.6v1.8h-1.6v2.4H753.6z M749.9,768.5h3.7v-6h-0.1L749.9,768.5z"/>
</g>
<g>
	<path class="st14" d="M1392,320h-224c-8.8,0-16-7.2-16-16v-96c0-8.8,7.2-16,16-16h224c8.8,0,16,7.2,16,16v96
		C1408,312.8,1400.8,320,1392,320z"/>
	<path d="M1392,321h-224c-9.4,0-17-7.6-17-17v-96c0-9.4,7.6-17,17-17h224c9.4,0,17,7.6,17,17v96C1409,313.4,1401.4,321,1392,321z
		 M1168,193c-8.3,0-15,6.7-15,15v96c0,8.3,6.7,15,15,15h224c8.3,0,15-6.7,15-15v-96c0-8.3-6.7-15-15-15H1168z"/>
</g>
<g>
	<path class="st13" d="M1172,219l-2.2-1.5l2.7-3.2l-3.8-1.2l0.8-2.4l3.7,1.5l-0.2-4h2.7l-0.2,4l3.7-1.5l0.8,2.4l-3.8,1.2l2.6,3.2
		l-2.2,1.4l-2.3-3.4L1172,219z"/>
	<path class="st13" d="M1180.1,222.6v-0.4c0-1,0.6-1.7,1.8-1.7s1.8,0.7,1.8,1.7v0.4c0,1-0.6,1.7-1.8,1.7S1180.1,223.5,1180.1,222.6z
		"/>
	<path class="st13" d="M1172.5,248l-3.8-16.8h3.6l1.6,8l0.9,4.7h0.1l1.1-4.7l1.8-8h4l1.9,8l1,4.7h0.1l0.9-4.7l1.6-8h3.5l-3.9,16.8
		h-4.2l-2.1-9.1l-0.8-3.7h-0.1l-0.8,3.7l-2.1,9.1H1172.5z"/>
	<path class="st13" d="M1192.7,232.3v-0.5c0-1,0.6-1.8,2.1-1.8c1.4,0,2.1,0.7,2.1,1.8v0.5c0,1-0.6,1.8-2.1,1.8
		C1193.3,234.1,1192.7,233.3,1192.7,232.3z M1193,235.4h3.6V248h-3.6V235.4z"/>
	<path class="st13" d="M1199.4,239.7c0-5.7,2.9-8.8,7.4-8.8c3.1,0,5,1.2,6.3,3.9l-3.1,1.6c-0.4-1.4-1.3-2.3-3.1-2.3
		c-2.1,0-3.6,1.4-3.6,4.1v2.7c0,2.6,1.4,4.1,3.6,4.1c1.8,0,2.8-1.1,3.3-2.5l3,1.7c-1.2,2.5-3.2,4-6.3,4
		C1202.3,248.3,1199.4,245.4,1199.4,239.7z"/>
	<path class="st13" d="M1214.8,245.6l2.4-2.4c1.1,1.3,2.6,1.9,4.2,1.9c1.8,0,2.6-0.8,2.6-2c0-0.9-0.4-1.6-1.9-1.8l-1.7-0.2
		c-3.5-0.5-5.1-2.2-5.1-5c0-3,2.4-5.1,6.3-5.1c2.5,0,4.4,0.8,5.8,2.4l-2.4,2.4c-0.8-0.9-1.9-1.6-3.6-1.6c-1.6,0-2.4,0.6-2.4,1.6
		c0,1.2,0.6,1.6,2,1.8l1.7,0.3c3.4,0.6,5.1,2.1,5.1,5c0,3.2-2.4,5.4-6.5,5.4C1218.2,248.3,1216.2,247.2,1214.8,245.6z"/>
	<path class="st13" d="M1236.3,248v-16.8h3.6v13.5h6.4v3.2H1236.3z"/>
	<path class="st13" d="M1256.2,245.9h-0.1c-0.4,1.3-1.5,2.4-3.5,2.4c-2.6,0-3.9-1.8-3.9-5v-7.9h3.6v7.6c0,1.5,0.5,2.4,1.8,2.4
		c1.1,0,2.2-0.6,2.2-1.8v-8.2h3.6V248h-3.6V245.9z"/>
	<path class="st13" d="M1263,248v-12.6h3.6v2.1h0.1c0.5-1.3,1.5-2.4,3.5-2.4c2.6,0,3.9,1.8,3.9,5v7.9h-3.6v-7.6
		c0-1.6-0.5-2.4-1.8-2.4c-1.2,0-2.3,0.6-2.3,1.8v8.2H1263z"/>
	<path class="st13" d="M1276.6,241.7c0-4,2.1-6.6,5.9-6.6c2.5,0,4.3,1.2,5,3.3l-2.9,1.2c-0.2-1-0.9-1.7-2.2-1.7
		c-1.4,0-2.2,1-2.2,2.6v2.4c0,1.6,0.7,2.6,2.2,2.6c1.4,0,2-0.9,2.4-1.9l2.8,1.2c-0.8,2.4-2.6,3.5-5.1,3.5
		C1278.6,248.3,1276.6,245.7,1276.6,241.7z"/>
	<path class="st13" d="M1289.8,230.2h3.6v7.3h0.1c0.5-1.3,1.5-2.4,3.5-2.4c2.6,0,3.9,1.8,3.9,5v7.9h-3.6v-7.6c0-1.6-0.5-2.4-1.8-2.4
		c-1.2,0-2.3,0.6-2.3,1.8v8.2h-3.6V230.2z"/>
	<path class="st13" d="M1169.7,272v-2.2h3.4v-8.4h-0.2l-2.6,3.3l-1.7-1.4l3-4h4.1v10.4h2.7v2.2H1169.7z"/>
	<path class="st13" d="M1179.4,265.7c0-4.1,1.5-6.5,4.8-6.5s4.8,2.4,4.8,6.5c0,4.1-1.5,6.5-4.8,6.5S1179.4,269.8,1179.4,265.7z
		 M1186.1,266.9v-2.4c0-1.9-0.5-3-1.9-3s-1.9,1.1-1.9,3v2.4c0,1.9,0.5,3,1.9,3S1186.1,268.8,1186.1,266.9z"/>
	<path class="st13" d="M1191,264.1v-0.4c0-0.8,0.5-1.4,1.6-1.4s1.6,0.6,1.6,1.4v0.4c0,0.8-0.5,1.4-1.6,1.4S1191,265,1191,264.1z
		 M1191,270.8v-0.4c0-0.8,0.5-1.4,1.6-1.4s1.6,0.6,1.6,1.4v0.4c0,0.8-0.5,1.4-1.6,1.4S1191,271.6,1191,270.8z"/>
	<path class="st13" d="M1196.1,265.7c0-4.1,1.5-6.5,4.8-6.5s4.8,2.4,4.8,6.5c0,4.1-1.5,6.5-4.8,6.5S1196.1,269.8,1196.1,265.7z
		 M1202.8,266.9v-2.4c0-1.9-0.5-3-1.9-3s-1.9,1.1-1.9,3v2.4c0,1.9,0.5,3,1.9,3S1202.8,268.8,1202.8,266.9z"/>
	<path class="st13" d="M1206.9,265.7c0-4.1,1.5-6.5,4.8-6.5s4.8,2.4,4.8,6.5c0,4.1-1.5,6.5-4.8,6.5S1206.9,269.8,1206.9,265.7z
		 M1213.6,266.9v-2.4c0-1.9-0.5-3-1.9-3s-1.9,1.1-1.9,3v2.4c0,1.9,0.5,3,1.9,3S1213.6,268.8,1213.6,266.9z"/>
	<path class="st13" d="M1226.3,272l-0.9-3h-4.2l-0.9,3h-2.8l4.1-12.6h3.4l4.1,12.6H1226.3z M1223.3,261.9L1223.3,261.9l-1.5,4.8h2.9
		L1223.3,261.9z"/>
	<path class="st13" d="M1240.3,263.8L1240.3,263.8l-1,1.8l-2.4,4.4l-2.4-4.4l-1-2h-0.1v8.4h-2.6v-12.6h2.9l3.1,5.9h0l3-5.9h2.9V272
		h-2.6V263.8z"/>
	<path class="st13" d="M1249.4,267.8v-2.6h5.3v2.6H1249.4z"/>
	<path class="st13" d="M1261.7,272v-2.2h3.4v-8.4h-0.2l-2.6,3.3l-1.7-1.4l3-4h4.1v10.4h2.7v2.2H1261.7z"/>
	<path class="st13" d="M1280.7,272h-8.9v-2.5l3.9-3.3c1.4-1.2,1.9-1.9,1.9-3V263c0-1-0.8-1.4-1.7-1.4c-1.2,0-1.8,0.8-2,1.8l-2.4-0.9
		c0.6-1.7,2-3.2,4.6-3.2c2.7,0,4.3,1.6,4.3,3.8c0,2.2-1.5,3.5-3.3,4.9l-2.3,1.8h5.9V272z"/>
	<path class="st13" d="M1282.9,264.1v-0.4c0-0.8,0.5-1.4,1.6-1.4s1.6,0.6,1.6,1.4v0.4c0,0.8-0.5,1.4-1.6,1.4
		S1282.9,265,1282.9,264.1z M1282.9,270.8v-0.4c0-0.8,0.5-1.4,1.6-1.4s1.6,0.6,1.6,1.4v0.4c0,0.8-0.5,1.4-1.6,1.4
		S1282.9,271.6,1282.9,270.8z"/>
	<path class="st13" d="M1288.1,265.7c0-4.1,1.5-6.5,4.8-6.5s4.8,2.4,4.8,6.5c0,4.1-1.5,6.5-4.8,6.5S1288.1,269.8,1288.1,265.7z
		 M1294.8,266.9v-2.4c0-1.9-0.5-3-1.9-3s-1.9,1.1-1.9,3v2.4c0,1.9,0.5,3,1.9,3S1294.8,268.8,1294.8,266.9z"/>
	<path class="st13" d="M1298.9,265.7c0-4.1,1.5-6.5,4.8-6.5s4.8,2.4,4.8,6.5c0,4.1-1.5,6.5-4.8,6.5S1298.9,269.8,1298.9,265.7z
		 M1305.6,266.9v-2.4c0-1.9-0.5-3-1.9-3s-1.9,1.1-1.9,3v2.4c0,1.9,0.5,3,1.9,3S1305.6,268.8,1305.6,266.9z"/>
	<path class="st13" d="M1310.5,272v-12.6h5.9c2.3,0,3.8,1.6,3.8,4c0,2.4-1.5,4-3.8,4h-3.2v4.5H1310.5z M1313.2,265.1h2.9
		c0.8,0,1.3-0.4,1.3-1.2v-0.8c0-0.8-0.5-1.2-1.3-1.2h-2.9V265.1z"/>
	<path class="st13" d="M1331.7,263.8L1331.7,263.8l-1,1.8l-2.4,4.4l-2.4-4.4l-1-2h-0.1v8.4h-2.6v-12.6h2.9l3.1,5.9h0l3-5.9h2.9V272
		h-2.6V263.8z"/>
	<path class="st13" d="M1177.1,296l-0.9-3h-4.2l-0.9,3h-2.8l4.1-12.6h3.4l4.1,12.6H1177.1z M1174.2,285.9L1174.2,285.9l-1.5,4.8h2.9
		L1174.2,285.9z"/>
	<path class="st13" d="M1181,294.2l1.8-1.8c0.8,1,1.9,1.4,3.2,1.4c1.3,0,2-0.6,2-1.5c0-0.7-0.3-1.2-1.5-1.4l-1.2-0.2
		c-2.6-0.3-3.9-1.6-3.9-3.7c0-2.3,1.8-3.8,4.7-3.8c1.9,0,3.3,0.6,4.4,1.8l-1.8,1.8c-0.6-0.7-1.4-1.2-2.7-1.2c-1.2,0-1.8,0.5-1.8,1.2
		c0,0.9,0.5,1.2,1.5,1.4l1.2,0.2c2.6,0.4,3.8,1.6,3.8,3.7c0,2.4-1.8,4.1-4.9,4.1C1183.6,296.2,1182.1,295.4,1181,294.2z"/>
	<path class="st13" d="M1192.9,283.4h6.1c2.1,0,3.3,1.3,3.3,3.2c0,1.9-1.1,2.6-2.3,2.7v0.1c1.2,0,2.8,0.8,2.8,3c0,2-1.4,3.6-3.2,3.6
		h-6.7V283.4z M1195.7,288.6h2.7c0.7,0,1.2-0.4,1.2-1.2v-0.5c0-0.7-0.4-1.2-1.2-1.2h-2.7V288.6z M1195.7,293.7h3.2
		c0.7,0,1.2-0.4,1.2-1.1v-0.6c0-0.7-0.5-1.1-1.2-1.1h-3.2V293.7z"/>
	<path class="st13" d="M1213.4,296h-3.7c3.1-2.2,4.9-3.9,5.4-6.3l-0.2-0.1c-0.4,1-1.2,1.9-2.8,1.9c-2.1,0-3.7-1.5-3.7-3.9
		c0-2.6,1.9-4.4,4.7-4.4c3,0,4.7,2,4.7,5C1217.9,291.7,1215.5,294.5,1213.4,296z M1215.1,287.6v-0.3c0-1.2-0.7-1.9-1.9-1.9
		c-1.2,0-1.9,0.7-1.9,1.9v0.3c0,1.2,0.7,1.9,1.9,1.9C1214.3,289.5,1215.1,288.8,1215.1,287.6z"/>
	<path class="st13" d="M1221.6,296l4.2-10.4h-3.9v2.3h-2.3v-4.5h8.9v2.3l-4.1,10.2H1221.6z"/>
	<path class="st13" d="M1230,289.7c0-4.1,1.5-6.5,4.8-6.5s4.8,2.4,4.8,6.5c0,4.1-1.5,6.5-4.8,6.5S1230,293.8,1230,289.7z
		 M1236.7,290.9v-2.4c0-1.9-0.5-3-1.9-3s-1.9,1.1-1.9,3v2.4c0,1.9,0.5,3,1.9,3S1236.7,292.8,1236.7,290.9z"/>
	<path class="st13" d="M1244.9,288.4c1.3,0,1.9-0.6,1.9-1.4v-0.1c0-0.9-0.6-1.5-1.7-1.5c-1,0-1.9,0.5-2.6,1.5l-1.7-1.6
		c1-1.2,2.2-2.1,4.3-2.1c2.7,0,4.4,1.3,4.4,3.3c0,1.6-1.1,2.6-2.4,2.8v0.1c1.5,0.3,2.6,1.3,2.6,3c0,2.3-1.9,3.7-4.8,3.7
		c-2.6,0-3.8-1.1-4.6-2.4l2-1.5c0.5,1,1.3,1.8,2.6,1.8c1.2,0,1.9-0.7,1.9-1.7v-0.1c0-1-0.8-1.5-2.2-1.5h-1.1v-2.3H1244.9z"/>
</g>
</svg>
